{
.appVersion = "1352";
DisplayStrings = (
"/.notdef"
);
copyright = "Copyright 2013-2021 The Island Moments Project Authors (https://github.com/googlefonts/island-moments)";
customParameters = (
{
name = licenseURL;
value = "https://scripts.sil.org/OFL";
},
{
name = license;
value = "This Font Software is licensed under the SIL Open Font License, Version 1.1. This license is available with a FAQ at: https://scripts.sil.org/OFL";
},
{
name = vendorID;
value = GOOG;
},
{
name = "Disable Subroutines";
value = 1;
},
{
name = glyphOrder;
value = (
.notdef,
CR,
.null,
space
);
},
{
name = fsType;
value = (
);
},
{
name = "Use Typo Metrics";
value = 1;
},
{
name = Axes;
value = (
{
Name = Weight;
Tag = wght;
}
);
}
);
date = "2021-11-02 02:10:50 +0000";
designer = "Robert E. Leuschke";
designerURL = www.typesetit.com;
disablesNiceNames = 1;
familyName = "Island Moments";
featurePrefixes = (
{
automatic = 1;
code = "languagesystem DFLT dflt;\012\012languagesystem latn dflt;\012languagesystem latn AZE;\012languagesystem latn CRT;\012languagesystem latn KAZ;\012languagesystem latn TAT;\012languagesystem latn TRK;\012languagesystem latn ROM;\012languagesystem latn MOL;\012languagesystem latn CAT;\012";
name = Languagesystems;
}
);
features = (
{
automatic = 1;
code = "feature locl;\012feature sups;\012feature frac;\012feature ordn;\012feature salt;\012feature ss01;\012feature ss02;\012";
name = aalt;
},
{
automatic = 1;

glyphs = (
{
glyphname = .notdef;
lastChange = "2021-11-02 02:14:36 +0000";
layers = (
{
layerId = "0027A263-E542-4E44-90C9-E4382CD4DF90";
paths = (
{
closed = 1;
nodes = (
"443 -5 LINE",
"454 7 LINE",
"454 575 LINE",
"443 587 LINE",
"52 587 LINE",
"40 575 LINE",
"40 7 LINE",
"52 -5 LINE"
);
},
{
closed = 1;
nodes = (
"147 139 LINE",
"230 292 LINE",
"147 443 LINE",
"158 465 LINE",
"241 314 LINE",
"326 466 LINE",
"339 443 LINE",
"253 290 LINE",
"339 139 LINE",
"326 117 LINE",
"241 267 LINE",
"158 117 LINE"
);
},
{
closed = 1;
nodes = (
"66 561 LINE",
"430 561 LINE",
"430 21 LINE",
"66 21 LINE"
);
},
{
closed = 1;
nodes = (
"407 40 LINE",
"407 538 LINE",
"87 538 LINE",
"87 40 LINE"
);
}
);
width = 494;
}
);
note = .notdef;
},
{
glyphname = A;
lastChange = "2021-09-14 05:10:54 +0000";
layers = (
{
hints = (
{
horizontal = 1;
place = "{78, 32}";
type = Stem;
},
{
horizontal = 1;
place = "{398, 27}";
type = Stem;
},
{
horizontal = 1;
place = "{587, 62}";
type = Stem;
},
{
place = "{-498, 39}";
type = Stem;
},
{
place = "{25, 37}";
type = Stem;
},
{
place = "{274, 50}";
type = Stem;
}
);
layerId = "0027A263-E542-4E44-90C9-E4382CD4DF90";
paths = (
{
closed = 1;
nodes = (
"363 177 LINE",
"352 166 OFFCURVE",
"342 155 OFFCURVE",
"331 145 CURVE",
"320 150 LINE SMOOTH",
"318 151 OFFCURVE",
"315 146 OFFCURVE",
"313 147 CURVE SMOOTH",
"307 149 OFFCURVE",
"302 152 OFFCURVE",
"296 155 CURVE",
"280 160 OFFCURVE",
"264 165 OFFCURVE",
"247 169 CURVE",
"260 171 OFFCURVE",
"263 171 OFFCURVE",
"282 172 CURVE SMOOTH"
);
},
{
closed = 1;
nodes = (
"551 176 OFFCURVE",
"543 152 OFFCURVE",
"538 128 CURVE SMOOTH",
"517 29 LINE",
"517 27 OFFCURVE",
"518 27 OFFCURVE",
"519 25 CURVE",
"518 24 OFFCURVE",
"516 20 OFFCURVE",
"516 19 CURVE SMOOTH",
"516 16 LINE",
"510 22 OFFCURVE",
"503 29 OFFCURVE",
"499 32 CURVE SMOOTH",
"438 78 LINE SMOOTH",
"428 86 OFFCURVE",
"417 89 OFFCURVE",
"405 97 CURVE SMOOTH",
"400 101 OFFCURVE",
"398 105 OFFCURVE",
"393 109 CURVE SMOOTH",
"380 118 OFFCURVE",
"365 127 OFFCURVE",
"350 135 CURVE",
"351 136 OFFCURVE",
"353 137 OFFCURVE",
"356 137 CURVE",
"358 142 OFFCURVE",
"363 149 OFFCURVE",
"368 150 CURVE",
"369 153 OFFCURVE",
"373 158 OFFCURVE",
"375 160 CURVE",
"378 161 LINE",
"379 166 OFFCURVE",
"389 173 OFFCURVE",
"392 176 CURVE",
"392 177 OFFCURVE",
"393 179 OFFCURVE",
"393 179 CURVE",
"424 183 LINE",
"432 183 OFFCURVE",
"450 186 OFFCURVE",
"457 187 CURVE SMOOTH",
"470 188 OFFCURVE",
"475 186 OFFCURVE",
"488 187 CURVE SMOOTH",
"506 188 OFFCURVE",
"523 195 OFFCURVE",
"537 198 CURVE SMOOTH",
"546 200 OFFCURVE",
"548 199 OFFCURVE",
"555 201 CURVE SMOOTH",
"556 201 OFFCURVE",
"557 201 OFFCURVE",
"559 202 CURVE"
);
},
{
closed = 1;
nodes = (
"514 -19 LINE",
"519 -23 LINE SMOOTH",
"524 -27 OFFCURVE",
"559 -36 OFFCURVE",
"566 -8 CURVE",
"565 -6 OFFCURVE",
"569 -1 OFFCURVE",
"569 1 CURVE SMOOTH",
"571 24 LINE SMOOTH",
"572 35 OFFCURVE",
"572 50 OFFCURVE",
"571 63 CURVE SMOOTH",
"571 65 OFFCURVE",
"568 64 OFFCURVE",
"568 66 CURVE",
"569 68 OFFCURVE",
"572 75 OFFCURVE",
"572 77 CURVE SMOOTH",
"573 94 OFFCURVE",
"577 126 OFFCURVE",
"582 142 CURVE SMOOTH",
"585 152 OFFCURVE",
"583 151 OFFCURVE",
"578 158 CURVE SMOOTH",
"571 170 OFFCURVE",
"588 166 OFFCURVE",
"589 170 CURVE",
"588 185 LINE",
"592 208 LINE",
"596 209 OFFCURVE",
"600 210 OFFCURVE",
"602 210 CURVE SMOOTH",
"605 210 OFFCURVE",
"611 211 OFFCURVE",
"615 212 CURVE",
"636 224 LINE SMOOTH",
"649 231 OFFCURVE",
"646 241 OFFCURVE",
"632 234 CURVE SMOOTH",
"628 232 OFFCURVE",
"623 230 OFFCURVE",
"620 229 CURVE SMOOTH",
"613 227 OFFCURVE",
"612 229 OFFCURVE",
"605 226 CURVE SMOOTH",
"602 225 OFFCURVE",
"598 223 OFFCURVE",
"594 222 CURVE",
"597 240 OFFCURVE",
"602 261 OFFCURVE",
"609 283 CURVE",
"610 294 OFFCURVE",
"622 316 OFFCURVE",
"628 329 CURVE SMOOTH",
"635 349 LINE SMOOTH",
"637 353 OFFCURVE",
"635 360 OFFCURVE",
"634 362 CURVE",
"643 365 OFFCURVE",
"646 366 OFFCURVE",
"645 377 CURVE",
"659 408 OFFCURVE",
"670 436 OFFCURVE",
"684 460 CURVE",
"688 471 LINE",
"695 480 LINE",
"697 485 LINE",
"706 498 OFFCURVE",
"692 500 OFFCURVE",
"682 487 CURVE SMOOTH",
"680 485 OFFCURVE",
"678 483 OFFCURVE",
"677 480 CURVE",
"662 456 LINE",
"652 435 LINE",
"651 427 OFFCURVE",
"649 422 OFFCURVE",
"644 417 CURVE",
"646 416 OFFCURVE",
"644 414 OFFCURVE",
"645 413 CURVE",
"644 409 OFFCURVE",
"640 407 OFFCURVE",
"636 402 CURVE",
"636 401 LINE",
"623 370 OFFCURVE",
"601 331 OFFCURVE",
"589 294 CURVE",
"585 288 OFFCURVE",
"592 288 OFFCURVE",
"591 285 CURVE SMOOTH",
"589 279 OFFCURVE",
"583 279 OFFCURVE",
"580 270 CURVE SMOOTH",
"571 241 LINE",
"562 213 LINE",
"544 209 OFFCURVE",
"525 207 OFFCURVE",
"513 206 CURVE SMOOTH",
"507 206 OFFCURVE",
"512 199 OFFCURVE",
"508 199 CURVE",
"506 198 OFFCURVE",
"498 203 OFFCURVE",
"496 203 CURVE SMOOTH",
"463 201 LINE SMOOTH",
"448 200 OFFCURVE",
"432 200 OFFCURVE",
"416 200 CURVE",
"417 202 LINE",
"420 204 LINE",
"423 209 OFFCURVE",
"428 213 OFFCURVE",
"431 218 CURVE",
"432 222 OFFCURVE",
"439 228 OFFCURVE",
"442 231 CURVE",
"442 244 OFFCURVE",
"449 246 OFFCURVE",
"457 256 CURVE SMOOTH",
"460 260 OFFCURVE",
"467 274 OFFCURVE",
"472 275 CURVE",
"477 282 OFFCURVE",
"484 286 OFFCURVE",
"489 293 CURVE SMOOTH",
"493 299 OFFCURVE",
"497 310 OFFCURVE",
"505 312 CURVE",
"507 316 OFFCURVE",
"510 320 OFFCURVE",
"513 323 CURVE",
"519 327 OFFCURVE",
"516 327 OFFCURVE",
"520 331 CURVE",
"526 331 OFFCURVE",
"547 363 OFFCURVE",
"554 369 CURVE SMOOTH",
"562 377 OFFCURVE",
"564 386 OFFCURVE",
"571 394 CURVE",
"572 399 OFFCURVE",
"581 405 OFFCURVE",
"586 408 CURVE",
"587 415 OFFCURVE",
"614 431 OFFCURVE",
"621 448 CURVE SMOOTH",
"622 450 OFFCURVE",
"629 452 OFFCURVE",
"631 454 CURVE SMOOTH",
"642 464 OFFCURVE",
"651 487 OFFCURVE",
"626 474 CURVE",
"622 469 LINE",
"615 470 OFFCURVE",
"605 470 OFFCURVE",
"600 471 CURVE SMOOTH",
"578 473 OFFCURVE",
"572 474 OFFCURVE",
"547 472 CURVE SMOOTH",
"544 472 OFFCURVE",
"530 470 OFFCURVE",
"527 469 CURVE",
"524 467 OFFCURVE",
"517 463 OFFCURVE",
"514 465 CURVE",
"513 474 OFFCURVE",
"503 467 OFFCURVE",
"497 468 CURVE SMOOTH",
"492 468 OFFCURVE",
"426 457 OFFCURVE",
"421 455 CURVE SMOOTH",
"414 452 OFFCURVE",
"406 452 OFFCURVE",
"399 451 CURVE",
"395 448 OFFCURVE",
"376 446 OFFCURVE",
"370 444 CURVE",
"367 444 OFFCURVE",
"367 442 OFFCURVE",
"366 440 CURVE",
"361 436 OFFCURVE",
"348 439 OFFCURVE",
"342 437 CURVE SMOOTH",
"319 431 LINE",
"317 430 OFFCURVE",
"321 434 OFFCURVE",
"321 435 CURVE",
"322 436 OFFCURVE",
"346 448 OFFCURVE",
"345 450 CURVE",
"345 454 OFFCURVE",
"313 443 OFFCURVE",
"311 442 CURVE SMOOTH",
"304 440 OFFCURVE",
"271 433 OFFCURVE",
"263 421 CURVE",
"262 415 OFFCURVE",
"271 399 OFFCURVE",
"277 396 CURVE SMOOTH",
"283 393 OFFCURVE",
"290 393 OFFCURVE",
"297 395 CURVE SMOOTH",
"315 400 LINE SMOOTH",
"326 403 OFFCURVE",
"337 409 OFFCURVE",
"348 413 CURVE SMOOTH",
"353 414 OFFCURVE",
"358 415 OFFCURVE",
"362 417 CURVE SMOOTH",
"371 420 LINE SMOOTH",
"381 423 OFFCURVE",
"383 423 OFFCURVE",
"393 427 CURVE SMOOTH",
"405 430 LINE SMOOTH",
"418 433 OFFCURVE",
"431 442 OFFCURVE",
"444 444 CURVE SMOOTH",
"448 444 OFFCURVE",
"452 443 OFFCURVE",
"456 444 CURVE",
"464 444 OFFCURVE",
"475 448 OFFCURVE",
"483 449 CURVE SMOOTH",
"487 450 OFFCURVE",
"481 454 OFFCURVE",
"485 453 CURVE",
"486 452 LINE",
"487 452 OFFCURVE",
"489 450 OFFCURVE",
"489 450 CURVE",
"513 456 OFFCURVE",
"528 459 OFFCURVE",
"553 460 CURVE",
"559 462 OFFCURVE",
"597 462 OFFCURVE",
"605 461 CURVE",
"608 460 OFFCURVE",
"610 459 OFFCURVE",
"612 459 CURVE",
"610 457 OFFCURVE",
"608 456 OFFCURVE",
"607 454 CURVE",
"603 450 OFFCURVE",
"602 445 OFFCURVE",
"598 442 CURVE SMOOTH",
"596 441 OFFCURVE",
"593 440 OFFCURVE",
"592 437 CURVE SMOOTH",
"590 424 OFFCURVE",
"570 414 OFFCURVE",
"565 399 CURVE",
"559 396 OFFCURVE",
"554 386 OFFCURVE",
"548 385 CURVE",
"547 379 OFFCURVE",
"527 362 OFFCURVE",
"523 352 CURVE",
"518 351 OFFCURVE",
"516 344 OFFCURVE",
"514 340 CURVE SMOOTH",
"511 336 OFFCURVE",
"506 333 OFFCURVE",
"502 330 CURVE",
"499 323 OFFCURVE",
"497 317 OFFCURVE",
"490 314 CURVE",
"488 311 OFFCURVE",
"479 300 OFFCURVE",
"477 300 CURVE",
"474 294 OFFCURVE",
"470 287 OFFCURVE",
"465 282 CURVE SMOOTH",
"463 280 OFFCURVE",
"459 279 OFFCURVE",
"457 277 CURVE SMOOTH",
"448 266 LINE SMOOTH",
"445 261 OFFCURVE",
"439 259 OFFCURVE",
"435 255 CURVE SMOOTH",
"422 243 OFFCURVE",
"411 229 OFFCURVE",
"399 216 CURVE SMOOTH",
"383 198 LINE",
"364 198 OFFCURVE",
"345 198 OFFCURVE",
"328 197 CURVE SMOOTH",
"313 197 OFFCURVE",
"289 199 OFFCURVE",
"286 199 CURVE SMOOTH",
"266 201 OFFCURVE",
"245 206 OFFCURVE",
"243 206 CURVE SMOOTH",
"223 207 OFFCURVE",
"216 211 OFFCURVE",
"201 211 CURVE SMOOTH",
"180 212 OFFCURVE",
"160 207 OFFCURVE",
"164 183 CURVE SMOOTH",
"165 174 OFFCURVE",
"167 172 OFFCURVE",
"175 171 CURVE SMOOTH",
"217 167 OFFCURVE",
"253 157 OFFCURVE",
"288 145 CURVE SMOOTH",
"319 133 LINE",
"315 129 LINE SMOOTH",
"312 126 OFFCURVE",
"251 73 OFFCURVE",
"246 71 CURVE",
"243 65 OFFCURVE",
"236 62 OFFCURVE",
"230 59 CURVE",
"230 54 OFFCURVE",
"224 53 OFFCURVE",
"222 50 CURVE SMOOTH",
"220 47 OFFCURVE",
"219 44 OFFCURVE",
"216 41 CURVE",
"197 34 LINE",
"196 30 OFFCURVE",
"195 29 OFFCURVE",
"193 26 CURVE",
"190 26 LINE",
"187 23 OFFCURVE",
"184 19 OFFCURVE",
"180 16 CURVE",
"176 11 OFFCURVE",
"171 13 OFFCURVE",
"167 11 CURVE SMOOTH",
"158 6 LINE SMOOTH",
"154 4 OFFCURVE",
"152 0 OFFCURVE",
"148 -1 CURVE",
"143 -4 OFFCURVE",
"132 -9 OFFCURVE",
"127 -8 CURVE",
"122 -13 OFFCURVE",
"105 -20 OFFCURVE",
"104 -21 CURVE",
"82 -25 LINE SMOOTH",
"75 -26 OFFCURVE",
"67 -25 OFFCURVE",
"61 -26 CURVE",
"58 -25 OFFCURVE",
"51 -24 OFFCURVE",
"50 -21 CURVE",
"46 -22 OFFCURVE",
"40 -17 OFFCURVE",
"40 -13 CURVE",
"31 -14 OFFCURVE",
"27 1 OFFCURVE",
"26 7 CURVE",
"24 9 OFFCURVE",
"24 10 OFFCURVE",
"24 13 CURVE",
"22 12 LINE",
"23 16 LINE",
"24 17 OFFCURVE",
"20 19 OFFCURVE",
"19 20 CURVE SMOOTH",
"15 26 OFFCURVE",
"11 46 OFFCURVE",
"5 26 CURVE SMOOTH",
"4 24 LINE",
"5 15 OFFCURVE",
"2 11 OFFCURVE",
"5 1 CURVE",
"8 -1 OFFCURVE",
"9 1 OFFCURVE",
"11 -4 CURVE",
"12 -4 LINE",
"12 -6 OFFCURVE",
"13 -8 OFFCURVE",
"13 -11 CURVE",
"15 -12 OFFCURVE",
"17 -13 OFFCURVE",
"19 -13 CURVE",
"20 -16 LINE",
"21 -17 OFFCURVE",
"22 -18 OFFCURVE",
"24 -18 CURVE",
"24 -20 OFFCURVE",
"27 -24 OFFCURVE",
"24 -26 CURVE",
"27 -29 OFFCURVE",
"29 -32 OFFCURVE",
"30 -35 CURVE",
"34 -36 LINE",
"33 -42 OFFCURVE",
"50 -38 OFFCURVE",
"49 -47 CURVE",
"52 -47 OFFCURVE",
"63 -46 OFFCURVE",
"57 -53 CURVE",
"59 -52 LINE",
"66 -54 LINE",
"71 -59 OFFCURVE",
"76 -58 OFFCURVE",
"82 -55 CURVE",
"83 -55 OFFCURVE",
"84 -56 OFFCURVE",
"83 -58 CURVE",
"90 -61 OFFCURVE",
"90 -58 OFFCURVE",
"95 -55 CURVE",
"113 -52 OFFCURVE",
"131 -45 OFFCURVE",
"147 -38 CURVE SMOOTH",
"159 -33 OFFCURVE",
"163 -24 OFFCURVE",
"178 -22 CURVE",
"181 -20 OFFCURVE",
"185 -12 OFFCURVE",
"189 -14 CURVE",
"191 -13 LINE",
"192 -9 OFFCURVE",
"197 -9 OFFCURVE",
"199 -6 CURVE SMOOTH",
"202 -3 OFFCURVE",
"202 2 OFFCURVE",
"207 3 CURVE",
"207 5 OFFCURVE",
"226 16 OFFCURVE",
"230 19 CURVE",
"236 31 OFFCURVE",
"239 32 OFFCURVE",
"251 39 CURVE SMOOTH",
"253 40 OFFCURVE",
"264 45 OFFCURVE",
"265 47 CURVE",
"265 51 OFFCURVE",
"263 51 OFFCURVE",
"268 53 CURVE",
"267 54 LINE",
"268 59 OFFCURVE",
"274 60 OFFCURVE",
"277 63 CURVE",
"277 66 OFFCURVE",
"283 69 OFFCURVE",
"286 70 CURVE",
"288 72 OFFCURVE",
"291 75 OFFCURVE",
"292 78 CURVE",
"296 79 OFFCURVE",
"332 115 OFFCURVE",
"340 123 CURVE",
"360 114 OFFCURVE",
"380 102 OFFCURVE",
"399 89 CURVE SMOOTH",
"416 77 OFFCURVE",
"431 63 OFFCURVE",
"447 51 CURVE SMOOTH",
"461 40 OFFCURVE",
"475 33 OFFCURVE",
"490 22 CURVE SMOOTH",
"498 17 OFFCURVE",
"506 10 OFFCURVE",
"514 3 CURVE"
);
}
);
width = 649;
}
);
note = A;
unicode = 0041;
},
{
glyphname = AE;
lastChange = "2021-09-14 05:10:54 +0000";
layers = (
{
hints = (
{
horizontal = 1;
place = "{-171, 17}";
type = Stem;
},
{
horizontal = 1;
place = "{-47, 26}";
type = Stem;
},
{
horizontal = 1;
place = "{-8, 8}";
type = Stem;
},
{
horizontal = 1;
place = "{12, 8}";
type = Stem;
},
{
horizontal = 1;
place = "{25, 10}";
type = Stem;
},
{
horizontal = 1;
place = "{79, 14}";
type = Stem;
},
{
horizontal = 1;
place = "{138, 13}";
type = Stem;
},
{
horizontal = 1;
place = "{209, 17}";
type = Stem;
},
{
horizontal = 1;
place = "{269, 9}";
type = Stem;
},
{
horizontal = 1;
place = "{361, 11}";
type = Stem;
},
{
horizontal = 1;
place = "{449, 21}";
type = Stem;
},
{
place = "{195, 84}";
type = Stem;
},
{
place = "{372, 13}";
type = Stem;
},
{
place = "{429, 51}";
type = Stem;
},
{
place = "{570, 48}";
type = Stem;
},
{
place = "{954, 27}";
type = Stem;
},
{
horizontal = 1;
place = "{-17, 58}";
type = Stem;
},
{
horizontal = 1;
place = "{117, 27}";
type = Stem;
}
);
layerId = "0027A263-E542-4E44-90C9-E4382CD4DF90";
paths = (
{
closed = 1;
nodes = (
"618 385 LINE",
"618 387 OFFCURVE",
"635 425 OFFCURVE",
"635 425 CURVE",
"642 442 OFFCURVE",
"601 469 OFFCURVE",
"545 470 CURVE SMOOTH",
"525 470 OFFCURVE",
"503 466 OFFCURVE",
"482 456 CURVE SMOOTH",
"474 452 LINE",
"443 442 OFFCURVE",
"418 424 OFFCURVE",
"396 402 CURVE",
"388 398 LINE",
"383 391 LINE",
"379 388 OFFCURVE",
"374 384 OFFCURVE",
"371 380 CURVE SMOOTH",
"365 373 LINE SMOOTH",
"353 359 OFFCURVE",
"333 356 OFFCURVE",
"323 340 CURVE SMOOTH",
"316 328 OFFCURVE",
"309 317 OFFCURVE",
"298 306 CURVE SMOOTH",
"292 300 LINE SMOOTH",
"286 295 OFFCURVE",
"281 289 OFFCURVE",
"276 283 CURVE",
"270 278 LINE",
"266 273 LINE",
"215 214 LINE",
"211 209 LINE SMOOTH",
"195 190 OFFCURVE",
"186 166 OFFCURVE",
"165 149 CURVE SMOOTH",
"160 145 LINE SMOOTH",
"158 144 OFFCURVE",
"157 143 OFFCURVE",
"156 141 CURVE",
"144 132 OFFCURVE",
"136 119 OFFCURVE",
"130 104 CURVE SMOOTH",
"125 92 OFFCURVE",
"110 87 OFFCURVE",
"105 75 CURVE",
"104 74 OFFCURVE",
"103 72 OFFCURVE",
"103 70 CURVE",
"98 55 OFFCURVE",
"89 43 OFFCURVE",
"76 35 CURVE",
"72 31 LINE",
"68 25 OFFCURVE",
"63 19 OFFCURVE",
"60 12 CURVE",
"56 7 OFFCURVE",
"50 4 OFFCURVE",
"44 0 CURVE SMOOTH",
"42 -2 LINE",
"32 -15 LINE",
"29 -18 LINE",
"24 -24 LINE",
"21 -27 LINE",
"7 -32 OFFCURVE",
"2 -44 OFFCURVE",
"-4 -57 CURVE SMOOTH",
"-5 -59 OFFCURVE",
"-6 -60 OFFCURVE",
"-8 -61 CURVE",
"-20 -75 OFFCURVE",
"-31 -88 OFFCURVE",
"-43 -100 CURVE",
"-47 -106 OFFCURVE",
"-45 -115 OFFCURVE",
"-55 -112 CURVE",
"-66 -122 LINE",
"-67 -122 LINE",
"-69 -127 OFFCURVE",
"-68 -132 OFFCURVE",
"-71 -137 CURVE SMOOTH",
"-73 -142 OFFCURVE",
"-74 -134 OFFCURVE",
"-78 -134 CURVE",
"-79 -133 OFFCURVE",
"-80 -133 OFFCURVE",
"-80 -134 CURVE",
"-81 -134 LINE",
"-82 -142 OFFCURVE",
"-84 -142 OFFCURVE",
"-93 -142 CURVE",
"-104 -150 OFFCURVE",
"-114 -154 OFFCURVE",
"-123 -154 CURVE SMOOTH",
"-126 -154 OFFCURVE",
"-131 -152 OFFCURVE",
"-133 -152 CURVE SMOOTH",
"-136 -152 OFFCURVE",
"-142 -159 OFFCURVE",
"-133 -164 CURVE SMOOTH",
"-97 -185 OFFCURVE",
"-52 -160 OFFCURVE",
"-17 -131 CURVE",
"-16 -129 OFFCURVE",
"-14 -128 OFFCURVE",
"-13 -127 CURVE SMOOTH",
"-5 -122 OFFCURVE",
"-1 -109 OFFCURVE",
"7 -106 CURVE",
"8 -106 LINE",
"12 -100 OFFCURVE",
"10 -91 OFFCURVE",
"19 -97 CURVE",
"18 -96 OFFCURVE",
"20 -95 OFFCURVE",
"20 -95 CURVE",
"21 -92 OFFCURVE",
"21 -91 OFFCURVE",
"23 -89 CURVE",
"23 -88 OFFCURVE",
"24 -87 OFFCURVE",
"25 -86 CURVE",
"26 -82 OFFCURVE",
"28 -77 OFFCURVE",
"30 -73 CURVE SMOOTH",
"36 -64 OFFCURVE",
"42 -56 OFFCURVE",
"51 -50 CURVE SMOOTH",
"55 -47 LINE SMOOTH",
"58 -44 OFFCURVE",
"61 -41 OFFCURVE",
"63 -37 CURVE",
"67 -32 LINE",
"70 -28 LINE",
"75 -21 LINE SMOOTH",
"80 -15 OFFCURVE",
"85 -10 OFFCURVE",
"88 -3 CURVE SMOOTH",
"91 2 LINE SMOOTH",
"96 11 OFFCURVE",
"95 22 OFFCURVE",
"103 28 CURVE SMOOTH",
"106 31 LINE",
"112 34 OFFCURVE",
"117 39 OFFCURVE",
"121 44 CURVE SMOOTH",
"124 49 LINE SMOOTH",
"134 66 OFFCURVE",
"145 82 OFFCURVE",
"157 97 CURVE",
"153 109 OFFCURVE",
"152 108 OFFCURVE",
"162 105 CURVE",
"165 109 OFFCURVE",
"166 114 OFFCURVE",
"169 118 CURVE SMOOTH",
"220 185 LINE",
"225 193 LINE SMOOTH",
"236 210 OFFCURVE",
"250 224 OFFCURVE",
"264 239 CURVE SMOOTH",
"281 258 LINE",
"287 266 LINE",
"295 272 OFFCURVE",
"303 279 OFFCURVE",
"310 286 CURVE SMOOTH",
"316 292 LINE SMOOTH",
"326 302 OFFCURVE",
"332 314 OFFCURVE",
"341 324 CURVE SMOOTH",
"355 338 OFFCURVE",
"370 349 OFFCURVE",
"386 361 CURVE",
"387 364 OFFCURVE",
"390 365 OFFCURVE",
"392 367 CURVE SMOOTH",
"404 378 LINE",
"409 383 LINE SMOOTH",
"412 385 OFFCURVE",
"413 386 OFFCURVE",
"416 387 CURVE",
"421 391 LINE SMOOTH",
"440 406 OFFCURVE",
"462 416 OFFCURVE",
"482 428 CURVE SMOOTH",
"489 432 LINE SMOOTH",
"497 436 OFFCURVE",
"506 439 OFFCURVE",
"514 442 CURVE SMOOTH",
"574 464 OFFCURVE",
"574 437 OFFCURVE",
"566 405 CURVE SMOOTH",
"564 397 LINE",
"562 394 LINE",
"562 393 LINE SMOOTH",
"561 386 OFFCURVE",
"574 387 OFFCURVE",
"577 381 CURVE",
"577 378 LINE",
"574 375 OFFCURVE",
"567 374 OFFCURVE",
"561 372 CURVE",
"555 372 LINE",
"551 367 OFFCURVE",
"552 363 OFFCURVE",
"558 361 CURVE",
"561 356 OFFCURVE",
"551 354 OFFCURVE",
"548 351 CURVE",
"547 343 LINE",
"542 327 LINE",
"545 314 OFFCURVE",
"537 303 OFFCURVE",
"528 295 CURVE",
"529 294 LINE",
"529 292 OFFCURVE",
"530 290 OFFCURVE",
"528 288 CURVE",
"528 287 LINE",
"525 281 LINE",
"522 273 LINE SMOOTH",
"516 250 OFFCURVE",
"503 229 OFFCURVE",
"496 207 CURVE",
"496 205 OFFCURVE",
"496 202 OFFCURVE",
"495 200 CURVE SMOOTH",
"491 186 LINE SMOOTH",
"488 175 OFFCURVE",
"483 166 OFFCURVE",
"481 159 CURVE",
"481 159 OFFCURVE",
"480 155 OFFCURVE",
"480 151 CURVE",
"475 151 OFFCURVE",
"468 150 OFFCURVE",
"459 149 CURVE SMOOTH",
"430 144 OFFCURVE",
"392 137 OFFCURVE",
"366 143 CURVE SMOOTH",
"332 152 OFFCURVE",
"296 141 OFFCURVE",
"260 144 CURVE SMOOTH",
"233 146 OFFCURVE",
"222 141 OFFCURVE",
"203 127 CURVE SMOOTH",
"195 121 OFFCURVE",
"196 111 OFFCURVE",
"195 105 CURVE SMOOTH",
"194 96 OFFCURVE",
"208 81 OFFCURVE",
"218 77 CURVE SMOOTH",
"221 76 OFFCURVE",
"232 75 OFFCURVE",
"246 77 CURVE SMOOTH",
"254 78 LINE",
"263 79 LINE SMOOTH",
"276 80 OFFCURVE",
"289 79 OFFCURVE",
"302 79 CURVE",
"306 80 OFFCURVE",
"310 80 OFFCURVE",
"314 78 CURVE SMOOTH",
"320 75 OFFCURVE",
"320 81 OFFCURVE",
"324 81 CURVE SMOOTH",
"330 80 OFFCURVE",
"330 80 OFFCURVE",
"337 76 CURVE",
"349 73 LINE",
"355 76 OFFCURVE",
"366 73 OFFCURVE",
"371 67 CURVE",
"372 67 LINE SMOOTH",
"373 67 OFFCURVE",
"375 66 OFFCURVE",
"376 65 CURVE",
"380 66 OFFCURVE",
"382 64 OFFCURVE",
"385 63 CURVE",
"384 64 OFFCURVE",
"384 66 OFFCURVE",
"385 67 CURVE",
"387 67 OFFCURVE",
"390 64 OFFCURVE",
"391 62 CURVE SMOOTH",
"392 60 OFFCURVE",
"393 58 OFFCURVE",
"395 58 CURVE SMOOTH",
"396 58 LINE SMOOTH",
"399 57 OFFCURVE",
"402 55 OFFCURVE",
"404 52 CURVE",
"411 51 OFFCURVE",
"414 48 OFFCURVE",
"417 42 CURVE",
"449 17 OFFCURVE",
"409 -20 OFFCURVE",
"448 -17 CURVE SMOOTH",
"458 -16 OFFCURVE",
"465 -10 OFFCURVE",
"469 -4 CURVE",
"476 -12 OFFCURVE",
"485 -19 OFFCURVE",
"495 -25 CURVE",
"496 -25 LINE",
"500 -27 OFFCURVE",
"503 -32 OFFCURVE",
"508 -31 CURVE",
"507 -28 OFFCURVE",
"504 -29 OFFCURVE",
"502 -28 CURVE",
"511 -25 OFFCURVE",
"515 -32 OFFCURVE",
"521 -36 CURVE",
"521 -37 LINE",
"540 -42 LINE",
"541 -42 LINE SMOOTH",
"545 -41 OFFCURVE",
"550 -44 OFFCURVE",
"555 -44 CURVE",
"552 -43 OFFCURVE",
"551 -42 OFFCURVE",
"550 -41 CURVE",
"559 -44 OFFCURVE",
"568 -44 OFFCURVE",
"576 -47 CURVE",
"621 -49 OFFCURVE",
"673 -43 OFFCURVE",
"725 -29 CURVE",
"729 -26 OFFCURVE",
"736 -27 OFFCURVE",
"741 -25 CURVE",
"741 -24 LINE",
"768 -17 LINE",
"768 -16 LINE",
"770 -11 OFFCURVE",
"761 -12 OFFCURVE",
"759 -8 CURVE",
"768 -8 OFFCURVE",
"778 -13 OFFCURVE",
"786 -11 CURVE",
"787 -10 LINE",
"793 -8 OFFCURVE",
"800 -6 OFFCURVE",
"807 -3 CURVE",
"811 1 OFFCURVE",
"816 0 OFFCURVE",
"821 2 CURVE",
"822 2 LINE",
"829 5 LINE SMOOTH",
"833 7 OFFCURVE",
"835 12 OFFCURVE",
"840 14 CURVE",
"841 11 OFFCURVE",
"843 10 OFFCURVE",
"846 12 CURVE",
"854 15 LINE",
"854 16 LINE",
"859 18 LINE",
"861 18 OFFCURVE",
"861 20 OFFCURVE",
"861 20 CURVE",
"859 21 OFFCURVE",
"856 20 OFFCURVE",
"854 20 CURVE",
"852 22 OFFCURVE",
"853 23 OFFCURVE",
"853 23 CURVE",
"859 29 OFFCURVE",
"868 25 OFFCURVE",
"876 25 CURVE",
"890 31 OFFCURVE",
"902 38 OFFCURVE",
"915 45 CURVE SMOOTH",
"924 50 OFFCURVE",
"933 55 OFFCURVE",
"942 61 CURVE",
"945 69 OFFCURVE",
"953 68 OFFCURVE",
"959 73 CURVE SMOOTH",
"964 77 OFFCURVE",
"969 81 OFFCURVE",
"974 84 CURVE",
"986 94 OFFCURVE",
"996 104 OFFCURVE",
"1004 112 CURVE SMOOTH",
"1016 123 OFFCURVE",
"1012 136 OFFCURVE",
"996 120 CURVE SMOOTH",
"982 107 OFFCURVE",
"965 100 OFFCURVE",
"950 88 CURVE",
"924 73 LINE SMOOTH",
"907 63 OFFCURVE",
"888 54 OFFCURVE",
"867 45 CURVE",
"861 39 OFFCURVE",
"853 39 OFFCURVE",
"846 36 CURVE",
"845 36 LINE",
"841 34 LINE",
"840 34 LINE",
"834 29 OFFCURVE",
"833 24 OFFCURVE",
"825 27 CURVE",
"824 27 LINE",
"813 23 LINE SMOOTH",
"806 20 OFFCURVE",
"799 16 OFFCURVE",
"791 15 CURVE SMOOTH",
"784 13 LINE SMOOTH",
"781 12 OFFCURVE",
"781 8 OFFCURVE",
"779 7 CURVE",
"779 9 OFFCURVE",
"782 10 OFFCURVE",
"780 11 CURVE",
"768 14 OFFCURVE",
"760 8 OFFCURVE",
"750 2 CURVE",
"739 -1 LINE",
"734 -5 OFFCURVE",
"730 -5 OFFCURVE",
"725 -4 CURVE",
"724 -5 LINE",
"645 -24 OFFCURVE",
"570 -29 OFFCURVE",
"524 -6 CURVE",
"523 -6 LINE",
"519 -2 OFFCURVE",
"514 -3 OFFCURVE",
"508 -4 CURVE",
"511 -2 OFFCURVE",
"511 3 OFFCURVE",
"508 4 CURVE",
"509 1 OFFCURVE",
"511 -2 OFFCURVE",
"507 -4 CURVE",
"508 0 LINE",
"506 4 OFFCURVE",
"500 5 OFFCURVE",
"499 8 CURVE",
"497 11 OFFCURVE",
"497 17 OFFCURVE",
"493 20 CURVE",
"487 31 LINE",
"486 32 OFFCURVE",
"483 32 OFFCURVE",
"481 33 CURVE",
"481 35 OFFCURVE",
"481 38 OFFCURVE",
"480 41 CURVE",
"481 43 OFFCURVE",
"482 45 OFFCURVE",
"481 47 CURVE",
"481 48 LINE",
"480 55 LINE",
"481 60 OFFCURVE",
"478 59 OFFCURVE",
"477 62 CURVE",
"473 67 OFFCURVE",
"478 72 OFFCURVE",
"479 77 CURVE SMOOTH",
"481 88 OFFCURVE",
"482 100 OFFCURVE",
"485 113 CURVE SMOOTH",
"486 118 OFFCURVE",
"488 123 OFFCURVE",
"490 129 CURVE",
"490 130 LINE",
"493 138 OFFCURVE",
"496 146 OFFCURVE",
"500 154 CURVE SMOOTH",
"504 166 LINE SMOOTH",
"505 168 OFFCURVE",
"510 170 OFFCURVE",
"509 173 CURVE",
"515 174 OFFCURVE",
"552 180 OFFCURVE",
"552 185 CURVE",
"553 188 OFFCURVE",
"565 189 OFFCURVE",
"575 195 CURVE",
"588 195 OFFCURVE",
"575 183 OFFCURVE",
"608 188 CURVE SMOOTH",
"654 196 OFFCURVE",
"697 203 OFFCURVE",
"742 207 CURVE",
"752 210 LINE",
"754 210 OFFCURVE",
"756 215 OFFCURVE",
"763 215 CURVE",
"767 214 OFFCURVE",
"763 209 OFFCURVE",
"768 209 CURVE SMOOTH",
"792 210 OFFCURVE",
"823 209 OFFCURVE",
"844 208 CURVE SMOOTH",
"852 208 OFFCURVE",
"851 209 OFFCURVE",
"858 208 CURVE SMOOTH",
"863 207 OFFCURVE",
"872 208 OFFCURVE",
"876 207 CURVE SMOOTH",
"889 204 OFFCURVE",
"884 214 OFFCURVE",
"870 218 CURVE SMOOTH",
"852 221 LINE",
"840 222 LINE SMOOTH",
"834 222 OFFCURVE",
"836 218 OFFCURVE",
"831 218 CURVE SMOOTH",
"827 218 OFFCURVE",
"828 223 OFFCURVE",
"824 224 CURVE SMOOTH",
"816 225 OFFCURVE",
"799 225 OFFCURVE",
"790 226 CURVE SMOOTH",
"775 226 OFFCURVE",
"744 226 OFFCURVE",
"726 225 CURVE SMOOTH",
"713 224 OFFCURVE",
"713 222 OFFCURVE",
"701 221 CURVE SMOOTH",
"693 221 OFFCURVE",
"699 224 OFFCURVE",
"691 223 CURVE",
"668 223 OFFCURVE",
"632 219 OFFCURVE",
"608 218 CURVE SMOOTH",
"540 214 LINE",
"523 211 LINE",
"526 219 OFFCURVE",
"532 225 OFFCURVE",
"539 232 CURVE",
"545 241 OFFCURVE",
"551 248 OFFCURVE",
"558 256 CURVE",
"559 262 OFFCURVE",
"553 260 OFFCURVE",
"550 262 CURVE",
"555 268 OFFCURVE",
"564 263 OFFCURVE",
"569 269 CURVE",
"570 269 LINE",
"571 271 LINE",
"577 278 OFFCURVE",
"570 284 OFFCURVE",
"563 285 CURVE",
"563 288 LINE",
"570 288 OFFCURVE",
"575 283 OFFCURVE",
"582 282 CURVE",
"589 289 LINE SMOOTH",
"592 293 OFFCURVE",
"593 298 OFFCURVE",
"598 299 CURVE",
"606 306 LINE",
"608 313 OFFCURVE",
"608 317 OFFCURVE",
"616 316 CURVE SMOOTH",
"617 316 LINE",
"633 331 OFFCURVE",
"651 346 OFFCURVE",
"670 359 CURVE",
"674 363 OFFCURVE",
"678 366 OFFCURVE",
"684 369 CURVE",
"692 375 OFFCURVE",
"700 380 OFFCURVE",
"708 385 CURVE",
"716 393 OFFCURVE",
"724 400 OFFCURVE",
"736 402 CURVE",
"745 407 LINE",
"747 409 OFFCURVE",
"752 410 OFFCURVE",
"751 414 CURVE",
"750 415 OFFCURVE",
"747 415 OFFCURVE",
"746 416 CURVE",
"753 415 OFFCURVE",
"760 414 OFFCURVE",
"767 417 CURVE",
"767 418 LINE",
"772 420 LINE",
"773 420 LINE",
"776 423 OFFCURVE",
"781 425 OFFCURVE",
"785 426 CURVE SMOOTH",
"796 430 OFFCURVE",
"806 434 OFFCURVE",
"817 437 CURVE SMOOTH",
"822 439 OFFCURVE",
"826 443 OFFCURVE",
"833 442 CURVE",
"846 445 OFFCURVE",
"858 448 OFFCURVE",
"871 449 CURVE SMOOTH",
"904 453 OFFCURVE",
"936 446 OFFCURVE",
"948 425 CURVE SMOOTH",
"954 414 OFFCURVE",
"956 399 OFFCURVE",
"950 380 CURVE SMOOTH",
"949 376 OFFCURVE",
"953 372 OFFCURVE",
"953 369 CURVE",
"952 366 OFFCURVE",
"945 366 OFFCURVE",
"944 364 CURVE",
"944 363 LINE",
"942 358 OFFCURVE",
"946 357 OFFCURVE",
"950 355 CURVE",
"946 351 OFFCURVE",
"940 352 OFFCURVE",
"938 346 CURVE SMOOTH",
"935 339 OFFCURVE",
"945 339 OFFCURVE",
"929 315 CURVE",
"921 306 OFFCURVE",
"914 311 OFFCURVE",
"905 301 CURVE SMOOTH",
"902 298 OFFCURVE",
"892 291 OFFCURVE",
"891 289 CURVE",
"891 289 OFFCURVE",
"887 286 OFFCURVE",
"883 284 CURVE",
"878 283 OFFCURVE",
"877 280 OFFCURVE",
"873 281 CURVE SMOOTH",
"871 282 OFFCURVE",
"861 280 OFFCURVE",
"858 278 CURVE SMOOTH",
"854 276 OFFCURVE",
"857 273 OFFCURVE",
"859 272 CURVE",
"859 272 OFFCURVE",
"860 269 OFFCURVE",
"862 269 CURVE SMOOTH",
"868 269 OFFCURVE",
"879 273 OFFCURVE",
"881 273 CURVE",
"889 276 OFFCURVE",
"912 282 OFFCURVE",
"917 284 CURVE SMOOTH",
"922 286 OFFCURVE",
"929 286 OFFCURVE",
"934 289 CURVE SMOOTH",
"945 295 OFFCURVE",
"935 296 OFFCURVE",
"941 298 CURVE SMOOTH",
"951 301 OFFCURVE",
"943 289 OFFCURVE",
"955 296 CURVE SMOOTH",
"963 301 OFFCURVE",
"991 311 OFFCURVE",
"999 316 CURVE SMOOTH",
"1017 330 OFFCURVE",
"1012 358 OFFCURVE",
"986 345 CURVE SMOOTH",
"978 342 OFFCURVE",
"966 335 OFFCURVE",
"955 329 CURVE",
"959 334 LINE",
"961 339 OFFCURVE",
"962 342 OFFCURVE",
"967 348 CURVE",
"968 350 OFFCURVE",
"975 354 OFFCURVE",
"976 356 CURVE",
"977 362 OFFCURVE",
"980 369 OFFCURVE",
"981 376 CURVE SMOOTH",
"984 391 OFFCURVE",
"981 406 OFFCURVE",
"973 420 CURVE SMOOTH",
"959 445 OFFCURVE",
"930 465 OFFCURVE",
"887 470 CURVE SMOOTH",
"832 477 OFFCURVE",
"777 468 OFFCURVE",
"715 439 CURVE",
"711 435 OFFCURVE",
"707 431 OFFCURVE",
"701 432 CURVE",
"670 415 LINE SMOOTH",
"656 407 OFFCURVE",
"642 398 OFFCURVE",
"627 387 CURVE",
"626 379 OFFCURVE",
"622 378 OFFCURVE",
"615 377 CURVE",
"612 375 LINE"
);
},
{
closed = 1;
nodes = (
"477 130 OFFCURVE",
"474 123 OFFCURVE",
"470 116 CURVE",
"470 111 LINE SMOOTH",
"470 102 OFFCURVE",
"470 95 OFFCURVE",
"463 87 CURVE",
"463 86 LINE",
"461 85 OFFCURVE",
"460 75 OFFCURVE",
"458 72 CURVE",
"457 64 LINE",
"446 26 OFFCURVE",
"445 45 OFFCURVE",
"433 51 CURVE",
"432 51 OFFCURVE",
"423 53 OFFCURVE",
"419 60 CURVE",
"409 66 LINE SMOOTH",
"405 69 OFFCURVE",
"405 65 OFFCURVE",
"401 67 CURVE",
"395 73 LINE",
"390 74 OFFCURVE",
"388 72 OFFCURVE",
"383 75 CURVE SMOOTH",
"372 80 LINE SMOOTH",
"363 83 OFFCURVE",
"340 84 OFFCURVE",
"330 88 CURVE SMOOTH",
"320 92 LINE",
"319 93 LINE",
"312 93 LINE",
"288 96 LINE",
"276 92 OFFCURVE",
"276 108 OFFCURVE",
"287 104 CURVE",
"293 105 OFFCURVE",
"321 116 OFFCURVE",
"328 118 CURVE SMOOTH",
"333 119 OFFCURVE",
"339 117 OFFCURVE",
"345 117 CURVE SMOOTH",
"350 117 OFFCURVE",
"354 119 OFFCURVE",
"359 120 CURVE SMOOTH",
"362 120 OFFCURVE",
"364 123 OFFCURVE",
"366 123 CURVE",
"366 123 OFFCURVE",
"374 127 OFFCURVE",
"375 122 CURVE SMOOTH",
"375 121 OFFCURVE",
"376 119 OFFCURVE",
"378 118 CURVE SMOOTH",
"382 117 OFFCURVE",
"400 127 OFFCURVE",
"404 127 CURVE SMOOTH",
"409 128 OFFCURVE",
"454 132 OFFCURVE",
"477 138 CURVE"
);
}
);
width = 974;
}
);
note = AE;
unicode = 00C6;
},
{
glyphname = B;
lastChange = "2021-09-14 05:10:54 +0000";
layers = (
{
hints = (
{
horizontal = 1;
place = "{-106, 36}";
type = Stem;
},
{
horizontal = 1;
place = "{245, 28}";
type = Stem;
},
{
horizontal = 1;
place = "{563, 43}";
type = Stem;
},
{
place = "{-18, 41}";
type = Stem;
},
{
place = "{27, 46}";
type = Stem;
},
{
place = "{487, 48}";
type = Stem;
},
{
place = "{652, 56}";
type = Stem;
}
);
layerId = "0027A263-E542-4E44-90C9-E4382CD4DF90";
paths = (
{
closed = 1;
nodes = (
"769 426 OFFCURVE",
"672 450 OFFCURVE",
"627 457 CURVE SMOOTH",
"609 460 OFFCURVE",
"591 462 OFFCURVE",
"573 463 CURVE",
"568 458 OFFCURVE",
"565 463 OFFCURVE",
"560 464 CURVE SMOOTH",
"559 464 LINE SMOOTH",
"540 464 OFFCURVE",
"522 465 OFFCURVE",
"506 465 CURVE SMOOTH",
"505 465 LINE SMOOTH",
"502 465 OFFCURVE",
"497 466 OFFCURVE",
"493 465 CURVE",
"483 465 LINE SMOOTH",
"479 465 OFFCURVE",
"475 463 OFFCURVE",
"472 464 CURVE SMOOTH",
"471 464 LINE SMOOTH",
"449 464 OFFCURVE",
"418 460 OFFCURVE",
"382 454 CURVE",
"377 450 OFFCURVE",
"375 450 OFFCURVE",
"370 452 CURVE",
"367 452 OFFCURVE",
"365 451 OFFCURVE",
"363 451 CURVE SMOOTH",
"362 451 LINE SMOOTH",
"359 450 OFFCURVE",
"356 449 OFFCURVE",
"353 449 CURVE SMOOTH",
"352 449 LINE SMOOTH",
"321 443 OFFCURVE",
"287 436 OFFCURVE",
"254 426 CURVE SMOOTH",
"251 425 OFFCURVE",
"253 422 OFFCURVE",
"253 420 CURVE",
"246 426 OFFCURVE",
"239 423 OFFCURVE",
"232 420 CURVE",
"202 411 OFFCURVE",
"173 401 OFFCURVE",
"146 389 CURVE",
"143 386 OFFCURVE",
"140 384 OFFCURVE",
"135 384 CURVE",
"124 379 OFFCURVE",
"101 368 OFFCURVE",
"90 361 CURVE SMOOTH",
"82 355 OFFCURVE",
"86 352 OFFCURVE",
"78 347 CURVE SMOOTH",
"70 341 OFFCURVE",
"64 341 OFFCURVE",
"58 334 CURVE SMOOTH",
"36 312 OFFCURVE",
"25 284 OFFCURVE",
"33 256 CURVE SMOOTH",
"34 252 OFFCURVE",
"39 245 OFFCURVE",
"39 244 CURVE SMOOTH",
"45 197 OFFCURVE",
"117 175 OFFCURVE",
"154 175 CURVE SMOOTH",
"166 175 OFFCURVE",
"181 181 OFFCURVE",
"158 186 CURVE SMOOTH",
"143 189 LINE",
"139 194 OFFCURVE",
"133 194 OFFCURVE",
"128 191 CURVE",
"123 190 OFFCURVE",
"118 193 OFFCURVE",
"113 195 CURVE",
"88 201 OFFCURVE",
"64 211 OFFCURVE",
"60 234 CURVE SMOOTH",
"58 244 OFFCURVE",
"60 254 OFFCURVE",
"65 265 CURVE",
"66 265 LINE",
"66 269 OFFCURVE",
"69 271 OFFCURVE",
"71 274 CURVE SMOOTH",
"76 281 OFFCURVE",
"81 287 OFFCURVE",
"87 293 CURVE SMOOTH",
"91 297 OFFCURVE",
"94 308 OFFCURVE",
"98 312 CURVE SMOOTH",
"105 317 OFFCURVE",
"112 315 OFFCURVE",
"119 320 CURVE SMOOTH",
"126 324 OFFCURVE",
"134 338 OFFCURVE",
"142 342 CURVE",
"144 344 OFFCURVE",
"142 336 OFFCURVE",
"145 336 CURVE SMOOTH",
"152 337 OFFCURVE",
"163 343 OFFCURVE",
"171 347 CURVE SMOOTH",
"179 351 OFFCURVE",
"189 355 OFFCURVE",
"197 358 CURVE",
"197 359 LINE",
"200 360 OFFCURVE",
"200 367 OFFCURVE",
"202 369 CURVE",
"205 370 OFFCURVE",
"211 365 OFFCURVE",
"214 366 CURVE SMOOTH",
"220 368 OFFCURVE",
"229 370 OFFCURVE",
"235 375 CURVE SMOOTH",
"239 378 OFFCURVE",
"238 383 OFFCURVE",
"242 385 CURVE SMOOTH",
"251 388 OFFCURVE",
"260 384 OFFCURVE",
"269 387 CURVE SMOOTH",
"297 396 LINE",
"304 396 OFFCURVE",
"306 408 OFFCURVE",
"307 416 CURVE",
"308 411 OFFCURVE",
"315 401 OFFCURVE",
"319 403 CURVE",
"338 408 LINE",
"339 408 LINE SMOOTH",
"346 406 OFFCURVE",
"351 409 OFFCURVE",
"357 413 CURVE",
"377 417 LINE",
"383 420 OFFCURVE",
"390 419 OFFCURVE",
"396 421 CURVE SMOOTH",
"406 423 OFFCURVE",
"416 425 OFFCURVE",
"425 426 CURVE SMOOTH",
"426 426 LINE",
"430 429 OFFCURVE",
"433 430 OFFCURVE",
"438 428 CURVE",
"449 430 OFFCURVE",
"460 431 OFFCURVE",
"471 432 CURVE SMOOTH",
"488 434 OFFCURVE",
"541 437 OFFCURVE",
"593 433 CURVE SMOOTH",
"596 433 OFFCURVE",
"598 434 OFFCURVE",
"597 437 CURVE",
"605 433 OFFCURVE",
"613 431 OFFCURVE",
"622 431 CURVE SMOOTH",
"625 431 OFFCURVE",
"627 430 OFFCURVE",
"630 430 CURVE SMOOTH",
"751 414 OFFCURVE",
"728 374 OFFCURVE",
"681 341 CURVE",
"677 333 OFFCURVE",
"669 333 OFFCURVE",
"661 328 CURVE",
"660 328 OFFCURVE",
"659 327 OFFCURVE",
"658 326 CURVE SMOOTH",
"654 323 OFFCURVE",
"657 322 OFFCURVE",
"659 319 CURVE",
"655 316 OFFCURVE",
"650 320 OFFCURVE",
"645 319 CURVE",
"626 309 LINE",
"625 309 LINE",
"622 304 OFFCURVE",
"622 298 OFFCURVE",
"615 298 CURVE",
"615 299 OFFCURVE",
"615 301 OFFCURVE",
"617 301 CURVE",
"615 304 OFFCURVE",
"613 303 OFFCURVE",
"611 302 CURVE SMOOTH",
"608 300 OFFCURVE",
"605 299 OFFCURVE",
"602 298 CURVE SMOOTH",
"550 275 OFFCURVE",
"489 256 OFFCURVE",
"462 253 CURVE SMOOTH",
"458 252 OFFCURVE",
"445 254 OFFCURVE",
"438 250 CURVE SMOOTH",
"427 245 OFFCURVE",
"425 237 OFFCURVE",
"434 234 CURVE SMOOTH",
"441 232 OFFCURVE",
"454 233 OFFCURVE",
"462 229 CURVE SMOOTH",
"474 225 OFFCURVE",
"486 224 OFFCURVE",
"498 217 CURVE",
"501 214 OFFCURVE",
"502 206 OFFCURVE",
"506 204 CURVE",
"507 204 LINE SMOOTH",
"513 204 OFFCURVE",
"516 196 OFFCURVE",
"522 193 CURVE",
"523 192 OFFCURVE",
"525 195 OFFCURVE",
"527 193 CURVE",
"533 190 OFFCURVE",
"538 186 OFFCURVE",
"543 183 CURVE",
"544 183 LINE",
"551 180 OFFCURVE",
"557 174 OFFCURVE",
"563 170 CURVE SMOOTH",
"566 168 OFFCURVE",
"570 169 OFFCURVE",
"572 167 CURVE SMOOTH",
"577 163 LINE",
"580 159 OFFCURVE",
"584 159 OFFCURVE",
"587 156 CURVE",
"588 156 LINE",
"590 154 LINE",
"588 152 OFFCURVE",
"583 150 OFFCURVE",
"587 148 CURVE",
"587 147 LINE",
"589 146 OFFCURVE",
"591 144 OFFCURVE",
"592 142 CURVE SMOOTH",
"598 134 OFFCURVE",
"608 139 OFFCURVE",
"606 129 CURVE",
"607 129 OFFCURVE",
"617 122 OFFCURVE",
"617 122 CURVE",
"630 98 OFFCURVE",
"633 68 OFFCURVE",
"625 43 CURVE",
"601 32 OFFCURVE",
"574 22 OFFCURVE",
"573 21 CURVE",
"555 16 OFFCURVE",
"537 8 OFFCURVE",
"519 7 CURVE SMOOTH",
"509 7 OFFCURVE",
"498 3 OFFCURVE",
"488 3 CURVE SMOOTH",
"478 2 OFFCURVE",
"467 2 OFFCURVE",
"457 2 CURVE SMOOTH",
"455 2 OFFCURVE",
"454 3 OFFCURVE",
"452 3 CURVE SMOOTH",
"450 3 OFFCURVE",
"449 2 OFFCURVE",
"448 2 CURVE SMOOTH",
"443 2 OFFCURVE",
"438 4 OFFCURVE",
"433 4 CURVE SMOOTH",
"431 4 OFFCURVE",
"432 5 OFFCURVE",
"431 5 CURVE SMOOTH",
"420 5 OFFCURVE",
"410 9 OFFCURVE",
"399 12 CURVE SMOOTH",
"371 20 OFFCURVE",
"366 23 OFFCURVE",
"342 41 CURVE",
"334 44 LINE",
"331 47 OFFCURVE",
"327 50 OFFCURVE",
"324 54 CURVE",
"324 57 LINE",
"323 58 OFFCURVE",
"322 59 OFFCURVE",
"322 61 CURVE SMOOTH",
"322 62 OFFCURVE",
"322 63 OFFCURVE",
"323 64 CURVE",
"323 66 OFFCURVE",
"321 68 OFFCURVE",
"321 70 CURVE",
"321 70 OFFCURVE",
"321 71 OFFCURVE",
"322 72 CURVE",
"322 80 LINE",
"323 81 LINE",
"323 82 LINE SMOOTH",
"323 84 OFFCURVE",
"323 86 OFFCURVE",
"322 88 CURVE",
"321 87 OFFCURVE",
"321 87 OFFCURVE",
"320 88 CURVE",
"321 112 LINE",
"324 114 LINE",
"325 117 OFFCURVE",
"325 120 OFFCURVE",
"327 123 CURVE SMOOTH",
"328 124 OFFCURVE",
"330 126 OFFCURVE",
"330 127 CURVE",
"331 129 OFFCURVE",
"330 132 OFFCURVE",
"333 132 CURVE",
"333 134 OFFCURVE",
"334 136 OFFCURVE",
"334 138 CURVE",
"340 143 OFFCURVE",
"345 147 OFFCURVE",
"351 154 CURVE",
"352 159 LINE",
"351 169 OFFCURVE",
"346 169 OFFCURVE",
"339 164 CURVE SMOOTH",
"337 162 OFFCURVE",
"333 159 OFFCURVE",
"332 157 CURVE SMOOTH",
"329 153 OFFCURVE",
"329 150 OFFCURVE",
"326 146 CURVE",
"325 143 OFFCURVE",
"322 141 OFFCURVE",
"320 139 CURVE",
"315 127 LINE",
"313 125 OFFCURVE",
"310 123 OFFCURVE",
"309 121 CURVE SMOOTH",
"308 120 OFFCURVE",
"308 118 OFFCURVE",
"308 116 CURVE SMOOTH",
"308 114 OFFCURVE",
"308 112 OFFCURVE",
"307 110 CURVE",
"307 108 OFFCURVE",
"305 107 OFFCURVE",
"305 106 CURVE SMOOTH",
"305 104 OFFCURVE",
"307 101 OFFCURVE",
"307 99 CURVE",
"300 85 LINE",
"297 70 OFFCURVE",
"302 79 OFFCURVE",
"300 68 CURVE SMOOTH",
"299 59 OFFCURVE",
"299 49 OFFCURVE",
"303 42 CURVE",
"305 41 LINE",
"305 32 OFFCURVE",
"312 16 OFFCURVE",
"311 13 CURVE SMOOTH",
"311 12 LINE",
"314 12 OFFCURVE",
"313 7 OFFCURVE",
"314 5 CURVE SMOOTH",
"316 0 OFFCURVE",
"319 -2 OFFCURVE",
"321 -8 CURVE",
"323 -8 OFFCURVE",
"323 -11 OFFCURVE",
"324 -13 CURVE SMOOTH",
"325 -14 OFFCURVE",
"326 -14 OFFCURVE",
"327 -14 CURVE",
"327 -15 OFFCURVE",
"328 -16 OFFCURVE",
"328 -17 CURVE",
"332 -20 OFFCURVE",
"335 -23 OFFCURVE",
"338 -27 CURVE SMOOTH",
"339 -28 OFFCURVE",
"340 -27 OFFCURVE",
"341 -29 CURVE",
"344 -32 OFFCURVE",
"344 -34 OFFCURVE",
"349 -35 CURVE",
"351 -39 OFFCURVE",
"362 -45 OFFCURVE",
"367 -47 CURVE",
"367 -48 OFFCURVE",
"368 -48 OFFCURVE",
"369 -48 CURVE SMOOTH",
"371 -48 LINE SMOOTH",
"372 -48 OFFCURVE",
"373 -51 OFFCURVE",
"378 -52 CURVE",
"378 -54 LINE",
"380 -55 OFFCURVE",
"386 -59 OFFCURVE",
"388 -59 CURVE SMOOTH",
"389 -59 OFFCURVE",
"388 -58 OFFCURVE",
"389 -58 CURVE SMOOTH",
"391 -58 OFFCURVE",
"392 -61 OFFCURVE",
"393 -62 CURVE",
"402 -63 OFFCURVE",
"411 -64 OFFCURVE",
"419 -64 CURVE SMOOTH",
"421 -64 OFFCURVE",
"428 -69 OFFCURVE",
"430 -69 CURVE SMOOTH",
"439 -70 OFFCURVE",
"447 -71 OFFCURVE",
"455 -71 CURVE SMOOTH",
"458 -71 OFFCURVE",
"461 -69 OFFCURVE",
"463 -69 CURVE",
"465 -70 OFFCURVE",
"466 -70 OFFCURVE",
"467 -70 CURVE SMOOTH",
"469 -70 OFFCURVE",
"473 -67 OFFCURVE",
"475 -67 CURVE SMOOTH",
"477 -67 OFFCURVE",
"480 -69 OFFCURVE",
"483 -69 CURVE SMOOTH",
"485 -69 OFFCURVE",
"487 -66 OFFCURVE",
"488 -66 CURVE SMOOTH",
"489 -66 OFFCURVE",
"490 -67 OFFCURVE",
"491 -67 CURVE SMOOTH",
"493 -67 OFFCURVE",
"504 -63 OFFCURVE",
"506 -62 CURVE SMOOTH",
"508 -61 OFFCURVE",
"525 -60 OFFCURVE",
"526 -59 CURVE",
"530 -58 OFFCURVE",
"534 -58 OFFCURVE",
"537 -58 CURVE",
"539 -55 OFFCURVE",
"542 -55 OFFCURVE",
"544 -55 CURVE",
"546 -54 OFFCURVE",
"553 -49 OFFCURVE",
"554 -49 CURVE SMOOTH",
"559 -49 LINE",
"559 -49 OFFCURVE",
"565 -45 OFFCURVE",
"569 -45 CURVE",
"571 -43 OFFCURVE",
"575 -41 OFFCURVE",
"579 -39 CURVE",
"580 -39 LINE",
"582 -42 OFFCURVE",
"575 -46 OFFCURVE",
"585 -40 CURVE",
"586 -40 LINE",
"611 -27 OFFCURVE",
"633 -10 OFFCURVE",
"650 10 CURVE",
"652 10 OFFCURVE",
"652 11 OFFCURVE",
"651 12 CURVE",
"653 14 OFFCURVE",
"654 17 OFFCURVE",
"655 19 CURVE",
"659 21 LINE",
"660 22 LINE",
"661 26 OFFCURVE",
"665 28 OFFCURVE",
"667 33 CURVE",
"671 38 OFFCURVE",
"674 44 OFFCURVE",
"677 51 CURVE",
"677 51 OFFCURVE",
"678 52 OFFCURVE",
"678 53 CURVE",
"700 64 OFFCURVE",
"720 87 OFFCURVE",
"727 105 CURVE SMOOTH",
"729 112 OFFCURVE",
"721 115 OFFCURVE",
"718 109 CURVE SMOOTH",
"710 94 OFFCURVE",
"698 83 OFFCURVE",
"684 75 CURVE",
"690 103 OFFCURVE",
"681 126 OFFCURVE",
"663 146 CURVE SMOOTH",
"658 152 OFFCURVE",
"655 159 OFFCURVE",
"646 159 CURVE",
"647 160 OFFCURVE",
"645 162 OFFCURVE",
"644 164 CURVE",
"630 174 OFFCURVE",
"614 184 OFFCURVE",
"597 192 CURVE",
"595 192 OFFCURVE",
"592 195 OFFCURVE",
"591 192 CURVE",
"587 200 OFFCURVE",
"577 203 OFFCURVE",
"569 205 CURVE",
"540 217 OFFCURVE",
"511 225 OFFCURVE",
"486 233 CURVE SMOOTH",
"479 236 OFFCURVE",
"453 243 OFFCURVE",
"477 246 CURVE SMOOTH",
"504 249 OFFCURVE",
"540 256 OFFCURVE",
"570 264 CURVE",
"574 266 OFFCURVE",
"578 265 OFFCURVE",
"581 266 CURVE SMOOTH",
"582 266 LINE",
"582 267 LINE",
"583 267 LINE",
"592 269 LINE SMOOTH",
"631 278 OFFCURVE",
"666 297 OFFCURVE",
"695 311 CURVE SMOOTH",
"703 315 LINE",
"710 317 LINE",
"722 328 LINE SMOOTH",
"733 338 OFFCURVE",
"745 348 OFFCURVE",
"749 360 CURVE SMOOTH"
);
},
{
closed = 1;
nodes = (
"595 0 OFFCURVE",
"569 -18 OFFCURVE",
"564 -18 CURVE",
"562 -20 OFFCURVE",
"555 -21 OFFCURVE",
"553 -23 CURVE",
"553 -24 OFFCURVE",
"543 -28 OFFCURVE",
"542 -30 CURVE",
"540 -30 OFFCURVE",
"535 -32 OFFCURVE",
"533 -33 CURVE",
"525 -35 LINE SMOOTH",
"524 -35 OFFCURVE",
"520 -40 OFFCURVE",
"518 -40 CURVE",
"518 -40 OFFCURVE",
"508 -47 OFFCURVE",
"504 -46 CURVE SMOOTH",
"502 -46 OFFCURVE",
"502 -45 OFFCURVE",
"500 -45 CURVE",
"497 -44 OFFCURVE",
"498 -47 OFFCURVE",
"495 -48 CURVE SMOOTH",
"492 -49 OFFCURVE",
"489 -48 OFFCURVE",
"487 -51 CURVE",
"483 -52 LINE",
"475 -57 OFFCURVE",
"480 -46 OFFCURVE",
"470 -52 CURVE",
"466 -52 LINE",
"465 -53 OFFCURVE",
"462 -55 OFFCURVE",
"461 -54 CURVE",
"459 -54 LINE SMOOTH",
"453 -53 OFFCURVE",
"435 -54 OFFCURVE",
"425 -53 CURVE SMOOTH",
"421 -52 OFFCURVE",
"417 -50 OFFCURVE",
"417 -50 CURVE",
"406 -49 OFFCURVE",
"396 -45 OFFCURVE",
"385 -44 CURVE SMOOTH",
"384 -44 OFFCURVE",
"384 -45 OFFCURVE",
"383 -44 CURVE",
"381 -44 OFFCURVE",
"375 -38 OFFCURVE",
"374 -37 CURVE",
"372 -37 LINE SMOOTH",
"369 -37 OFFCURVE",
"361 -28 OFFCURVE",
"360 -25 CURVE",
"360 -25 OFFCURVE",
"359 -25 OFFCURVE",
"358 -24 CURVE",
"358 -22 OFFCURVE",
"356 -20 OFFCURVE",
"354 -18 CURVE",
"354 -15 OFFCURVE",
"352 -14 OFFCURVE",
"350 -12 CURVE",
"351 -11 OFFCURVE",
"340 -6 OFFCURVE",
"340 -4 CURVE",
"338 -1 OFFCURVE",
"336 3 OFFCURVE",
"336 8 CURVE",
"333 8 OFFCURVE",
"334 13 OFFCURVE",
"332 15 CURVE",
"333 18 OFFCURVE",
"330 25 OFFCURVE",
"330 26 CURVE",
"333 31 LINE",
"334 31 LINE",
"338 25 LINE",
"342 25 OFFCURVE",
"350 16 OFFCURVE",
"354 15 CURVE",
"355 17 OFFCURVE",
"360 13 OFFCURVE",
"361 12 CURVE",
"364 11 OFFCURVE",
"387 6 OFFCURVE",
"387 3 CURVE",
"390 3 OFFCURVE",
"390 1 OFFCURVE",
"390 0 CURVE",
"393 -1 OFFCURVE",
"396 -2 OFFCURVE",
"398 -2 CURVE",
"399 -3 OFFCURVE",
"400 -3 OFFCURVE",
"400 -4 CURVE",
"400 -4 OFFCURVE",
"401 -3 OFFCURVE",
"402 -3 CURVE SMOOTH",
"403 -3 OFFCURVE",
"404 -5 OFFCURVE",
"405 -5 CURVE SMOOTH",
"406 -5 OFFCURVE",
"407 -3 OFFCURVE",
"408 -3 CURVE SMOOTH",
"415 -4 OFFCURVE",
"423 -10 OFFCURVE",
"431 -11 CURVE SMOOTH",
"440 -11 LINE",
"440 -10 LINE",
"442 -11 OFFCURVE",
"442 -12 OFFCURVE",
"442 -13 CURVE",
"444 -13 LINE SMOOTH",
"447 -13 OFFCURVE",
"450 -11 OFFCURVE",
"453 -11 CURVE SMOOTH",
"454 -11 OFFCURVE",
"454 -12 OFFCURVE",
"455 -12 CURVE SMOOTH",
"456 -12 OFFCURVE",
"457 -12 OFFCURVE",
"457 -11 CURVE",
"461 -11 LINE SMOOTH",
"462 -11 OFFCURVE",
"463 -12 OFFCURVE",
"464 -12 CURVE SMOOTH",
"466 -12 OFFCURVE",
"468 -9 OFFCURVE",
"469 -9 CURVE",
"471 -10 OFFCURVE",
"472 -12 OFFCURVE",
"473 -12 CURVE SMOOTH",
"475 -12 OFFCURVE",
"478 -11 OFFCURVE",
"479 -11 CURVE SMOOTH",
"481 -11 LINE SMOOTH",
"485 -12 OFFCURVE",
"491 -9 OFFCURVE",
"495 -10 CURVE",
"501 -10 LINE",
"503 -8 LINE",
"505 -8 OFFCURVE",
"507 -7 OFFCURVE",
"508 -7 CURVE SMOOTH",
"509 -7 OFFCURVE",
"508 -8 OFFCURVE",
"509 -8 CURVE SMOOTH",
"516 -8 OFFCURVE",
"534 -5 OFFCURVE",
"540 0 CURVE",
"542 -1 OFFCURVE",
"544 0 OFFCURVE",
"546 0 CURVE SMOOTH",
"547 0 OFFCURVE",
"554 4 OFFCURVE",
"557 4 CURVE SMOOTH",
"560 4 OFFCURVE",
"560 5 OFFCURVE",
"563 5 CURVE",
"563 7 LINE",
"565 6 OFFCURVE",
"566 5 OFFCURVE",
"567 5 CURVE SMOOTH",
"569 5 OFFCURVE",
"570 6 OFFCURVE",
"571 7 CURVE",
"572 7 OFFCURVE",
"580 14 OFFCURVE",
"581 14 CURVE SMOOTH",
"583 14 OFFCURVE",
"611 29 OFFCURVE",
"610 25 CURVE"
);
},
{
closed = 1;
nodes = (
"491 357 OFFCURVE",
"461 368 OFFCURVE",
"454 366 CURVE SMOOTH",
"449 365 OFFCURVE",
"443 365 OFFCURVE",
"436 362 CURVE",
"435 361 OFFCURVE",
"435 356 OFFCURVE",
"434 355 CURVE SMOOTH",
"432 354 OFFCURVE",
"431 357 OFFCURVE",
"429 356 CURVE",
"427 356 OFFCURVE",
"430 342 OFFCURVE",
"429 340 CURVE SMOOTH",
"428 339 OFFCURVE",
"424 338 OFFCURVE",
"422 341 CURVE",
"422 342 OFFCURVE",
"425 347 OFFCURVE",
"425 349 CURVE",
"424 351 OFFCURVE",
"420 349 OFFCURVE",
"420 349 CURVE",
"417 344 LINE",
"414 342 LINE",
"379 307 OFFCURVE",
"339 237 OFFCURVE",
"300 168 CURVE SMOOTH",
"286 143 LINE SMOOTH",
"281 136 OFFCURVE",
"287 130 OFFCURVE",
"283 125 CURVE SMOOTH",
"281 122 OFFCURVE",
"277 127 OFFCURVE",
"275 122 CURVE SMOOTH",
"257 88 OFFCURVE",
"241 54 OFFCURVE",
"229 24 CURVE SMOOTH",
"227 20 OFFCURVE",
"228 15 OFFCURVE",
"226 11 CURVE",
"226 11 OFFCURVE",
"225 8 OFFCURVE",
"223 9 CURVE",
"223 2 OFFCURVE",
"221 -4 OFFCURVE",
"215 -9 CURVE",
"206 -32 OFFCURVE",
"201 -51 OFFCURVE",
"199 -64 CURVE SMOOTH",
"197 -80 OFFCURVE",
"208 -89 OFFCURVE",
"212 -74 CURVE SMOOTH",
"220 -44 OFFCURVE",
"235 -7 OFFCURVE",
"253 33 CURVE",
"261 41 OFFCURVE",
"264 49 OFFCURVE",
"260 57 CURVE",
"262 57 OFFCURVE",
"264 55 OFFCURVE",
"266 59 CURVE SMOOTH",
"275 77 LINE SMOOTH",
"281 89 OFFCURVE",
"287 100 OFFCURVE",
"292 108 CURVE SMOOTH",
"312 145 OFFCURVE",
"335 180 OFFCURVE",
"358 212 CURVE",
"360 216 OFFCURVE",
"356 217 OFFCURVE",
"356 219 CURVE",
"365 218 OFFCURVE",
"370 226 OFFCURVE",
"374 234 CURVE",
"388 252 OFFCURVE",
"402 267 OFFCURVE",
"415 280 CURVE",
"422 290 LINE SMOOTH",
"423 291 OFFCURVE",
"424 287 OFFCURVE",
"426 289 CURVE SMOOTH",
"436 297 OFFCURVE",
"449 306 OFFCURVE",
"457 314 CURVE SMOOTH",
"459 316 OFFCURVE",
"453 316 OFFCURVE",
"455 318 CURVE SMOOTH",
"457 320 OFFCURVE",
"458 318 OFFCURVE",
"460 319 CURVE SMOOTH",
"461 320 OFFCURVE",
"458 325 OFFCURVE",
"459 326 CURVE SMOOTH",
"461 327 OFFCURVE",
"463 325 OFFCURVE",
"466 326 CURVE SMOOTH",
"468 327 OFFCURVE",
"469 325 OFFCURVE",
"470 327 CURVE",
"472 329 OFFCURVE",
"474 334 OFFCURVE",
"475 335 CURVE SMOOTH"
);
}
);
width = 753;
}
);
note = B;
unicode = 0042;
},
{
glyphname = C;
lastChange = "2021-09-14 05:10:54 +0000";
layers = (
{
hints = (
{
horizontal = 1;
place = "{-30, 26}";
type = Stem;
},
{
place = "{35, 44}";
type = Stem;
},
{
place = "{579, 43}";
type = Stem;
}
);
layerId = "0027A263-E542-4E44-90C9-E4382CD4DF90";
paths = (
{
closed = 1;
nodes = (
"595 398 OFFCURVE",
"589 399 OFFCURVE",
"587 395 CURVE SMOOTH",
"580 383 OFFCURVE",
"569 374 OFFCURVE",
"556 365 CURVE",
"570 411 OFFCURVE",
"537 461 OFFCURVE",
"464 470 CURVE SMOOTH",
"409 477 OFFCURVE",
"354 467 OFFCURVE",
"293 439 CURVE",
"292 439 LINE",
"288 435 OFFCURVE",
"285 431 OFFCURVE",
"279 432 CURVE SMOOTH",
"278 432 LINE",
"268 427 OFFCURVE",
"258 421 OFFCURVE",
"248 415 CURVE SMOOTH",
"234 407 OFFCURVE",
"219 398 OFFCURVE",
"205 387 CURVE",
"204 387 LINE",
"204 379 OFFCURVE",
"200 378 OFFCURVE",
"192 377 CURVE",
"180 368 OFFCURVE",
"168 358 OFFCURVE",
"157 347 CURVE SMOOTH",
"152 341 OFFCURVE",
"151 333 OFFCURVE",
"144 332 CURVE SMOOTH",
"140 331 OFFCURVE",
"139 331 OFFCURVE",
"136 327 CURVE",
"136 326 OFFCURVE",
"135 326 OFFCURVE",
"135 325 CURVE",
"131 320 OFFCURVE",
"130 315 OFFCURVE",
"123 313 CURVE",
"114 303 OFFCURVE",
"106 293 OFFCURVE",
"98 283 CURVE",
"94 276 OFFCURVE",
"88 272 OFFCURVE",
"85 266 CURVE",
"79 260 OFFCURVE",
"79 250 OFFCURVE",
"71 246 CURVE",
"63 233 LINE",
"63 232 LINE SMOOTH",
"64 225 OFFCURVE",
"66 219 OFFCURVE",
"56 219 CURVE SMOOTH",
"55 219 LINE",
"45 198 LINE",
"44 197 LINE",
"44 196 OFFCURVE",
"43 194 OFFCURVE",
"41 193 CURVE",
"44 193 LINE",
"47 185 OFFCURVE",
"38 180 OFFCURVE",
"35 174 CURVE SMOOTH",
"32 166 OFFCURVE",
"29 159 OFFCURVE",
"27 152 CURVE SMOOTH",
"27 151 LINE",
"28 150 OFFCURVE",
"26 150 OFFCURVE",
"27 149 CURVE",
"27 148 LINE",
"26 148 LINE",
"26 147 OFFCURVE",
"27 146 OFFCURVE",
"27 146 CURVE",
"29 146 OFFCURVE",
"31 148 OFFCURVE",
"32 148 CURVE",
"33 141 OFFCURVE",
"26 140 OFFCURVE",
"23 134 CURVE",
"20 119 LINE SMOOTH",
"17 102 OFFCURVE",
"17 87 OFFCURVE",
"18 73 CURVE SMOOTH",
"18 70 OFFCURVE",
"20 69 OFFCURVE",
"23 70 CURVE",
"21 61 OFFCURVE",
"21 53 OFFCURVE",
"22 44 CURVE SMOOTH",
"24 34 OFFCURVE",
"28 24 OFFCURVE",
"32 16 CURVE",
"33 16 LINE",
"40 12 OFFCURVE",
"41 3 OFFCURVE",
"46 -3 CURVE",
"46 -4 LINE",
"54 -12 OFFCURVE",
"63 -19 OFFCURVE",
"73 -25 CURVE SMOOTH",
"77 -28 OFFCURVE",
"80 -32 OFFCURVE",
"86 -31 CURVE",
"84 -28 OFFCURVE",
"81 -29 OFFCURVE",
"79 -28 CURVE",
"88 -25 OFFCURVE",
"92 -32 OFFCURVE",
"98 -36 CURVE SMOOTH",
"99 -37 LINE",
"118 -42 LINE",
"122 -41 OFFCURVE",
"127 -44 OFFCURVE",
"132 -44 CURVE",
"127 -41 LINE",
"136 -44 OFFCURVE",
"145 -44 OFFCURVE",
"153 -47 CURVE",
"154 -47 LINE SMOOTH",
"198 -47 OFFCURVE",
"250 -42 OFFCURVE",
"302 -29 CURVE",
"307 -26 OFFCURVE",
"313 -27 OFFCURVE",
"319 -25 CURVE",
"319 -24 LINE",
"345 -17 LINE",
"346 -17 OFFCURVE",
"346 -16 OFFCURVE",
"346 -16 CURVE",
"348 -11 OFFCURVE",
"339 -12 OFFCURVE",
"336 -8 CURVE",
"346 -8 OFFCURVE",
"355 -13 OFFCURVE",
"364 -11 CURVE",
"364 -10 LINE",
"371 -8 OFFCURVE",
"378 -6 OFFCURVE",
"384 -3 CURVE",
"385 -3 LINE",
"388 1 OFFCURVE",
"393 0 OFFCURVE",
"399 2 CURVE SMOOTH",
"406 5 LINE SMOOTH",
"410 7 OFFCURVE",
"413 12 OFFCURVE",
"417 14 CURVE",
"418 11 OFFCURVE",
"421 10 OFFCURVE",
"423 12 CURVE",
"424 12 LINE",
"431 15 LINE",
"431 16 LINE",
"433 16 OFFCURVE",
"435 17 OFFCURVE",
"437 18 CURVE",
"439 18 OFFCURVE",
"439 20 OFFCURVE",
"439 20 CURVE",
"436 21 OFFCURVE",
"434 20 OFFCURVE",
"431 20 CURVE",
"430 22 OFFCURVE",
"430 23 OFFCURVE",
"430 23 CURVE",
"437 29 OFFCURVE",
"446 25 OFFCURVE",
"453 25 CURVE",
"467 32 OFFCURVE",
"480 38 OFFCURVE",
"492 45 CURVE SMOOTH",
"502 50 OFFCURVE",
"511 55 OFFCURVE",
"519 61 CURVE",
"522 69 OFFCURVE",
"530 68 OFFCURVE",
"537 73 CURVE SMOOTH",
"555 87 OFFCURVE",
"570 101 OFFCURVE",
"582 112 CURVE SMOOTH",
"593 123 OFFCURVE",
"590 136 OFFCURVE",
"573 120 CURVE SMOOTH",
"566 113 OFFCURVE",
"556 106 OFFCURVE",
"545 99 CURVE SMOOTH",
"544 98 LINE",
"537 98 OFFCURVE",
"534 93 OFFCURVE",
"528 88 CURVE",
"501 73 LINE SMOOTH",
"484 64 OFFCURVE",
"465 54 OFFCURVE",
"445 45 CURVE",
"444 45 LINE",
"439 39 OFFCURVE",
"430 38 OFFCURVE",
"423 36 CURVE SMOOTH",
"421 35 OFFCURVE",
"420 34 OFFCURVE",
"418 34 CURVE",
"412 29 OFFCURVE",
"410 24 OFFCURVE",
"402 27 CURVE",
"391 23 LINE SMOOTH",
"383 20 OFFCURVE",
"377 16 OFFCURVE",
"368 15 CURVE",
"362 13 LINE SMOOTH",
"359 12 OFFCURVE",
"359 8 OFFCURVE",
"356 7 CURVE",
"356 9 OFFCURVE",
"360 10 OFFCURVE",
"357 11 CURVE SMOOTH",
"346 14 OFFCURVE",
"337 8 OFFCURVE",
"327 2 CURVE",
"316 -1 LINE",
"312 -5 OFFCURVE",
"308 -5 OFFCURVE",
"302 -4 CURVE",
"302 -5 LINE",
"223 -24 OFFCURVE",
"147 -29 OFFCURVE",
"101 -6 CURVE",
"96 -2 OFFCURVE",
"91 -3 OFFCURVE",
"85 -4 CURVE",
"88 -2 OFFCURVE",
"88 2 OFFCURVE",
"85 4 CURVE",
"87 1 OFFCURVE",
"88 -2 OFFCURVE",
"84 -4 CURVE",
"84 -2 OFFCURVE",
"85 -1 OFFCURVE",
"85 0 CURVE",
"83 4 OFFCURVE",
"78 5 OFFCURVE",
"76 8 CURVE SMOOTH",
"74 11 OFFCURVE",
"74 17 OFFCURVE",
"70 20 CURVE",
"64 31 LINE",
"62 33 OFFCURVE",
"57 32 OFFCURVE",
"56 33 CURVE",
"54 38 OFFCURVE",
"61 42 OFFCURVE",
"59 47 CURVE",
"59 48 LINE",
"58 50 OFFCURVE",
"58 53 OFFCURVE",
"58 55 CURVE SMOOTH",
"58 60 OFFCURVE",
"56 59 OFFCURVE",
"54 62 CURVE SMOOTH",
"50 67 OFFCURVE",
"56 72 OFFCURVE",
"57 77 CURVE",
"57 88 OFFCURVE",
"59 100 OFFCURVE",
"63 113 CURVE SMOOTH",
"66 126 OFFCURVE",
"71 140 OFFCURVE",
"77 154 CURVE SMOOTH",
"82 166 LINE SMOOTH",
"83 168 OFFCURVE",
"88 171 OFFCURVE",
"87 174 CURVE SMOOTH",
"86 176 OFFCURVE",
"84 172 OFFCURVE",
"83 171 CURVE",
"83 179 OFFCURVE",
"87 182 OFFCURVE",
"94 186 CURVE",
"109 210 LINE",
"109 211 LINE",
"110 212 OFFCURVE",
"109 215 OFFCURVE",
"110 216 CURVE",
"117 220 OFFCURVE",
"120 227 OFFCURVE",
"125 232 CURVE SMOOTH",
"131 240 OFFCURVE",
"137 248 OFFCURVE",
"144 256 CURVE",
"144 262 OFFCURVE",
"139 260 OFFCURVE",
"136 262 CURVE",
"141 268 OFFCURVE",
"150 263 OFFCURVE",
"155 269 CURVE SMOOTH",
"157 271 LINE SMOOTH",
"162 278 OFFCURVE",
"156 284 OFFCURVE",
"148 285 CURVE",
"148 288 OFFCURVE",
"149 288 OFFCURVE",
"149 288 CURVE",
"156 288 OFFCURVE",
"161 283 OFFCURVE",
"167 282 CURVE",
"174 289 LINE SMOOTH",
"177 293 OFFCURVE",
"178 298 OFFCURVE",
"183 299 CURVE",
"186 301 OFFCURVE",
"188 303 OFFCURVE",
"190 306 CURVE",
"191 306 LINE",
"193 313 OFFCURVE",
"192 317 OFFCURVE",
"201 316 CURVE",
"218 331 OFFCURVE",
"235 346 OFFCURVE",
"253 359 CURVE",
"257 363 OFFCURVE",
"261 366 OFFCURVE",
"267 369 CURVE",
"290 385 LINE",
"291 385 LINE",
"298 393 OFFCURVE",
"306 400 OFFCURVE",
"318 402 CURVE",
"321 404 OFFCURVE",
"324 405 OFFCURVE",
"326 407 CURVE",
"327 407 LINE",
"328 409 OFFCURVE",
"333 410 OFFCURVE",
"332 414 CURVE",
"331 415 OFFCURVE",
"329 415 OFFCURVE",
"327 416 CURVE",
"335 415 OFFCURVE",
"341 414 OFFCURVE",
"348 417 CURVE",
"348 418 LINE",
"350 418 OFFCURVE",
"351 419 OFFCURVE",
"353 420 CURVE",
"356 423 OFFCURVE",
"361 425 OFFCURVE",
"366 426 CURVE",
"376 430 OFFCURVE",
"387 434 OFFCURVE",
"397 437 CURVE SMOOTH",
"402 439 OFFCURVE",
"406 443 OFFCURVE",
"412 442 CURVE",
"425 445 OFFCURVE",
"437 448 OFFCURVE",
"449 449 CURVE SMOOTH",
"499 455 OFFCURVE",
"545 437 OFFCURVE",
"527 380 CURVE SMOOTH",
"522 364 LINE",
"522 363 LINE",
"519 358 OFFCURVE",
"523 357 OFFCURVE",
"527 355 CURVE",
"524 351 OFFCURVE",
"517 352 OFFCURVE",
"515 346 CURVE SMOOTH",
"512 336 LINE",
"497 328 OFFCURVE",
"482 320 OFFCURVE",
"482 319 CURVE",
"469 313 OFFCURVE",
"455 305 OFFCURVE",
"443 302 CURVE SMOOTH",
"435 300 OFFCURVE",
"428 296 OFFCURVE",
"420 294 CURVE SMOOTH",
"398 288 LINE",
"397 288 OFFCURVE",
"395 289 OFFCURVE",
"394 288 CURVE",
"393 288 OFFCURVE",
"392 287 OFFCURVE",
"392 287 CURVE",
"380 285 LINE SMOOTH",
"379 285 OFFCURVE",
"380 286 OFFCURVE",
"379 286 CURVE SMOOTH",
"371 284 OFFCURVE",
"369 285 OFFCURVE",
"362 285 CURVE SMOOTH",
"343 285 OFFCURVE",
"344 286 OFFCURVE",
"327 292 CURVE SMOOTH",
"325 293 OFFCURVE",
"323 292 OFFCURVE",
"322 293 CURVE",
"310 298 OFFCURVE",
"314 297 OFFCURVE",
"313 302 CURVE SMOOTH",
"313 304 LINE",
"314 305 OFFCURVE",
"312 316 OFFCURVE",
"312 316 CURVE",
"313 330 LINE",
"313 330 OFFCURVE",
"314 331 OFFCURVE",
"315 331 CURVE",
"316 333 OFFCURVE",
"314 335 OFFCURVE",
"315 337 CURVE",
"316 337 OFFCURVE",
"315 340 OFFCURVE",
"315 341 CURVE",
"316 343 OFFCURVE",
"313 345 OFFCURVE",
"315 345 CURVE",
"315 347 OFFCURVE",
"318 347 OFFCURVE",
"318 348 CURVE",
"322 352 OFFCURVE",
"320 349 OFFCURVE",
"325 354 CURVE",
"331 358 OFFCURVE",
"336 365 OFFCURVE",
"325 364 CURVE SMOOTH",
"323 364 OFFCURVE",
"319 361 OFFCURVE",
"318 359 CURVE SMOOTH",
"316 356 OFFCURVE",
"312 357 OFFCURVE",
"310 354 CURVE",
"309 351 OFFCURVE",
"305 350 OFFCURVE",
"304 349 CURVE SMOOTH",
"298 342 LINE SMOOTH",
"297 341 OFFCURVE",
"292 334 OFFCURVE",
"292 333 CURVE",
"291 332 OFFCURVE",
"291 331 OFFCURVE",
"291 330 CURVE SMOOTH",
"291 329 OFFCURVE",
"291 327 OFFCURVE",
"290 326 CURVE",
"290 325 OFFCURVE",
"289 324 OFFCURVE",
"289 323 CURVE",
"288 322 OFFCURVE",
"290 321 OFFCURVE",
"290 320 CURVE",
"285 310 LINE SMOOTH",
"282 301 OFFCURVE",
"286 307 OFFCURVE",
"285 300 CURVE SMOOTH",
"284 295 OFFCURVE",
"284 289 OFFCURVE",
"287 286 CURVE SMOOTH",
"288 285 LINE",
"288 280 OFFCURVE",
"293 272 OFFCURVE",
"293 270 CURVE",
"295 270 OFFCURVE",
"294 267 OFFCURVE",
"294 266 CURVE",
"296 263 OFFCURVE",
"298 263 OFFCURVE",
"299 259 CURVE",
"301 260 OFFCURVE",
"301 258 OFFCURVE",
"302 257 CURVE",
"304 257 LINE",
"304 257 OFFCURVE",
"305 256 OFFCURVE",
"305 255 CURVE",
"312 252 LINE",
"312 251 OFFCURVE",
"313 252 OFFCURVE",
"314 251 CURVE SMOOTH",
"316 249 OFFCURVE",
"316 248 OFFCURVE",
"320 249 CURVE",
"321 247 OFFCURVE",
"329 245 OFFCURVE",
"332 245 CURVE",
"333 244 OFFCURVE",
"333 244 OFFCURVE",
"334 244 CURVE SMOOTH",
"335 244 OFFCURVE",
"335 245 OFFCURVE",
"335 245 CURVE",
"336 245 OFFCURVE",
"337 243 OFFCURVE",
"340 243 CURVE SMOOTH",
"341 243 LINE",
"342 242 OFFCURVE",
"347 241 OFFCURVE",
"347 241 CURVE",
"348 241 OFFCURVE",
"348 242 OFFCURVE",
"349 242 CURVE SMOOTH",
"350 242 OFFCURVE",
"350 240 OFFCURVE",
"352 241 CURVE",
"357 241 OFFCURVE",
"364 242 OFFCURVE",
"370 244 CURVE",
"372 244 OFFCURVE",
"377 242 OFFCURVE",
"378 242 CURVE",
"384 244 OFFCURVE",
"390 244 OFFCURVE",
"396 245 CURVE",
"402 248 LINE",
"405 248 LINE SMOOTH",
"406 248 OFFCURVE",
"409 251 OFFCURVE",
"410 251 CURVE",
"412 252 OFFCURVE",
"414 251 OFFCURVE",
"416 252 CURVE",
"418 252 OFFCURVE",
"419 254 OFFCURVE",
"420 254 CURVE SMOOTH",
"422 254 LINE SMOOTH",
"423 254 OFFCURVE",
"431 259 OFFCURVE",
"433 260 CURVE",
"448 264 LINE",
"450 266 OFFCURVE",
"453 266 OFFCURVE",
"455 267 CURVE",
"457 269 OFFCURVE",
"459 269 OFFCURVE",
"461 270 CURVE SMOOTH",
"462 271 OFFCURVE",
"467 275 OFFCURVE",
"468 275 CURVE SMOOTH",
"471 276 LINE",
"475 279 OFFCURVE",
"478 280 OFFCURVE",
"478 280 CURVE",
"485 285 OFFCURVE",
"503 294 OFFCURVE",
"508 299 CURVE SMOOTH",
"510 301 OFFCURVE",
"511 304 OFFCURVE",
"513 305 CURVE SMOOTH",
"517 307 LINE SMOOTH",
"523 311 OFFCURVE",
"528 318 OFFCURVE",
"531 321 CURVE",
"533 322 OFFCURVE",
"535 322 OFFCURVE",
"535 323 CURVE",
"536 324 OFFCURVE",
"536 325 OFFCURVE",
"536 325 CURVE",
"543 334 LINE SMOOTH",
"544 336 OFFCURVE",
"549 341 OFFCURVE",
"549 342 CURVE",
"548 344 OFFCURVE",
"558 354 OFFCURVE",
"558 356 CURVE",
"574 366 OFFCURVE",
"589 382 OFFCURVE",
"593 394 CURVE SMOOTH"
);
},
{
closed = 1;
nodes = (
"497 310 OFFCURVE",
"479 296 OFFCURVE",
"475 295 CURVE SMOOTH",
"473 294 OFFCURVE",
"469 292 OFFCURVE",
"467 290 CURVE",
"467 289 OFFCURVE",
"460 285 OFFCURVE",
"459 284 CURVE",
"458 284 OFFCURVE",
"454 282 OFFCURVE",
"452 281 CURVE",
"452 280 OFFCURVE",
"448 279 OFFCURVE",
"447 278 CURVE",
"446 278 OFFCURVE",
"443 274 OFFCURVE",
"442 274 CURVE",
"442 274 OFFCURVE",
"435 269 OFFCURVE",
"431 268 CURVE SMOOTH",
"430 268 OFFCURVE",
"430 269 OFFCURVE",
"429 268 CURVE",
"426 268 OFFCURVE",
"427 267 OFFCURVE",
"425 266 CURVE SMOOTH",
"423 265 OFFCURVE",
"421 265 OFFCURVE",
"419 262 CURVE",
"418 262 OFFCURVE",
"417 262 OFFCURVE",
"416 261 CURVE SMOOTH",
"411 257 OFFCURVE",
"414 264 OFFCURVE",
"407 259 CURVE",
"406 259 OFFCURVE",
"405 259 OFFCURVE",
"404 258 CURVE",
"403 258 OFFCURVE",
"401 256 OFFCURVE",
"400 256 CURVE SMOOTH",
"378 254 LINE",
"375 253 OFFCURVE",
"369 252 OFFCURVE",
"368 251 CURVE",
"361 250 OFFCURVE",
"347 251 OFFCURVE",
"335 257 CURVE",
"334 257 LINE",
"331 260 LINE",
"331 262 OFFCURVE",
"329 262 OFFCURVE",
"328 263 CURVE",
"329 263 OFFCURVE",
"326 265 OFFCURVE",
"326 266 CURVE",
"324 268 OFFCURVE",
"323 270 OFFCURVE",
"323 272 CURVE",
"321 272 OFFCURVE",
"321 275 OFFCURVE",
"320 276 CURVE",
"321 278 OFFCURVE",
"318 281 OFFCURVE",
"319 282 CURVE",
"319 283 OFFCURVE",
"320 284 OFFCURVE",
"321 285 CURVE",
"322 285 LINE",
"322 284 OFFCURVE",
"324 283 OFFCURVE",
"324 282 CURVE",
"336 284 OFFCURVE",
"336 274 OFFCURVE",
"348 277 CURVE SMOOTH",
"349 277 OFFCURVE",
"349 277 OFFCURVE",
"349 276 CURVE",
"355 276 LINE SMOOTH",
"356 276 OFFCURVE",
"356 276 OFFCURVE",
"356 275 CURVE",
"357 276 OFFCURVE",
"358 276 OFFCURVE",
"358 276 CURVE",
"360 276 LINE SMOOTH",
"361 276 OFFCURVE",
"361 277 OFFCURVE",
"362 277 CURVE SMOOTH",
"368 278 OFFCURVE",
"373 275 OFFCURVE",
"379 276 CURVE SMOOTH",
"385 278 LINE",
"386 278 LINE SMOOTH",
"387 278 OFFCURVE",
"387 278 OFFCURVE",
"387 277 CURVE",
"388 277 OFFCURVE",
"388 278 OFFCURVE",
"389 278 CURVE SMOOTH",
"390 278 OFFCURVE",
"393 280 OFFCURVE",
"395 280 CURVE SMOOTH",
"396 280 LINE SMOOTH",
"397 280 OFFCURVE",
"398 280 OFFCURVE",
"398 281 CURVE",
"403 281 LINE",
"404 282 OFFCURVE",
"406 284 OFFCURVE",
"407 284 CURVE SMOOTH",
"408 284 OFFCURVE",
"408 283 OFFCURVE",
"409 283 CURVE SMOOTH",
"411 283 OFFCURVE",
"413 284 OFFCURVE",
"414 285 CURVE",
"414 285 OFFCURVE",
"414 284 OFFCURVE",
"415 285 CURVE",
"418 285 OFFCURVE",
"422 288 OFFCURVE",
"425 288 CURVE SMOOTH",
"430 289 LINE",
"431 290 LINE SMOOTH",
"432 291 OFFCURVE",
"434 292 OFFCURVE",
"435 292 CURVE SMOOTH",
"436 292 LINE SMOOTH",
"440 292 OFFCURVE",
"453 297 OFFCURVE",
"458 301 CURVE",
"459 301 OFFCURVE",
"460 302 OFFCURVE",
"462 302 CURVE SMOOTH",
"463 302 OFFCURVE",
"468 306 OFFCURVE",
"470 306 CURVE",
"472 307 OFFCURVE",
"473 308 OFFCURVE",
"474 308 CURVE",
"475 309 LINE",
"478 309 LINE",
"480 311 LINE",
"481 311 OFFCURVE",
"487 316 OFFCURVE",
"488 316 CURVE",
"489 317 OFFCURVE",
"510 330 OFFCURVE",
"508 328 CURVE"
);
}
);
width = 569;
}
);
note = C;
unicode = 0043;
},
{
glyphname = D;
lastChange = "2021-09-14 05:10:54 +0000";
layers = (
{
hints = (
{
horizontal = 1;
place = "{-72, 26}";
type = Stem;
},
{
horizontal = 1;
place = "{557, 35}";
type = Stem;
},
{
place = "{127, 43}";
type = Stem;
}
);
layerId = "0027A263-E542-4E44-90C9-E4382CD4DF90";
paths = (
{
closed = 1;
nodes = (
"819 410 OFFCURVE",
"691 451 OFFCURVE",
"650 459 CURVE SMOOTH",
"634 462 OFFCURVE",
"582 471 OFFCURVE",
"567 472 CURVE",
"563 467 OFFCURVE",
"560 472 OFFCURVE",
"556 473 CURVE SMOOTH",
"555 473 LINE",
"499 472 LINE",
"495 471 OFFCURVE",
"490 473 OFFCURVE",
"486 472 CURVE SMOOTH",
"476 471 LINE SMOOTH",
"473 471 OFFCURVE",
"469 470 OFFCURVE",
"465 471 CURVE",
"443 470 OFFCURVE",
"411 470 OFFCURVE",
"378 463 CURVE",
"373 459 OFFCURVE",
"372 459 OFFCURVE",
"367 461 CURVE",
"366 461 LINE",
"360 460 LINE",
"357 458 OFFCURVE",
"354 458 OFFCURVE",
"351 458 CURVE SMOOTH",
"350 458 LINE SMOOTH",
"321 452 OFFCURVE",
"290 445 OFFCURVE",
"259 436 CURVE",
"259 435 LINE",
"257 434 OFFCURVE",
"258 431 OFFCURVE",
"258 429 CURVE",
"251 435 OFFCURVE",
"246 432 OFFCURVE",
"239 429 CURVE SMOOTH",
"211 420 OFFCURVE",
"183 410 OFFCURVE",
"159 398 CURVE",
"156 395 OFFCURVE",
"153 393 OFFCURVE",
"149 394 CURVE",
"149 393 LINE",
"138 388 OFFCURVE",
"117 378 OFFCURVE",
"107 370 CURVE SMOOTH",
"99 364 OFFCURVE",
"103 362 OFFCURVE",
"96 357 CURVE SMOOTH",
"88 351 OFFCURVE",
"83 351 OFFCURVE",
"77 344 CURVE SMOOTH",
"57 322 OFFCURVE",
"47 295 OFFCURVE",
"54 267 CURVE SMOOTH",
"55 263 OFFCURVE",
"60 256 OFFCURVE",
"60 255 CURVE SMOOTH",
"65 208 OFFCURVE",
"132 187 OFFCURVE",
"167 187 CURVE SMOOTH",
"178 187 OFFCURVE",
"191 193 OFFCURVE",
"170 198 CURVE SMOOTH",
"156 201 LINE",
"152 206 OFFCURVE",
"147 205 OFFCURVE",
"142 203 CURVE SMOOTH",
"137 202 OFFCURVE",
"133 204 OFFCURVE",
"129 207 CURVE",
"128 207 LINE SMOOTH",
"105 213 OFFCURVE",
"82 222 OFFCURVE",
"79 245 CURVE SMOOTH",
"77 255 OFFCURVE",
"79 266 OFFCURVE",
"84 276 CURVE",
"84 280 OFFCURVE",
"87 282 OFFCURVE",
"90 285 CURVE",
"104 304 LINE",
"108 308 OFFCURVE",
"111 319 OFFCURVE",
"115 322 CURVE SMOOTH",
"120 327 OFFCURVE",
"127 325 OFFCURVE",
"134 330 CURVE SMOOTH",
"140 334 OFFCURVE",
"148 349 OFFCURVE",
"155 352 CURVE",
"157 354 OFFCURVE",
"156 346 OFFCURVE",
"158 346 CURVE SMOOTH",
"165 347 OFFCURVE",
"175 353 OFFCURVE",
"182 357 CURVE SMOOTH",
"206 368 LINE",
"207 368 LINE",
"209 369 OFFCURVE",
"209 377 OFFCURVE",
"211 378 CURVE SMOOTH",
"214 380 OFFCURVE",
"219 374 OFFCURVE",
"222 375 CURVE",
"227 378 OFFCURVE",
"236 380 OFFCURVE",
"242 385 CURVE SMOOTH",
"245 387 OFFCURVE",
"244 393 OFFCURVE",
"248 394 CURVE",
"256 398 OFFCURVE",
"265 393 OFFCURVE",
"273 396 CURVE SMOOTH",
"282 399 OFFCURVE",
"290 403 OFFCURVE",
"299 405 CURVE",
"299 406 LINE",
"307 406 OFFCURVE",
"307 418 OFFCURVE",
"309 426 CURVE",
"309 423 OFFCURVE",
"315 410 OFFCURVE",
"319 412 CURVE",
"320 412 LINE",
"326 414 OFFCURVE",
"332 416 OFFCURVE",
"338 417 CURVE",
"344 415 OFFCURVE",
"349 419 OFFCURVE",
"354 422 CURVE",
"355 422 LINE",
"361 424 OFFCURVE",
"367 425 OFFCURVE",
"373 426 CURVE",
"373 427 LINE",
"379 429 OFFCURVE",
"385 428 OFFCURVE",
"391 430 CURVE SMOOTH",
"400 432 OFFCURVE",
"409 434 OFFCURVE",
"418 435 CURVE SMOOTH",
"419 435 LINE",
"422 438 OFFCURVE",
"425 439 OFFCURVE",
"430 437 CURVE",
"471 441 LINE SMOOTH",
"488 443 OFFCURVE",
"509 451 OFFCURVE",
"552 448 CURVE",
"570 452 LINE",
"572 451 OFFCURVE",
"596 450 OFFCURVE",
"608 443 CURVE",
"620 439 OFFCURVE",
"616 443 OFFCURVE",
"631 441 CURVE SMOOTH",
"634 441 OFFCURVE",
"651 434 OFFCURVE",
"654 434 CURVE",
"763 415 OFFCURVE",
"794 303 OFFCURVE",
"750 225 CURVE",
"747 208 OFFCURVE",
"739 206 OFFCURVE",
"731 195 CURVE SMOOTH",
"728 190 LINE SMOOTH",
"724 183 OFFCURVE",
"728 181 OFFCURVE",
"731 175 CURVE",
"726 168 OFFCURVE",
"721 175 OFFCURVE",
"715 172 CURVE",
"709 163 OFFCURVE",
"703 155 OFFCURVE",
"697 148 CURVE",
"694 138 OFFCURVE",
"695 124 OFFCURVE",
"688 123 CURVE",
"687 126 OFFCURVE",
"687 129 OFFCURVE",
"689 131 CURVE",
"687 136 OFFCURVE",
"684 133 OFFCURVE",
"683 131 CURVE",
"674 121 LINE SMOOTH",
"655 100 OFFCURVE",
"628 84 OFFCURVE",
"600 69 CURVE",
"606 79 LINE SMOOTH",
"611 88 OFFCURVE",
"611 98 OFFCURVE",
"613 108 CURVE SMOOTH",
"613 109 OFFCURVE",
"616 108 OFFCURVE",
"616 109 CURVE SMOOTH",
"618 116 OFFCURVE",
"618 124 OFFCURVE",
"618 131 CURVE SMOOTH",
"618 138 OFFCURVE",
"608 138 OFFCURVE",
"608 131 CURVE SMOOTH",
"608 118 OFFCURVE",
"605 106 OFFCURVE",
"601 95 CURVE SMOOTH",
"599 91 OFFCURVE",
"597 83 OFFCURVE",
"594 79 CURVE SMOOTH",
"586 70 LINE",
"577 58 LINE SMOOTH",
"575 56 OFFCURVE",
"569 43 OFFCURVE",
"567 42 CURVE SMOOTH",
"564 41 OFFCURVE",
"565 52 OFFCURVE",
"562 51 CURVE SMOOTH",
"537 39 OFFCURVE",
"513 31 OFFCURVE",
"493 24 CURVE SMOOTH",
"476 18 OFFCURVE",
"457 11 OFFCURVE",
"439 10 CURVE SMOOTH",
"429 9 OFFCURVE",
"419 6 OFFCURVE",
"409 5 CURVE SMOOTH",
"399 4 OFFCURVE",
"387 4 OFFCURVE",
"378 4 CURVE",
"376 5 OFFCURVE",
"374 6 OFFCURVE",
"372 6 CURVE SMOOTH",
"371 6 OFFCURVE",
"370 5 OFFCURVE",
"369 5 CURVE SMOOTH",
"363 5 OFFCURVE",
"358 6 OFFCURVE",
"353 6 CURVE SMOOTH",
"352 6 OFFCURVE",
"353 8 OFFCURVE",
"352 8 CURVE SMOOTH",
"340 8 OFFCURVE",
"330 12 OFFCURVE",
"319 15 CURVE SMOOTH",
"291 22 OFFCURVE",
"287 25 OFFCURVE",
"262 43 CURVE",
"262 44 OFFCURVE",
"261 44 OFFCURVE",
"261 44 CURVE",
"262 48 OFFCURVE",
"262 53 OFFCURVE",
"260 57 CURVE",
"262 57 OFFCURVE",
"264 55 OFFCURVE",
"266 59 CURVE SMOOTH",
"275 77 LINE SMOOTH",
"281 89 OFFCURVE",
"287 100 OFFCURVE",
"292 108 CURVE SMOOTH",
"312 145 OFFCURVE",
"335 180 OFFCURVE",
"358 212 CURVE SMOOTH",
"361 216 OFFCURVE",
"356 217 OFFCURVE",
"356 219 CURVE",
"365 218 OFFCURVE",
"370 226 OFFCURVE",
"374 234 CURVE",
"388 252 OFFCURVE",
"402 267 OFFCURVE",
"415 280 CURVE",
"422 290 LINE SMOOTH",
"423 291 OFFCURVE",
"424 287 OFFCURVE",
"426 289 CURVE SMOOTH",
"436 297 OFFCURVE",
"449 306 OFFCURVE",
"457 314 CURVE SMOOTH",
"459 316 OFFCURVE",
"453 316 OFFCURVE",
"455 318 CURVE SMOOTH",
"457 320 OFFCURVE",
"458 318 OFFCURVE",
"460 319 CURVE SMOOTH",
"461 320 OFFCURVE",
"458 325 OFFCURVE",
"459 326 CURVE SMOOTH",
"461 327 OFFCURVE",
"463 325 OFFCURVE",
"466 326 CURVE SMOOTH",
"468 327 OFFCURVE",
"469 325 OFFCURVE",
"470 327 CURVE",
"472 329 OFFCURVE",
"474 334 OFFCURVE",
"475 335 CURVE SMOOTH",
"491 357 OFFCURVE",
"461 368 OFFCURVE",
"454 366 CURVE SMOOTH",
"449 365 OFFCURVE",
"443 365 OFFCURVE",
"436 362 CURVE",
"435 361 OFFCURVE",
"435 356 OFFCURVE",
"434 355 CURVE SMOOTH",
"432 354 OFFCURVE",
"431 357 OFFCURVE",
"429 356 CURVE",
"427 356 OFFCURVE",
"430 342 OFFCURVE",
"429 340 CURVE SMOOTH",
"428 339 OFFCURVE",
"424 338 OFFCURVE",
"422 341 CURVE",
"422 342 OFFCURVE",
"425 347 OFFCURVE",
"425 349 CURVE",
"424 351 OFFCURVE",
"420 349 OFFCURVE",
"420 349 CURVE",
"417 344 LINE",
"414 342 LINE",
"379 307 OFFCURVE",
"339 237 OFFCURVE",
"300 168 CURVE SMOOTH",
"286 143 LINE SMOOTH",
"281 136 OFFCURVE",
"287 130 OFFCURVE",
"283 125 CURVE SMOOTH",
"281 122 OFFCURVE",
"277 127 OFFCURVE",
"275 122 CURVE SMOOTH",
"264 101 OFFCURVE",
"254 79 OFFCURVE",
"244 59 CURVE",
"244 60 LINE SMOOTH",
"244 61 OFFCURVE",
"242 62 OFFCURVE",
"242 63 CURVE SMOOTH",
"242 64 OFFCURVE",
"243 65 OFFCURVE",
"243 66 CURVE SMOOTH",
"243 68 OFFCURVE",
"241 70 OFFCURVE",
"241 72 CURVE SMOOTH",
"241 73 OFFCURVE",
"242 74 OFFCURVE",
"242 74 CURVE",
"243 76 OFFCURVE",
"243 77 OFFCURVE",
"243 78 CURVE SMOOTH",
"243 84 LINE",
"244 86 OFFCURVE",
"243 88 OFFCURVE",
"243 90 CURVE",
"240 90 LINE",
"240 92 OFFCURVE",
"241 113 OFFCURVE",
"242 114 CURVE",
"242 115 OFFCURVE",
"243 116 OFFCURVE",
"244 116 CURVE",
"247 125 LINE",
"248 126 OFFCURVE",
"250 128 OFFCURVE",
"250 130 CURVE",
"251 132 OFFCURVE",
"251 134 OFFCURVE",
"253 135 CURVE",
"253 137 OFFCURVE",
"254 139 OFFCURVE",
"255 140 CURVE SMOOTH",
"271 157 LINE",
"272 162 LINE",
"271 172 OFFCURVE",
"266 172 OFFCURVE",
"259 166 CURVE SMOOTH",
"252 160 LINE",
"249 156 OFFCURVE",
"249 153 OFFCURVE",
"246 149 CURVE",
"245 145 OFFCURVE",
"242 144 OFFCURVE",
"241 141 CURVE",
"239 138 OFFCURVE",
"238 133 OFFCURVE",
"235 130 CURVE",
"234 128 OFFCURVE",
"230 126 OFFCURVE",
"229 124 CURVE",
"229 122 OFFCURVE",
"229 121 OFFCURVE",
"228 119 CURVE",
"228 112 LINE",
"225 108 LINE",
"225 106 OFFCURVE",
"227 104 OFFCURVE",
"227 102 CURVE SMOOTH",
"227 100 OFFCURVE",
"222 90 OFFCURVE",
"221 88 CURVE",
"217 72 OFFCURVE",
"222 82 OFFCURVE",
"221 70 CURVE SMOOTH",
"220 62 OFFCURVE",
"220 52 OFFCURVE",
"223 44 CURVE",
"225 43 LINE",
"225 38 OFFCURVE",
"227 31 OFFCURVE",
"229 26 CURVE",
"229 24 LINE",
"227 20 OFFCURVE",
"228 15 OFFCURVE",
"226 11 CURVE",
"226 11 OFFCURVE",
"225 8 OFFCURVE",
"223 9 CURVE",
"223 2 OFFCURVE",
"221 -4 OFFCURVE",
"215 -9 CURVE",
"206 -32 OFFCURVE",
"201 -51 OFFCURVE",
"199 -64 CURVE SMOOTH",
"197 -80 OFFCURVE",
"208 -89 OFFCURVE",
"212 -74 CURVE SMOOTH",
"218 -53 OFFCURVE",
"227 -27 OFFCURVE",
"239 0 CURVE",
"240 -1 OFFCURVE",
"240 -3 OFFCURVE",
"241 -6 CURVE",
"243 -6 OFFCURVE",
"244 -9 OFFCURVE",
"244 -10 CURVE",
"247 -12 LINE",
"248 -12 OFFCURVE",
"248 -13 OFFCURVE",
"248 -15 CURVE",
"258 -24 LINE",
"262 -26 LINE",
"265 -30 OFFCURVE",
"264 -31 OFFCURVE",
"269 -32 CURVE",
"271 -37 OFFCURVE",
"283 -42 OFFCURVE",
"287 -44 CURVE",
"287 -45 OFFCURVE",
"288 -46 OFFCURVE",
"289 -46 CURVE SMOOTH",
"290 -46 OFFCURVE",
"290 -45 OFFCURVE",
"291 -45 CURVE SMOOTH",
"293 -45 OFFCURVE",
"293 -49 OFFCURVE",
"298 -50 CURVE",
"299 -51 LINE SMOOTH",
"300 -52 OFFCURVE",
"307 -56 OFFCURVE",
"308 -56 CURVE SMOOTH",
"310 -56 LINE SMOOTH",
"312 -56 OFFCURVE",
"312 -59 OFFCURVE",
"314 -59 CURVE",
"322 -61 OFFCURVE",
"331 -61 OFFCURVE",
"340 -61 CURVE SMOOTH",
"341 -61 OFFCURVE",
"349 -67 OFFCURVE",
"351 -67 CURVE SMOOTH",
"359 -67 OFFCURVE",
"367 -69 OFFCURVE",
"376 -69 CURVE SMOOTH",
"378 -69 OFFCURVE",
"381 -67 OFFCURVE",
"384 -67 CURVE SMOOTH",
"385 -67 OFFCURVE",
"386 -68 OFFCURVE",
"387 -68 CURVE SMOOTH",
"389 -68 OFFCURVE",
"393 -64 OFFCURVE",
"395 -65 CURVE",
"398 -65 OFFCURVE",
"401 -66 OFFCURVE",
"403 -66 CURVE SMOOTH",
"405 -66 OFFCURVE",
"407 -63 OFFCURVE",
"409 -63 CURVE",
"410 -64 OFFCURVE",
"410 -64 OFFCURVE",
"411 -64 CURVE SMOOTH",
"413 -64 OFFCURVE",
"424 -60 OFFCURVE",
"426 -59 CURVE SMOOTH",
"428 -58 OFFCURVE",
"446 -57 OFFCURVE",
"447 -57 CURVE SMOOTH",
"450 -56 OFFCURVE",
"454 -55 OFFCURVE",
"458 -55 CURVE",
"459 -53 OFFCURVE",
"462 -53 OFFCURVE",
"465 -52 CURVE SMOOTH",
"467 -51 OFFCURVE",
"473 -46 OFFCURVE",
"474 -46 CURVE SMOOTH",
"479 -46 LINE",
"479 -46 OFFCURVE",
"485 -43 OFFCURVE",
"489 -42 CURVE",
"498 -35 OFFCURVE",
"523 -29 OFFCURVE",
"530 -22 CURVE",
"532 -19 OFFCURVE",
"534 -15 OFFCURVE",
"537 -13 CURVE SMOOTH",
"539 -12 OFFCURVE",
"541 -13 OFFCURVE",
"543 -12 CURVE SMOOTH",
"555 -5 OFFCURVE",
"558 6 OFFCURVE",
"581 25 CURVE SMOOTH",
"583 27 OFFCURVE",
"589 34 OFFCURVE",
"589 37 CURVE",
"599 42 OFFCURVE",
"614 47 OFFCURVE",
"632 57 CURVE",
"634 57 OFFCURVE",
"637 58 OFFCURVE",
"640 60 CURVE",
"643 65 OFFCURVE",
"647 65 OFFCURVE",
"650 67 CURVE",
"651 67 LINE",
"652 68 LINE SMOOTH",
"655 71 OFFCURVE",
"658 72 OFFCURVE",
"661 74 CURVE",
"661 75 LINE",
"689 94 OFFCURVE",
"715 120 OFFCURVE",
"738 146 CURVE SMOOTH",
"740 149 LINE SMOOTH",
"747 157 OFFCURVE",
"753 165 OFFCURVE",
"759 173 CURVE SMOOTH",
"762 177 OFFCURVE",
"764 178 OFFCURVE",
"766 182 CURVE SMOOTH",
"768 185 OFFCURVE",
"771 186 OFFCURVE",
"773 188 CURVE",
"783 210 LINE SMOOTH",
"793 232 OFFCURVE",
"804 253 OFFCURVE",
"806 277 CURVE SMOOTH"
);
},
{
closed = 1;
nodes = (
"532 2 OFFCURVE",
"503 -14 OFFCURVE",
"499 -14 CURVE",
"497 -16 OFFCURVE",
"491 -17 OFFCURVE",
"488 -19 CURVE",
"488 -20 OFFCURVE",
"479 -25 OFFCURVE",
"478 -26 CURVE",
"476 -26 OFFCURVE",
"470 -28 OFFCURVE",
"468 -29 CURVE SMOOTH",
"467 -30 OFFCURVE",
"461 -31 OFFCURVE",
"461 -32 CURVE",
"459 -31 OFFCURVE",
"455 -37 OFFCURVE",
"454 -36 CURVE",
"453 -36 OFFCURVE",
"429 -44 OFFCURVE",
"424 -44 CURVE",
"423 -43 OFFCURVE",
"422 -42 OFFCURVE",
"421 -42 CURVE SMOOTH",
"417 -42 OFFCURVE",
"418 -45 OFFCURVE",
"415 -45 CURVE",
"413 -46 OFFCURVE",
"409 -45 OFFCURVE",
"408 -49 CURVE",
"403 -49 LINE",
"396 -54 OFFCURVE",
"400 -44 OFFCURVE",
"391 -49 CURVE",
"387 -49 LINE",
"385 -50 OFFCURVE",
"383 -52 OFFCURVE",
"381 -52 CURVE",
"380 -51 LINE",
"374 -51 OFFCURVE",
"356 -51 OFFCURVE",
"345 -50 CURVE SMOOTH",
"341 -50 OFFCURVE",
"338 -47 OFFCURVE",
"337 -47 CURVE SMOOTH",
"326 -46 OFFCURVE",
"316 -43 OFFCURVE",
"305 -42 CURVE",
"305 -41 OFFCURVE",
"304 -42 OFFCURVE",
"303 -42 CURVE SMOOTH",
"302 -42 OFFCURVE",
"296 -36 OFFCURVE",
"294 -34 CURVE",
"293 -34 OFFCURVE",
"293 -35 OFFCURVE",
"292 -35 CURVE SMOOTH",
"289 -34 OFFCURVE",
"282 -26 OFFCURVE",
"281 -23 CURVE",
"280 -22 OFFCURVE",
"279 -22 OFFCURVE",
"278 -22 CURVE",
"278 -19 OFFCURVE",
"276 -17 OFFCURVE",
"275 -15 CURVE",
"275 -12 OFFCURVE",
"272 -11 OFFCURVE",
"271 -10 CURVE",
"271 -8 OFFCURVE",
"261 -3 OFFCURVE",
"261 -2 CURVE",
"259 2 OFFCURVE",
"257 6 OFFCURVE",
"256 10 CURVE",
"253 11 OFFCURVE",
"254 15 OFFCURVE",
"252 18 CURVE",
"253 20 OFFCURVE",
"251 25 OFFCURVE",
"251 27 CURVE",
"253 33 LINE",
"254 34 LINE",
"255 34 LINE",
"255 32 OFFCURVE",
"257 29 OFFCURVE",
"258 28 CURVE",
"263 27 OFFCURVE",
"270 18 OFFCURVE",
"274 18 CURVE SMOOTH",
"275 18 LINE",
"275 19 OFFCURVE",
"280 15 OFFCURVE",
"281 15 CURVE",
"284 13 OFFCURVE",
"307 9 OFFCURVE",
"308 5 CURVE",
"310 5 OFFCURVE",
"310 4 OFFCURVE",
"310 2 CURVE",
"319 0 LINE",
"319 0 OFFCURVE",
"320 -1 OFFCURVE",
"320 -2 CURVE",
"321 -1 OFFCURVE",
"322 -1 OFFCURVE",
"322 -1 CURVE",
"323 -1 OFFCURVE",
"324 -2 OFFCURVE",
"325 -2 CURVE SMOOTH",
"326 -2 OFFCURVE",
"327 -1 OFFCURVE",
"328 -1 CURVE SMOOTH",
"335 -1 OFFCURVE",
"343 -8 OFFCURVE",
"351 -9 CURVE SMOOTH",
"360 -9 LINE",
"360 -8 OFFCURVE",
"360 -8 OFFCURVE",
"361 -8 CURVE SMOOTH",
"362 -8 OFFCURVE",
"362 -9 OFFCURVE",
"363 -10 CURVE",
"365 -10 LINE",
"367 -11 OFFCURVE",
"371 -8 OFFCURVE",
"373 -8 CURVE",
"374 -9 OFFCURVE",
"374 -10 OFFCURVE",
"375 -10 CURVE SMOOTH",
"376 -10 OFFCURVE",
"377 -9 OFFCURVE",
"378 -9 CURVE",
"379 -8 OFFCURVE",
"380 -9 OFFCURVE",
"381 -9 CURVE SMOOTH",
"385 -9 LINE",
"386 -10 OFFCURVE",
"388 -7 OFFCURVE",
"390 -7 CURVE SMOOTH",
"392 -7 OFFCURVE",
"392 -10 OFFCURVE",
"394 -10 CURVE SMOOTH",
"395 -10 OFFCURVE",
"398 -8 OFFCURVE",
"400 -8 CURVE",
"401 -9 LINE",
"406 -9 OFFCURVE",
"411 -7 OFFCURVE",
"416 -7 CURVE SMOOTH",
"422 -7 LINE",
"422 -7 OFFCURVE",
"423 -6 OFFCURVE",
"423 -5 CURVE",
"425 -5 OFFCURVE",
"427 -4 OFFCURVE",
"429 -5 CURVE",
"430 -5 LINE SMOOTH",
"436 -6 OFFCURVE",
"466 -3 OFFCURVE",
"472 2 CURVE",
"474 1 OFFCURVE",
"476 2 OFFCURVE",
"478 2 CURVE SMOOTH",
"479 2 OFFCURVE",
"487 7 OFFCURVE",
"489 6 CURVE",
"493 6 OFFCURVE",
"493 8 OFFCURVE",
"495 8 CURVE",
"496 9 LINE",
"497 9 OFFCURVE",
"498 8 OFFCURVE",
"500 7 CURVE",
"501 7 OFFCURVE",
"502 8 OFFCURVE",
"503 9 CURVE",
"504 9 OFFCURVE",
"529 14 OFFCURVE",
"552 22 CURVE"
);
}
);
width = 786;
}
);
note = D;
unicode = 0044;
},
{
glyphname = Eth;
lastChange = "2021-09-14 05:10:54 +0000";
layers = (
{
hints = (
{
horizontal = 1;
place = "{-7, 11}";
type = Stem;
},
{
horizontal = 1;
place = "{33, 11}";
type = Stem;
},
{
horizontal = 1;
place = "{85, 25}";
type = Stem;
},
{
horizontal = 1;
place = "{187, 11}";
type = Stem;
},
{
horizontal = 1;
place = "{208, 10}";
type = Stem;
},
{
horizontal = 1;
place = "{326, 40}";
type = Stem;
},
{
horizontal = 1;
place = "{394, 38}";
type = Stem;
},
{
horizontal = 1;
place = "{448, 24}";
type = Stem;
},
{
place = "{21, 19}";
type = Stem;
},
{
place = "{169, 11}";
type = Stem;
},
{
place = "{187, 22}";
type = Stem;
},
{
place = "{220, 50}";
type = Stem;
},
{
place = "{396, 45}";
type = Stem;
},
{
place = "{731, 37}";
type = Stem;
},
{
horizontal = 1;
place = "{190, 26}";
type = Stem;
},
{
place = "{215, 7}";
type = Stem;
},
{
place = "{209, 15}";
type = Stem;
}
);
layerId = "0027A263-E542-4E44-90C9-E4382CD4DF90";
paths = (
{
closed = 1;
nodes = (
"560 42 OFFCURVE",
"575 47 OFFCURVE",
"594 57 CURVE",
"595 57 OFFCURVE",
"598 58 OFFCURVE",
"601 60 CURVE",
"604 65 OFFCURVE",
"608 65 OFFCURVE",
"612 67 CURVE",
"613 68 LINE SMOOTH",
"616 71 OFFCURVE",
"619 72 OFFCURVE",
"622 74 CURVE",
"622 75 LINE",
"660 101 OFFCURVE",
"693 136 OFFCURVE",
"720 173 CURVE",
"728 182 LINE",
"729 185 OFFCURVE",
"732 186 OFFCURVE",
"734 188 CURVE SMOOTH",
"738 194 OFFCURVE",
"741 203 OFFCURVE",
"745 210 CURVE SMOOTH",
"755 231 OFFCURVE",
"766 253 OFFCURVE",
"768 277 CURVE SMOOTH",
"781 410 OFFCURVE",
"652 451 OFFCURVE",
"611 459 CURVE SMOOTH",
"595 462 OFFCURVE",
"543 471 OFFCURVE",
"528 472 CURVE",
"524 467 OFFCURVE",
"521 472 OFFCURVE",
"517 473 CURVE",
"500 474 OFFCURVE",
"476 472 OFFCURVE",
"460 472 CURVE",
"456 471 OFFCURVE",
"452 473 OFFCURVE",
"448 472 CURVE SMOOTH",
"447 472 LINE",
"438 471 LINE",
"437 471 LINE SMOOTH",
"434 471 OFFCURVE",
"430 470 OFFCURVE",
"427 471 CURVE SMOOTH",
"426 471 LINE SMOOTH",
"404 471 OFFCURVE",
"373 470 OFFCURVE",
"339 463 CURVE",
"335 459 OFFCURVE",
"333 459 OFFCURVE",
"328 461 CURVE",
"321 460 LINE",
"318 458 OFFCURVE",
"315 458 OFFCURVE",
"312 458 CURVE",
"282 452 OFFCURVE",
"252 445 OFFCURVE",
"220 436 CURVE",
"220 435 LINE",
"218 434 OFFCURVE",
"219 431 OFFCURVE",
"220 429 CURVE",
"213 435 OFFCURVE",
"207 432 OFFCURVE",
"200 429 CURVE SMOOTH",
"172 420 OFFCURVE",
"145 410 OFFCURVE",
"120 398 CURVE",
"117 395 OFFCURVE",
"114 393 OFFCURVE",
"110 394 CURVE",
"110 393 LINE",
"99 388 OFFCURVE",
"78 378 OFFCURVE",
"69 370 CURVE SMOOTH",
"61 364 OFFCURVE",
"64 362 OFFCURVE",
"58 357 CURVE SMOOTH",
"50 351 OFFCURVE",
"44 351 OFFCURVE",
"38 344 CURVE SMOOTH",
"18 322 OFFCURVE",
"8 295 OFFCURVE",
"15 267 CURVE SMOOTH",
"16 263 OFFCURVE",
"21 256 OFFCURVE",
"21 255 CURVE SMOOTH",
"26 208 OFFCURVE",
"93 187 OFFCURVE",
"128 187 CURVE SMOOTH",
"139 187 OFFCURVE",
"153 193 OFFCURVE",
"131 198 CURVE SMOOTH",
"117 201 LINE",
"113 206 OFFCURVE",
"108 205 OFFCURVE",
"104 203 CURVE",
"98 202 OFFCURVE",
"94 204 OFFCURVE",
"90 207 CURVE",
"66 214 OFFCURVE",
"43 222 OFFCURVE",
"40 245 CURVE SMOOTH",
"38 255 OFFCURVE",
"41 265 OFFCURVE",
"45 276 CURVE",
"46 276 LINE",
"46 280 OFFCURVE",
"49 282 OFFCURVE",
"51 285 CURVE SMOOTH",
"55 292 OFFCURVE",
"60 298 OFFCURVE",
"66 304 CURVE SMOOTH",
"69 308 OFFCURVE",
"72 319 OFFCURVE",
"76 322 CURVE SMOOTH",
"82 327 OFFCURVE",
"89 325 OFFCURVE",
"95 330 CURVE SMOOTH",
"101 334 OFFCURVE",
"109 349 OFFCURVE",
"116 352 CURVE",
"118 354 OFFCURVE",
"117 346 OFFCURVE",
"119 346 CURVE SMOOTH",
"126 347 OFFCURVE",
"136 353 OFFCURVE",
"144 357 CURVE SMOOTH",
"151 361 OFFCURVE",
"160 365 OFFCURVE",
"168 368 CURVE SMOOTH",
"170 369 OFFCURVE",
"170 377 OFFCURVE",
"173 378 CURVE",
"175 380 OFFCURVE",
"180 374 OFFCURVE",
"183 375 CURVE",
"188 378 OFFCURVE",
"198 380 OFFCURVE",
"203 385 CURVE SMOOTH",
"206 387 OFFCURVE",
"206 393 OFFCURVE",
"209 394 CURVE SMOOTH",
"218 398 OFFCURVE",
"226 393 OFFCURVE",
"235 396 CURVE SMOOTH",
"243 399 OFFCURVE",
"252 403 OFFCURVE",
"260 405 CURVE",
"261 406 LINE",
"267 406 OFFCURVE",
"269 417 OFFCURVE",
"270 425 CURVE",
"271 421 OFFCURVE",
"277 410 OFFCURVE",
"281 412 CURVE SMOOTH",
"287 414 OFFCURVE",
"293 416 OFFCURVE",
"299 417 CURVE",
"305 415 OFFCURVE",
"311 419 OFFCURVE",
"316 422 CURVE",
"322 424 OFFCURVE",
"328 425 OFFCURVE",
"334 426 CURVE",
"335 427 LINE",
"340 429 OFFCURVE",
"347 428 OFFCURVE",
"352 430 CURVE SMOOTH",
"361 432 OFFCURVE",
"370 434 OFFCURVE",
"380 435 CURVE",
"384 438 OFFCURVE",
"387 439 OFFCURVE",
"391 437 CURVE",
"432 441 LINE SMOOTH",
"450 443 OFFCURVE",
"470 451 OFFCURVE",
"514 448 CURVE",
"531 452 LINE",
"533 451 OFFCURVE",
"557 450 OFFCURVE",
"569 443 CURVE",
"581 439 OFFCURVE",
"577 443 OFFCURVE",
"593 441 CURVE SMOOTH",
"595 441 OFFCURVE",
"612 434 OFFCURVE",
"615 434 CURVE",
"724 415 OFFCURVE",
"756 304 OFFCURVE",
"711 225 CURVE",
"709 208 OFFCURVE",
"700 206 OFFCURVE",
"693 195 CURVE",
"692 195 LINE",
"689 190 LINE SMOOTH",
"685 183 OFFCURVE",
"689 181 OFFCURVE",
"692 175 CURVE",
"687 168 OFFCURVE",
"682 175 OFFCURVE",
"677 172 CURVE",
"669 160 OFFCURVE",
"666 158 OFFCURVE",
"658 148 CURVE",
"653 131 OFFCURVE",
"647 132 OFFCURVE",
"635 121 CURVE SMOOTH",
"615 101 OFFCURVE",
"589 84 OFFCURVE",
"562 69 CURVE SMOOTH",
"528 51 OFFCURVE",
"491 36 OFFCURVE",
"454 24 CURVE SMOOTH",
"437 18 OFFCURVE",
"418 11 OFFCURVE",
"401 10 CURVE SMOOTH",
"390 9 OFFCURVE",
"380 6 OFFCURVE",
"370 5 CURVE SMOOTH",
"360 4 OFFCURVE",
"349 4 OFFCURVE",
"339 4 CURVE",
"337 5 OFFCURVE",
"335 6 OFFCURVE",
"333 6 CURVE SMOOTH",
"332 6 OFFCURVE",
"331 5 OFFCURVE",
"330 5 CURVE SMOOTH",
"325 5 OFFCURVE",
"320 6 OFFCURVE",
"314 6 CURVE SMOOTH",
"313 6 OFFCURVE",
"314 8 OFFCURVE",
"313 8 CURVE SMOOTH",
"301 8 OFFCURVE",
"291 12 OFFCURVE",
"281 15 CURVE SMOOTH",
"253 22 OFFCURVE",
"248 25 OFFCURVE",
"223 43 CURVE",
"223 44 OFFCURVE",
"222 44 OFFCURVE",
"222 44 CURVE",
"223 48 OFFCURVE",
"223 53 OFFCURVE",
"221 57 CURVE",
"223 57 OFFCURVE",
"225 55 OFFCURVE",
"227 59 CURVE SMOOTH",
"236 77 LINE SMOOTH",
"242 89 OFFCURVE",
"247 100 OFFCURVE",
"253 108 CURVE",
"270 139 OFFCURVE",
"288 168 OFFCURVE",
"307 195 CURVE SMOOTH",
"308 196 OFFCURVE",
"309 196 OFFCURVE",
"310 196 CURVE",
"312 195 OFFCURVE",
"313 193 OFFCURVE",
"314 193 CURVE SMOOTH",
"316 193 LINE",
"319 198 OFFCURVE",
"330 197 OFFCURVE",
"336 196 CURVE",
"338 195 OFFCURVE",
"337 198 OFFCURVE",
"339 198 CURVE SMOOTH",
"340 198 OFFCURVE",
"337 196 OFFCURVE",
"339 196 CURVE SMOOTH",
"341 196 OFFCURVE",
"349 199 OFFCURVE",
"351 198 CURVE",
"352 198 OFFCURVE",
"362 203 OFFCURVE",
"366 204 CURVE SMOOTH",
"373 205 OFFCURVE",
"386 208 OFFCURVE",
"387 208 CURVE SMOOTH",
"389 208 OFFCURVE",
"387 207 OFFCURVE",
"388 207 CURVE SMOOTH",
"389 207 OFFCURVE",
"418 212 OFFCURVE",
"393 217 CURVE",
"392 218 OFFCURVE",
"392 218 OFFCURVE",
"392 218 CURVE",
"391 218 LINE SMOOTH",
"384 220 OFFCURVE",
"378 215 OFFCURVE",
"374 211 CURVE",
"374 212 OFFCURVE",
"373 213 OFFCURVE",
"372 213 CURVE",
"370 214 OFFCURVE",
"370 212 OFFCURVE",
"369 212 CURVE",
"369 213 OFFCURVE",
"370 215 OFFCURVE",
"368 215 CURVE SMOOTH",
"366 215 OFFCURVE",
"358 213 OFFCURVE",
"352 212 CURVE SMOOTH",
"351 212 OFFCURVE",
"350 211 OFFCURVE",
"349 211 CURVE",
"348 213 OFFCURVE",
"347 215 OFFCURVE",
"346 215 CURVE SMOOTH",
"344 215 OFFCURVE",
"337 210 OFFCURVE",
"335 211 CURVE",
"334 211 OFFCURVE",
"334 213 OFFCURVE",
"333 215 CURVE",
"321 213 LINE",
"319 210 LINE",
"319 211 OFFCURVE",
"319 211 OFFCURVE",
"318 211 CURVE",
"319 212 LINE SMOOTH",
"322 216 OFFCURVE",
"317 217 OFFCURVE",
"317 219 CURVE",
"326 218 OFFCURVE",
"331 226 OFFCURVE",
"335 234 CURVE",
"336 234 LINE",
"350 252 OFFCURVE",
"363 267 OFFCURVE",
"376 280 CURVE",
"383 290 LINE SMOOTH",
"384 291 OFFCURVE",
"385 287 OFFCURVE",
"387 289 CURVE SMOOTH",
"397 297 OFFCURVE",
"410 306 OFFCURVE",
"418 314 CURVE SMOOTH",
"420 316 OFFCURVE",
"414 316 OFFCURVE",
"416 318 CURVE SMOOTH",
"418 320 OFFCURVE",
"420 318 OFFCURVE",
"421 319 CURVE SMOOTH",
"422 320 OFFCURVE",
"420 325 OFFCURVE",
"420 326 CURVE",
"422 327 OFFCURVE",
"425 325 OFFCURVE",
"427 326 CURVE SMOOTH",
"429 327 OFFCURVE",
"430 325 OFFCURVE",
"432 327 CURVE",
"436 335 LINE",
"452 357 OFFCURVE",
"423 368 OFFCURVE",
"416 366 CURVE SMOOTH",
"410 365 OFFCURVE",
"404 365 OFFCURVE",
"397 362 CURVE",
"396 361 OFFCURVE",
"396 356 OFFCURVE",
"396 355 CURVE",
"394 354 OFFCURVE",
"392 357 OFFCURVE",
"390 356 CURVE",
"389 356 OFFCURVE",
"392 342 OFFCURVE",
"390 340 CURVE SMOOTH",
"389 339 OFFCURVE",
"386 338 OFFCURVE",
"384 341 CURVE SMOOTH",
"383 342 OFFCURVE",
"386 347 OFFCURVE",
"386 349 CURVE SMOOTH",
"386 351 OFFCURVE",
"382 349 OFFCURVE",
"381 349 CURVE",
"378 344 LINE",
"375 342 LINE",
"348 315 OFFCURVE",
"318 268 OFFCURVE",
"288 216 CURVE",
"285 217 OFFCURVE",
"282 220 OFFCURVE",
"281 219 CURVE SMOOTH",
"279 217 OFFCURVE",
"271 217 OFFCURVE",
"268 218 CURVE",
"266 218 OFFCURVE",
"247 214 OFFCURVE",
"247 215 CURVE",
"244 214 LINE",
"244 215 OFFCURVE",
"244 216 OFFCURVE",
"243 216 CURVE SMOOTH",
"239 215 OFFCURVE",
"235 214 OFFCURVE",
"231 212 CURVE",
"231 213 OFFCURVE",
"226 214 OFFCURVE",
"226 214 CURVE",
"226 213 OFFCURVE",
"225 212 OFFCURVE",
"225 212 CURVE",
"224 216 LINE",
"221 213 OFFCURVE",
"218 211 OFFCURVE",
"215 211 CURVE",
"214 204 OFFCURVE",
"208 199 OFFCURVE",
"208 198 CURVE SMOOTH",
"207 195 OFFCURVE",
"209 193 OFFCURVE",
"209 191 CURVE",
"207 188 OFFCURVE",
"229 186 OFFCURVE",
"238 190 CURVE",
"238 189 LINE",
"239 190 OFFCURVE",
"240 191 OFFCURVE",
"241 191 CURVE",
"242 190 OFFCURVE",
"242 190 OFFCURVE",
"242 190 CURVE",
"243 190 LINE",
"244 189 OFFCURVE",
"244 192 OFFCURVE",
"246 192 CURVE",
"249 191 OFFCURVE",
"261 190 OFFCURVE",
"273 190 CURVE",
"261 168 LINE",
"247 143 LINE SMOOTH",
"242 136 OFFCURVE",
"248 130 OFFCURVE",
"244 125 CURVE SMOOTH",
"242 122 OFFCURVE",
"238 127 OFFCURVE",
"237 122 CURVE",
"236 122 LINE",
"210 72 LINE",
"209 73 OFFCURVE",
"208 74 OFFCURVE",
"208 76 CURVE SMOOTH",
"208 77 OFFCURVE",
"209 78 OFFCURVE",
"209 79 CURVE SMOOTH",
"209 81 OFFCURVE",
"207 83 OFFCURVE",
"207 85 CURVE",
"207 85 OFFCURVE",
"208 86 OFFCURVE",
"208 87 CURVE SMOOTH",
"209 90 OFFCURVE",
"209 93 OFFCURVE",
"209 95 CURVE SMOOTH",
"209 97 LINE SMOOTH",
"210 105 OFFCURVE",
"191 119 OFFCURVE",
"187 100 CURVE SMOOTH",
"183 85 OFFCURVE",
"188 94 OFFCURVE",
"187 83 CURVE SMOOTH",
"186 74 OFFCURVE",
"186 64 OFFCURVE",
"189 57 CURVE",
"191 56 LINE",
"191 51 OFFCURVE",
"193 44 OFFCURVE",
"195 38 CURVE",
"190 24 LINE SMOOTH",
"188 20 OFFCURVE",
"190 15 OFFCURVE",
"188 11 CURVE",
"187 11 OFFCURVE",
"186 8 OFFCURVE",
"184 9 CURVE",
"184 5 LINE SMOOTH",
"184 4 OFFCURVE",
"183 4 OFFCURVE",
"182 3 CURVE",
"175 -14 OFFCURVE",
"170 -27 OFFCURVE",
"169 -36 CURVE SMOOTH",
"167 -48 OFFCURVE",
"177 -54 OFFCURVE",
"180 -43 CURVE SMOOTH",
"185 -28 OFFCURVE",
"188 -27 OFFCURVE",
"200 0 CURVE SMOOTH",
"215 33 LINE",
"215 34 LINE",
"216 34 LINE",
"216 32 OFFCURVE",
"219 29 OFFCURVE",
"220 28 CURVE",
"224 27 OFFCURVE",
"231 18 OFFCURVE",
"235 18 CURVE SMOOTH",
"236 18 LINE",
"236 19 OFFCURVE",
"241 15 OFFCURVE",
"242 15 CURVE",
"246 13 OFFCURVE",
"268 9 OFFCURVE",
"269 5 CURVE",
"271 5 OFFCURVE",
"271 4 OFFCURVE",
"272 2 CURVE",
"280 0 LINE SMOOTH",
"281 0 OFFCURVE",
"281 -1 OFFCURVE",
"281 -2 CURVE",
"282 -1 OFFCURVE",
"283 -1 OFFCURVE",
"284 -1 CURVE SMOOTH",
"285 -1 OFFCURVE",
"285 -2 OFFCURVE",
"286 -2 CURVE SMOOTH",
"287 -2 OFFCURVE",
"288 -1 OFFCURVE",
"290 -1 CURVE SMOOTH",
"297 -1 OFFCURVE",
"304 -8 OFFCURVE",
"313 -9 CURVE SMOOTH",
"321 -9 LINE",
"322 -8 OFFCURVE",
"321 -8 OFFCURVE",
"322 -8 CURVE SMOOTH",
"323 -8 OFFCURVE",
"323 -9 OFFCURVE",
"324 -10 CURVE",
"326 -10 LINE",
"328 -11 OFFCURVE",
"332 -8 OFFCURVE",
"334 -8 CURVE",
"335 -9 OFFCURVE",
"335 -10 OFFCURVE",
"336 -10 CURVE SMOOTH",
"337 -10 OFFCURVE",
"338 -9 OFFCURVE",
"339 -9 CURVE",
"340 -8 OFFCURVE",
"341 -9 OFFCURVE",
"342 -9 CURVE SMOOTH",
"346 -9 LINE",
"347 -10 OFFCURVE",
"350 -7 OFFCURVE",
"351 -7 CURVE SMOOTH",
"353 -7 OFFCURVE",
"353 -10 OFFCURVE",
"355 -10 CURVE SMOOTH",
"356 -10 OFFCURVE",
"359 -8 OFFCURVE",
"361 -8 CURVE SMOOTH",
"362 -8 OFFCURVE",
"362 -9 OFFCURVE",
"362 -9 CURVE",
"367 -9 OFFCURVE",
"373 -7 OFFCURVE",
"377 -7 CURVE SMOOTH",
"383 -7 LINE SMOOTH",
"384 -7 OFFCURVE",
"384 -6 OFFCURVE",
"385 -5 CURVE",
"386 -5 OFFCURVE",
"388 -4 OFFCURVE",
"390 -5 CURVE",
"391 -5 LINE SMOOTH",
"398 -6 OFFCURVE",
"428 -3 OFFCURVE",
"433 2 CURVE",
"435 1 OFFCURVE",
"437 2 OFFCURVE",
"439 2 CURVE SMOOTH",
"440 2 OFFCURVE",
"448 7 OFFCURVE",
"450 6 CURVE",
"454 6 OFFCURVE",
"454 8 OFFCURVE",
"456 8 CURVE",
"457 9 LINE",
"458 9 OFFCURVE",
"459 8 OFFCURVE",
"461 7 CURVE",
"462 7 OFFCURVE",
"463 8 OFFCURVE",
"464 9 CURVE",
"465 9 OFFCURVE",
"490 14 OFFCURVE",
"513 22 CURVE",
"516 24 OFFCURVE",
"550 34 OFFCURVE",
"550 37 CURVE"
);
}
);
width = 777;
}
);
note = Eth;
unicode = 00D0;
},
{
glyphname = E;
lastChange = "2021-09-14 05:10:54 +0000";
layers = (
{
hints = (
{
horizontal = 1;
place = "{-110, 64}";
type = Stem;
},
{
horizontal = 1;
place = "{665, 42}";
type = Stem;
},
{
horizontal = 1;
place = "{1087, 64}";
type = Stem;
},
{
place = "{955, 93}";
type = Stem;
},
{
place = "{2223, 50}";
type = Stem;
}
);
layerId = "0027A263-E542-4E44-90C9-E4382CD4DF90";
paths = (
{
closed = 1;
nodes = (
"595 330 OFFCURVE",
"589 359 OFFCURVE",
"563 345 CURVE SMOOTH",
"532 328 LINE",
"534 330 OFFCURVE",
"535 332 OFFCURVE",
"536 334 CURVE SMOOTH",
"538 339 OFFCURVE",
"540 342 OFFCURVE",
"544 348 CURVE SMOOTH",
"546 350 OFFCURVE",
"552 354 OFFCURVE",
"553 356 CURVE SMOOTH",
"555 362 OFFCURVE",
"558 369 OFFCURVE",
"559 376 CURVE SMOOTH",
"561 391 OFFCURVE",
"558 406 OFFCURVE",
"551 420 CURVE SMOOTH",
"537 445 OFFCURVE",
"508 465 OFFCURVE",
"464 470 CURVE SMOOTH",
"409 477 OFFCURVE",
"354 467 OFFCURVE",
"293 439 CURVE",
"292 439 LINE",
"288 435 OFFCURVE",
"285 431 OFFCURVE",
"279 432 CURVE SMOOTH",
"278 432 LINE",
"268 427 OFFCURVE",
"258 421 OFFCURVE",
"248 415 CURVE SMOOTH",
"234 407 OFFCURVE",
"219 398 OFFCURVE",
"205 387 CURVE",
"204 387 LINE",
"204 379 OFFCURVE",
"200 378 OFFCURVE",
"192 377 CURVE",
"180 368 OFFCURVE",
"168 358 OFFCURVE",
"157 347 CURVE SMOOTH",
"152 341 OFFCURVE",
"151 333 OFFCURVE",
"144 332 CURVE SMOOTH",
"139 331 OFFCURVE",
"139 331 OFFCURVE",
"136 327 CURVE",
"136 326 OFFCURVE",
"135 326 OFFCURVE",
"135 325 CURVE",
"131 320 OFFCURVE",
"130 315 OFFCURVE",
"123 313 CURVE",
"114 303 OFFCURVE",
"106 293 OFFCURVE",
"98 283 CURVE",
"94 276 OFFCURVE",
"88 272 OFFCURVE",
"85 266 CURVE",
"79 260 OFFCURVE",
"79 250 OFFCURVE",
"71 246 CURVE",
"63 233 LINE",
"63 232 LINE SMOOTH",
"64 225 OFFCURVE",
"66 219 OFFCURVE",
"56 219 CURVE SMOOTH",
"55 219 LINE",
"48 204 LINE",
"38 203 OFFCURVE",
"29 201 OFFCURVE",
"21 201 CURVE SMOOTH",
"19 201 OFFCURVE",
"17 200 OFFCURVE",
"17 199 CURVE",
"13 197 OFFCURVE",
"9 189 OFFCURVE",
"8 182 CURVE SMOOTH",
"8 172 OFFCURVE",
"14 162 OFFCURVE",
"21 163 CURVE SMOOTH",
"24 163 OFFCURVE",
"27 163 OFFCURVE",
"31 164 CURVE",
"29 160 OFFCURVE",
"28 156 OFFCURVE",
"27 152 CURVE SMOOTH",
"27 151 LINE",
"28 150 OFFCURVE",
"26 150 OFFCURVE",
"27 149 CURVE",
"27 148 LINE",
"26 148 LINE",
"26 147 OFFCURVE",
"27 146 OFFCURVE",
"27 146 CURVE",
"29 146 OFFCURVE",
"31 148 OFFCURVE",
"32 148 CURVE",
"33 141 OFFCURVE",
"26 140 OFFCURVE",
"23 134 CURVE",
"20 119 LINE SMOOTH",
"17 102 OFFCURVE",
"17 87 OFFCURVE",
"18 73 CURVE SMOOTH",
"18 70 OFFCURVE",
"20 69 OFFCURVE",
"23 70 CURVE",
"21 61 OFFCURVE",
"21 53 OFFCURVE",
"22 44 CURVE SMOOTH",
"24 34 OFFCURVE",
"28 24 OFFCURVE",
"32 16 CURVE",
"33 16 LINE",
"40 12 OFFCURVE",
"41 3 OFFCURVE",
"46 -3 CURVE",
"46 -4 LINE",
"54 -12 OFFCURVE",
"63 -19 OFFCURVE",
"73 -25 CURVE SMOOTH",
"77 -28 OFFCURVE",
"80 -32 OFFCURVE",
"86 -31 CURVE",
"84 -28 OFFCURVE",
"81 -29 OFFCURVE",
"79 -28 CURVE",
"88 -25 OFFCURVE",
"92 -32 OFFCURVE",
"98 -36 CURVE SMOOTH",
"99 -37 LINE",
"118 -42 LINE",
"122 -41 OFFCURVE",
"127 -44 OFFCURVE",
"132 -44 CURVE",
"127 -41 LINE",
"136 -44 OFFCURVE",
"145 -44 OFFCURVE",
"153 -47 CURVE",
"154 -47 LINE SMOOTH",
"198 -47 OFFCURVE",
"250 -42 OFFCURVE",
"302 -29 CURVE",
"307 -26 OFFCURVE",
"313 -27 OFFCURVE",
"319 -25 CURVE",
"319 -24 LINE",
"345 -17 LINE",
"346 -17 OFFCURVE",
"346 -16 OFFCURVE",
"346 -16 CURVE",
"348 -11 OFFCURVE",
"339 -12 OFFCURVE",
"336 -8 CURVE",
"346 -8 OFFCURVE",
"355 -13 OFFCURVE",
"364 -11 CURVE",
"364 -10 LINE",
"371 -8 OFFCURVE",
"378 -6 OFFCURVE",
"384 -3 CURVE",
"385 -3 LINE",
"388 1 OFFCURVE",
"393 0 OFFCURVE",
"399 2 CURVE SMOOTH",
"406 5 LINE SMOOTH",
"410 7 OFFCURVE",
"413 12 OFFCURVE",
"417 14 CURVE",
"418 11 OFFCURVE",
"421 10 OFFCURVE",
"423 12 CURVE",
"424 12 LINE",
"431 15 LINE",
"431 16 LINE",
"433 16 OFFCURVE",
"435 17 OFFCURVE",
"437 18 CURVE",
"439 18 OFFCURVE",
"439 20 OFFCURVE",
"439 20 CURVE",
"436 21 OFFCURVE",
"434 20 OFFCURVE",
"431 20 CURVE",
"430 22 OFFCURVE",
"430 23 OFFCURVE",
"430 23 CURVE",
"437 29 OFFCURVE",
"446 25 OFFCURVE",
"453 25 CURVE",
"467 32 OFFCURVE",
"480 38 OFFCURVE",
"492 45 CURVE SMOOTH",
"502 50 OFFCURVE",
"511 55 OFFCURVE",
"519 61 CURVE",
"522 69 OFFCURVE",
"530 68 OFFCURVE",
"537 73 CURVE SMOOTH",
"555 87 OFFCURVE",
"570 101 OFFCURVE",
"582 112 CURVE SMOOTH",
"593 123 OFFCURVE",
"590 136 OFFCURVE",
"573 120 CURVE SMOOTH",
"566 113 OFFCURVE",
"556 106 OFFCURVE",
"545 99 CURVE SMOOTH",
"544 98 LINE",
"537 98 OFFCURVE",
"534 93 OFFCURVE",
"528 88 CURVE",
"501 73 LINE SMOOTH",
"484 64 OFFCURVE",
"465 54 OFFCURVE",
"445 45 CURVE",
"444 45 LINE",
"439 39 OFFCURVE",
"430 38 OFFCURVE",
"423 36 CURVE SMOOTH",
"421 35 OFFCURVE",
"420 34 OFFCURVE",
"418 34 CURVE",
"412 29 OFFCURVE",
"410 24 OFFCURVE",
"402 27 CURVE",
"391 23 LINE SMOOTH",
"383 20 OFFCURVE",
"377 16 OFFCURVE",
"368 15 CURVE",
"362 13 LINE SMOOTH",
"359 12 OFFCURVE",
"359 8 OFFCURVE",
"356 7 CURVE",
"356 9 OFFCURVE",
"360 10 OFFCURVE",
"357 11 CURVE SMOOTH",
"346 14 OFFCURVE",
"337 8 OFFCURVE",
"327 2 CURVE",
"316 -1 LINE",
"312 -5 OFFCURVE",
"308 -5 OFFCURVE",
"302 -4 CURVE",
"302 -5 LINE",
"223 -24 OFFCURVE",
"147 -29 OFFCURVE",
"101 -6 CURVE",
"96 -2 OFFCURVE",
"91 -3 OFFCURVE",
"85 -4 CURVE",
"88 -2 OFFCURVE",
"88 2 OFFCURVE",
"85 4 CURVE",
"87 1 OFFCURVE",
"88 -2 OFFCURVE",
"84 -4 CURVE",
"84 -2 OFFCURVE",
"85 -1 OFFCURVE",
"85 0 CURVE",
"83 4 OFFCURVE",
"78 5 OFFCURVE",
"76 8 CURVE SMOOTH",
"74 11 OFFCURVE",
"74 17 OFFCURVE",
"70 20 CURVE",
"64 31 LINE",
"62 33 OFFCURVE",
"57 32 OFFCURVE",
"56 33 CURVE",
"54 38 OFFCURVE",
"61 42 OFFCURVE",
"59 47 CURVE",
"59 48 LINE",
"58 50 OFFCURVE",
"58 53 OFFCURVE",
"58 55 CURVE SMOOTH",
"58 60 OFFCURVE",
"56 59 OFFCURVE",
"54 62 CURVE SMOOTH",
"50 67 OFFCURVE",
"56 72 OFFCURVE",
"57 77 CURVE",
"57 88 OFFCURVE",
"59 100 OFFCURVE",
"63 113 CURVE SMOOTH",
"66 126 OFFCURVE",
"71 140 OFFCURVE",
"77 154 CURVE SMOOTH",
"82 166 LINE SMOOTH",
"83 168 OFFCURVE",
"87 170 OFFCURVE",
"87 173 CURVE",
"93 173 OFFCURVE",
"129 180 OFFCURVE",
"130 185 CURVE SMOOTH",
"130 188 OFFCURVE",
"142 189 OFFCURVE",
"152 195 CURVE",
"165 195 OFFCURVE",
"153 183 OFFCURVE",
"185 188 CURVE SMOOTH",
"232 196 OFFCURVE",
"274 203 OFFCURVE",
"319 207 CURVE",
"329 210 LINE",
"331 210 OFFCURVE",
"333 215 OFFCURVE",
"341 215 CURVE",
"344 214 OFFCURVE",
"341 209 OFFCURVE",
"345 209 CURVE SMOOTH",
"369 210 OFFCURVE",
"401 209 OFFCURVE",
"421 208 CURVE SMOOTH",
"429 208 OFFCURVE",
"429 209 OFFCURVE",
"436 208 CURVE SMOOTH",
"440 207 OFFCURVE",
"449 208 OFFCURVE",
"453 207 CURVE SMOOTH",
"467 204 OFFCURVE",
"462 214 OFFCURVE",
"448 218 CURVE",
"429 221 LINE",
"417 222 LINE SMOOTH",
"412 222 OFFCURVE",
"414 218 OFFCURVE",
"408 218 CURVE SMOOTH",
"404 218 OFFCURVE",
"405 223 OFFCURVE",
"401 224 CURVE SMOOTH",
"394 225 OFFCURVE",
"377 225 OFFCURVE",
"368 226 CURVE SMOOTH",
"353 226 OFFCURVE",
"322 226 OFFCURVE",
"303 225 CURVE SMOOTH",
"291 224 OFFCURVE",
"291 222 OFFCURVE",
"279 221 CURVE SMOOTH",
"270 221 OFFCURVE",
"276 224 OFFCURVE",
"268 223 CURVE",
"246 223 OFFCURVE",
"210 220 OFFCURVE",
"186 218 CURVE SMOOTH",
"126 214 LINE",
"121 212 OFFCURVE",
"115 211 OFFCURVE",
"109 210 CURVE",
"109 211 LINE",
"110 212 OFFCURVE",
"109 215 OFFCURVE",
"110 216 CURVE",
"117 220 OFFCURVE",
"120 227 OFFCURVE",
"125 232 CURVE SMOOTH",
"144 256 LINE",
"144 262 OFFCURVE",
"139 260 OFFCURVE",
"136 262 CURVE",
"141 268 OFFCURVE",
"150 263 OFFCURVE",
"155 269 CURVE SMOOTH",
"157 271 LINE SMOOTH",
"162 278 OFFCURVE",
"156 284 OFFCURVE",
"148 285 CURVE",
"148 288 OFFCURVE",
"149 288 OFFCURVE",
"149 288 CURVE",
"156 288 OFFCURVE",
"161 283 OFFCURVE",
"167 282 CURVE",
"174 289 LINE SMOOTH",
"177 293 OFFCURVE",
"178 298 OFFCURVE",
"183 299 CURVE",
"186 301 OFFCURVE",
"188 303 OFFCURVE",
"190 306 CURVE",
"191 306 LINE",
"193 313 OFFCURVE",
"192 317 OFFCURVE",
"201 316 CURVE",
"218 331 OFFCURVE",
"235 346 OFFCURVE",
"253 359 CURVE",
"257 363 OFFCURVE",
"261 366 OFFCURVE",
"267 369 CURVE",
"290 385 LINE",
"291 385 LINE",
"298 393 OFFCURVE",
"306 400 OFFCURVE",
"318 402 CURVE",
"321 404 OFFCURVE",
"324 405 OFFCURVE",
"326 407 CURVE",
"327 407 LINE",
"328 409 OFFCURVE",
"333 410 OFFCURVE",
"332 414 CURVE",
"331 415 OFFCURVE",
"329 415 OFFCURVE",
"327 416 CURVE",
"335 415 OFFCURVE",
"341 414 OFFCURVE",
"348 417 CURVE",
"348 418 LINE",
"350 418 OFFCURVE",
"351 419 OFFCURVE",
"353 420 CURVE",
"356 423 OFFCURVE",
"361 425 OFFCURVE",
"366 426 CURVE",
"376 430 OFFCURVE",
"387 434 OFFCURVE",
"397 437 CURVE SMOOTH",
"402 439 OFFCURVE",
"406 443 OFFCURVE",
"412 442 CURVE",
"425 445 OFFCURVE",
"437 448 OFFCURVE",
"449 449 CURVE SMOOTH",
"482 453 OFFCURVE",
"513 446 OFFCURVE",
"525 425 CURVE SMOOTH",
"532 414 OFFCURVE",
"533 399 OFFCURVE",
"527 380 CURVE SMOOTH",
"526 376 OFFCURVE",
"531 372 OFFCURVE",
"530 369 CURVE SMOOTH",
"529 366 OFFCURVE",
"523 366 OFFCURVE",
"522 364 CURVE",
"522 363 LINE",
"519 358 OFFCURVE",
"523 357 OFFCURVE",
"527 355 CURVE",
"524 351 OFFCURVE",
"517 352 OFFCURVE",
"515 346 CURVE SMOOTH",
"512 338 OFFCURVE",
"522 339 OFFCURVE",
"505 313 CURVE",
"498 306 OFFCURVE",
"491 310 OFFCURVE",
"482 301 CURVE SMOOTH",
"479 298 OFFCURVE",
"470 291 OFFCURVE",
"469 289 CURVE",
"460 284 LINE",
"456 283 OFFCURVE",
"454 280 OFFCURVE",
"451 281 CURVE SMOOTH",
"449 282 OFFCURVE",
"439 280 OFFCURVE",
"435 278 CURVE SMOOTH",
"431 276 OFFCURVE",
"435 273 OFFCURVE",
"436 272 CURVE",
"437 272 OFFCURVE",
"437 269 OFFCURVE",
"439 269 CURVE SMOOTH",
"445 269 OFFCURVE",
"457 273 OFFCURVE",
"458 273 CURVE",
"466 276 OFFCURVE",
"489 282 OFFCURVE",
"495 284 CURVE SMOOTH",
"499 286 OFFCURVE",
"507 286 OFFCURVE",
"511 289 CURVE SMOOTH",
"522 295 OFFCURVE",
"513 296 OFFCURVE",
"519 298 CURVE SMOOTH",
"529 301 OFFCURVE",
"521 289 OFFCURVE",
"532 296 CURVE SMOOTH",
"541 301 OFFCURVE",
"569 311 OFFCURVE",
"576 316 CURVE SMOOTH"
);
}
);
width = 608;
}
);
note = E;
unicode = 0045;
},
{
glyphname = F;
lastChange = "2021-09-14 05:10:54 +0000";
layers = (
{
hints = (
{
horizontal = 1;
place = "{291, 158}";
type = Stem;
},
{
horizontal = 1;
place = "{592, 48}";
type = Stem;
},
{
place = "{-36, 61}";
type = Stem;
},
{
place = "{93, 45}";
type = Stem;
}
);
layerId = "0027A263-E542-4E44-90C9-E4382CD4DF90";
paths = (
{
closed = 1;
nodes = (
"641 188 OFFCURVE",
"641 201 OFFCURVE",
"629 204 CURVE SMOOTH",
"624 206 OFFCURVE",
"619 207 OFFCURVE",
"613 208 CURVE SMOOTH",
"604 209 LINE",
"599 208 OFFCURVE",
"597 206 OFFCURVE",
"593 207 CURVE SMOOTH",
"589 207 OFFCURVE",
"593 209 OFFCURVE",
"590 210 CURVE SMOOTH",
"584 212 OFFCURVE",
"569 212 OFFCURVE",
"562 212 CURVE SMOOTH",
"549 213 OFFCURVE",
"523 213 OFFCURVE",
"508 212 CURVE SMOOTH",
"497 211 OFFCURVE",
"497 208 OFFCURVE",
"487 208 CURVE SMOOTH",
"482 208 OFFCURVE",
"483 209 OFFCURVE",
"482 209 CURVE",
"491 228 OFFCURVE",
"498 247 OFFCURVE",
"500 258 CURVE SMOOTH",
"501 265 OFFCURVE",
"506 269 OFFCURVE",
"510 275 CURVE SMOOTH",
"513 279 OFFCURVE",
"551 383 OFFCURVE",
"555 392 CURVE",
"568 395 OFFCURVE",
"581 408 OFFCURVE",
"586 423 CURVE",
"595 423 OFFCURVE",
"638 424 OFFCURVE",
"648 425 CURVE",
"660 424 OFFCURVE",
"697 422 OFFCURVE",
"705 415 CURVE",
"712 413 OFFCURVE",
"719 411 OFFCURVE",
"726 408 CURVE",
"739 407 OFFCURVE",
"751 385 OFFCURVE",
"752 385 CURVE",
"759 372 OFFCURVE",
"752 331 OFFCURVE",
"740 321 CURVE",
"735 312 OFFCURVE",
"728 302 OFFCURVE",
"719 296 CURVE SMOOTH",
"708 288 OFFCURVE",
"703 284 OFFCURVE",
"720 280 CURVE SMOOTH",
"753 271 OFFCURVE",
"778 319 OFFCURVE",
"778 347 CURVE SMOOTH",
"778 355 OFFCURVE",
"777 363 OFFCURVE",
"775 371 CURVE SMOOTH",
"774 376 OFFCURVE",
"774 383 OFFCURVE",
"769 383 CURVE",
"768 382 OFFCURVE",
"763 380 OFFCURVE",
"761 381 CURVE SMOOTH",
"760 382 OFFCURVE",
"759 383 OFFCURVE",
"759 385 CURVE",
"760 386 OFFCURVE",
"763 385 OFFCURVE",
"764 385 CURVE",
"773 382 OFFCURVE",
"765 391 OFFCURVE",
"765 391 CURVE",
"765 396 OFFCURVE",
"760 399 OFFCURVE",
"756 402 CURVE SMOOTH",
"747 408 OFFCURVE",
"741 417 OFFCURVE",
"730 420 CURVE SMOOTH",
"718 424 OFFCURVE",
"708 430 OFFCURVE",
"696 434 CURVE SMOOTH",
"684 439 OFFCURVE",
"671 436 OFFCURVE",
"660 441 CURVE SMOOTH",
"657 442 OFFCURVE",
"649 444 OFFCURVE",
"648 440 CURVE",
"634 446 OFFCURVE",
"600 443 OFFCURVE",
"587 443 CURVE",
"587 453 OFFCURVE",
"585 472 OFFCURVE",
"570 472 CURVE SMOOTH",
"548 472 OFFCURVE",
"540 466 OFFCURVE",
"531 446 CURVE",
"517 446 OFFCURVE",
"499 447 OFFCURVE",
"485 445 CURVE SMOOTH",
"480 444 OFFCURVE",
"477 440 OFFCURVE",
"472 439 CURVE",
"468 435 OFFCURVE",
"458 433 OFFCURVE",
"453 435 CURVE",
"452 449 OFFCURVE",
"436 439 OFFCURVE",
"428 440 CURVE SMOOTH",
"420 440 OFFCURVE",
"319 424 OFFCURVE",
"312 421 CURVE SMOOTH",
"302 416 OFFCURVE",
"290 416 OFFCURVE",
"279 414 CURVE",
"273 409 OFFCURVE",
"244 406 OFFCURVE",
"235 404 CURVE",
"231 404 OFFCURVE",
"231 400 OFFCURVE",
"229 398 CURVE SMOOTH",
"221 392 OFFCURVE",
"202 396 OFFCURVE",
"192 393 CURVE SMOOTH",
"157 384 LINE SMOOTH",
"154 383 OFFCURVE",
"160 389 OFFCURVE",
"160 390 CURVE",
"162 392 OFFCURVE",
"168 398 OFFCURVE",
"167 401 CURVE SMOOTH",
"166 406 OFFCURVE",
"149 402 OFFCURVE",
"146 401 CURVE SMOOTH",
"135 398 OFFCURVE",
"61 381 OFFCURVE",
"58 372 CURVE SMOOTH",
"56 362 OFFCURVE",
"77 329 OFFCURVE",
"86 325 CURVE SMOOTH",
"95 320 OFFCURVE",
"106 321 OFFCURVE",
"116 323 CURVE",
"126 327 OFFCURVE",
"135 328 OFFCURVE",
"144 331 CURVE SMOOTH",
"161 336 OFFCURVE",
"178 344 OFFCURVE",
"194 350 CURVE SMOOTH",
"201 352 OFFCURVE",
"209 353 OFFCURVE",
"215 357 CURVE",
"214 358 LINE",
"229 364 OFFCURVE",
"247 365 OFFCURVE",
"262 372 CURVE",
"280 377 LINE SMOOTH",
"300 383 OFFCURVE",
"319 395 OFFCURVE",
"339 397 CURVE SMOOTH",
"346 397 OFFCURVE",
"352 396 OFFCURVE",
"358 397 CURVE",
"370 397 OFFCURVE",
"387 403 OFFCURVE",
"399 405 CURVE",
"404 407 OFFCURVE",
"396 412 OFFCURVE",
"402 411 CURVE",
"403 410 LINE",
"404 410 OFFCURVE",
"408 407 OFFCURVE",
"407 406 CURVE",
"444 415 OFFCURVE",
"484 416 OFFCURVE",
"521 418 CURVE",
"511 389 LINE",
"511 384 OFFCURVE",
"478 296 OFFCURVE",
"475 285 CURVE",
"477 277 OFFCURVE",
"472 272 OFFCURVE",
"468 266 CURVE SMOOTH",
"462 259 OFFCURVE",
"463 241 OFFCURVE",
"454 227 CURVE",
"445 225 OFFCURVE",
"454 222 OFFCURVE",
"451 221 CURVE",
"449 216 LINE",
"449 213 OFFCURVE",
"449 211 OFFCURVE",
"448 209 CURVE",
"409 205 LINE",
"359 201 LINE",
"343 195 OFFCURVE",
"317 195 OFFCURVE",
"303 193 CURVE SMOOTH",
"271 188 LINE SMOOTH",
"269 188 OFFCURVE",
"268 187 OFFCURVE",
"267 186 CURVE SMOOTH",
"264 183 OFFCURVE",
"261 176 OFFCURVE",
"260 169 CURVE SMOOTH",
"260 159 OFFCURVE",
"265 149 OFFCURVE",
"271 150 CURVE SMOOTH",
"286 152 OFFCURVE",
"305 156 OFFCURVE",
"326 160 CURVE SMOOTH",
"328 160 OFFCURVE",
"362 167 OFFCURVE",
"362 172 CURVE SMOOTH",
"362 175 OFFCURVE",
"376 182 OFFCURVE",
"388 180 CURVE",
"399 181 OFFCURVE",
"374 170 OFFCURVE",
"401 175 CURVE SMOOTH",
"434 181 LINE",
"431 172 OFFCURVE",
"430 160 OFFCURVE",
"427 152 CURVE SMOOTH",
"426 150 OFFCURVE",
"424 149 OFFCURVE",
"422 147 CURVE",
"397 84 OFFCURVE",
"362 1 OFFCURVE",
"313 -44 CURVE SMOOTH",
"273 -81 OFFCURVE",
"241 -75 OFFCURVE",
"198 -47 CURVE SMOOTH",
"150 -16 OFFCURVE",
"129 37 OFFCURVE",
"112 89 CURVE",
"115 87 LINE SMOOTH",
"124 83 OFFCURVE",
"128 78 OFFCURVE",
"135 70 CURVE SMOOTH",
"138 67 OFFCURVE",
"159 54 OFFCURVE",
"164 50 CURVE",
"162 45 OFFCURVE",
"169 42 OFFCURVE",
"172 40 CURVE",
"180 40 OFFCURVE",
"183 36 OFFCURVE",
"188 31 CURVE",
"198 37 OFFCURVE",
"200 25 OFFCURVE",
"205 19 CURVE",
"212 14 OFFCURVE",
"226 16 OFFCURVE",
"227 7 CURVE",
"242 -1 OFFCURVE",
"266 -9 OFFCURVE",
"283 -10 CURVE",
"290 -5 OFFCURVE",
"292 -8 OFFCURVE",
"299 -8 CURVE",
"304 -9 OFFCURVE",
"310 -5 OFFCURVE",
"315 -4 CURVE SMOOTH",
"316 -4 OFFCURVE",
"318 -3 OFFCURVE",
"318 -2 CURVE",
"331 5 OFFCURVE",
"331 14 OFFCURVE",
"315 8 CURVE SMOOTH",
"290 0 OFFCURVE",
"275 0 OFFCURVE",
"250 9 CURVE",
"249 10 OFFCURVE",
"247 11 OFFCURVE",
"246 11 CURVE",
"238 14 OFFCURVE",
"230 19 OFFCURVE",
"223 23 CURVE SMOOTH",
"218 26 OFFCURVE",
"198 42 OFFCURVE",
"197 43 CURVE",
"189 46 OFFCURVE",
"176 47 OFFCURVE",
"180 59 CURVE",
"167 73 LINE",
"160 77 OFFCURVE",
"153 79 OFFCURVE",
"154 89 CURVE",
"150 94 OFFCURVE",
"146 99 OFFCURVE",
"143 105 CURVE",
"133 110 OFFCURVE",
"135 109 OFFCURVE",
"132 119 CURVE SMOOTH",
"131 126 OFFCURVE",
"124 115 OFFCURVE",
"124 123 CURVE SMOOTH",
"124 133 LINE SMOOTH",
"124 138 OFFCURVE",
"119 145 OFFCURVE",
"117 150 CURVE SMOOTH",
"110 171 OFFCURVE",
"81 166 OFFCURVE",
"81 143 CURVE SMOOTH",
"81 104 OFFCURVE",
"94 68 OFFCURVE",
"109 33 CURVE",
"110 29 OFFCURVE",
"112 22 OFFCURVE",
"115 19 CURVE SMOOTH",
"124 11 OFFCURVE",
"123 9 OFFCURVE",
"128 -2 CURVE",
"128 -2 OFFCURVE",
"127 -3 OFFCURVE",
"128 -3 CURVE",
"129 -5 OFFCURVE",
"131 -6 OFFCURVE",
"132 -7 CURVE SMOOTH",
"133 -8 OFFCURVE",
"134 -9 OFFCURVE",
"134 -10 CURVE",
"137 -18 OFFCURVE",
"137 -24 OFFCURVE",
"147 -26 CURVE",
"152 -32 OFFCURVE",
"157 -43 OFFCURVE",
"165 -45 CURVE",
"229 -105 OFFCURVE",
"296 -88 OFFCURVE",
"345 -35 CURVE",
"345 -25 OFFCURVE",
"351 -22 OFFCURVE",
"359 -19 CURVE",
"362 -16 OFFCURVE",
"364 -13 OFFCURVE",
"366 -10 CURVE",
"366 -1 OFFCURVE",
"372 3 OFFCURVE",
"378 7 CURVE",
"386 19 LINE",
"387 23 OFFCURVE",
"388 27 OFFCURVE",
"391 30 CURVE",
"386 42 OFFCURVE",
"392 44 OFFCURVE",
"402 48 CURVE",
"418 68 OFFCURVE",
"435 108 OFFCURVE",
"446 132 CURVE",
"444 138 OFFCURVE",
"441 138 OFFCURVE",
"440 145 CURVE",
"446 144 OFFCURVE",
"450 141 OFFCURVE",
"454 150 CURVE",
"446 159 OFFCURVE",
"454 161 OFFCURVE",
"462 166 CURVE",
"472 188 LINE",
"521 194 LINE SMOOTH",
"525 194 OFFCURVE",
"526 196 OFFCURVE",
"530 196 CURVE",
"531 197 OFFCURVE",
"538 202 OFFCURVE",
"539 201 CURVE",
"542 201 OFFCURVE",
"539 196 OFFCURVE",
"543 196 CURVE SMOOTH",
"563 197 OFFCURVE",
"590 196 OFFCURVE",
"607 195 CURVE SMOOTH",
"614 195 OFFCURVE",
"613 196 OFFCURVE",
"619 195 CURVE SMOOTH",
"623 194 OFFCURVE",
"626 192 OFFCURVE",
"629 192 CURVE"
);
}
);
width = 712;
}
);
note = F;
unicode = 0046;
},
{
glyphname = G;
layers = (
{
hints = (
{
horizontal = 1;
place = "{-198, 62}";
type = Stem;
},
{
horizontal = 1;
place = "{-130, 16}";
type = Stem;
},
{
horizontal = 1;
place = "{-25, 20}";
type = Stem;
},
{
horizontal = 1;
place = "{22, 31}";
type = Stem;
},
{
horizontal = 1;
place = "{271, -20}";
target = down;
type = TopGhost;
},
{
horizontal = 1;
place = "{458, 9}";
type = Stem;
},
{
place = "{28, 14}";
type = Stem;
},
{
place = "{61, 17}";
type = Stem;
},
{
place = "{359, 28}";
type = Stem;
},
{
place = "{460, 18}";
type = Stem;
},
{
place = "{507, 17}";
type = Stem;
},
{
horizontal = 1;
place = "{464, -20}";
target = down;
type = TopGhost;
},
{
horizontal = 1;
place = "{458, 12}";
type = Stem;
},
{
horizontal = 1;
place = "{-157, 26}";
type = Stem;
},
{
horizontal = 1;
place = "{-37, 21}";
target = up;
type = BottomGhost;
},
{
horizontal = 1;
place = "{-9, 21}";
target = up;
type = BottomGhost;
},
{
horizontal = 1;
place = "{-195, 44}";
type = Stem;
}
);
layerId = "0027A263-E542-4E44-90C9-E4382CD4DF90";
paths = (
{
closed = 1;
nodes = (
"579 282 OFFCURVE",
"544 260 OFFCURVE",
"520 215 CURVE SMOOTH",
"518 211 OFFCURVE",
"497 184 OFFCURVE",
"493 180 CURVE SMOOTH",
"489 176 OFFCURVE",
"481 174 OFFCURVE",
"477 170 CURVE SMOOTH",
"469 163 OFFCURVE",
"406 114 OFFCURVE",
"398 116 CURVE",
"392 113 OFFCURVE",
"387 108 OFFCURVE",
"379 107 CURVE",
"373 104 OFFCURVE",
"356 92 OFFCURVE",
"350 93 CURVE",
"343 90 OFFCURVE",
"317 77 OFFCURVE",
"312 78 CURVE",
"284 68 OFFCURVE",
"257 60 OFFCURVE",
"229 53 CURVE",
"224 50 OFFCURVE",
"219 42 OFFCURVE",
"212 51 CURVE",
"212 51 OFFCURVE",
"186 47 OFFCURVE",
"184 46 CURVE",
"180 39 OFFCURVE",
"174 41 OFFCURVE",
"170 44 CURVE",
"147 37 OFFCURVE",
"155 47 OFFCURVE",
"150 48 CURVE SMOOTH",
"116 51 OFFCURVE",
"88 61 OFFCURVE",
"71 91 CURVE SMOOTH",
"67 97 OFFCURVE",
"53 95 OFFCURVE",
"59 103 CURVE",
"65 104 OFFCURVE",
"63 129 OFFCURVE",
"62 135 CURVE",
"63 142 OFFCURVE",
"53 137 OFFCURVE",
"55 142 CURVE SMOOTH",
"56 147 OFFCURVE",
"61 148 OFFCURVE",
"63 155 CURVE",
"64 179 OFFCURVE",
"79 206 OFFCURVE",
"92 227 CURVE",
"92 241 OFFCURVE",
"162 311 OFFCURVE",
"175 322 CURVE SMOOTH",
"185 332 OFFCURVE",
"207 345 OFFCURVE",
"214 353 CURVE SMOOTH",
"227 368 OFFCURVE",
"255 377 OFFCURVE",
"270 390 CURVE SMOOTH",
"273 393 OFFCURVE",
"270 396 OFFCURVE",
"272 398 CURVE",
"278 398 OFFCURVE",
"283 398 OFFCURVE",
"290 403 CURVE",
"294 408 OFFCURVE",
"300 413 OFFCURVE",
"308 416 CURVE",
"307 412 LINE",
"315 416 OFFCURVE",
"324 419 OFFCURVE",
"331 423 CURVE SMOOTH",
"334 425 OFFCURVE",
"337 428 OFFCURVE",
"341 429 CURVE",
"352 434 OFFCURVE",
"366 436 OFFCURVE",
"376 443 CURVE",
"379 446 OFFCURVE",
"377 448 OFFCURVE",
"381 450 CURVE",
"387 455 OFFCURVE",
"397 451 OFFCURVE",
"405 453 CURVE SMOOTH",
"421 459 OFFCURVE",
"439 463 OFFCURVE",
"457 464 CURVE",
"464 467 OFFCURVE",
"469 470 OFFCURVE",
"476 464 CURVE",
"485 463 OFFCURVE",
"492 461 OFFCURVE",
"499 459 CURVE",
"502 455 LINE",
"510 454 OFFCURVE",
"519 456 OFFCURVE",
"520 448 CURVE",
"525 443 OFFCURVE",
"530 440 OFFCURVE",
"530 433 CURVE",
"534 416 LINE",
"534 396 OFFCURVE",
"556 401 OFFCURVE",
"552 432 CURVE SMOOTH",
"551 444 OFFCURVE",
"543 454 OFFCURVE",
"531 461 CURVE SMOOTH",
"525 465 OFFCURVE",
"518 463 OFFCURVE",
"516 470 CURVE",
"510 472 OFFCURVE",
"498 475 OFFCURVE",
"492 475 CURVE SMOOTH",
"487 475 OFFCURVE",
"485 470 OFFCURVE",
"481 472 CURVE SMOOTH",
"479 473 OFFCURVE",
"481 477 OFFCURVE",
"474 478 CURVE SMOOTH",
"437 484 OFFCURVE",
"364 473 OFFCURVE",
"333 463 CURVE",
"328 460 OFFCURVE",
"322 458 OFFCURVE",
"316 459 CURVE",
"310 457 OFFCURVE",
"278 446 OFFCURVE",
"276 444 CURVE SMOOTH",
"270 440 OFFCURVE",
"267 435 OFFCURVE",
"259 436 CURVE",
"238 427 OFFCURVE",
"218 417 OFFCURVE",
"199 405 CURVE",
"196 398 OFFCURVE",
"191 394 OFFCURVE",
"184 393 CURVE",
"170 384 OFFCURVE",
"156 371 OFFCURVE",
"142 360 CURVE",
"143 350 OFFCURVE",
"136 347 OFFCURVE",
"126 344 CURVE",
"106 325 OFFCURVE",
"89 304 OFFCURVE",
"75 282 CURVE",
"75 273 OFFCURVE",
"72 270 OFFCURVE",
"64 266 CURVE",
"40 224 OFFCURVE",
"23 167 OFFCURVE",
"30 119 CURVE",
"35 113 OFFCURVE",
"35 108 OFFCURVE",
"33 101 CURVE",
"46 46 OFFCURVE",
"113 7 OFFCURVE",
"177 13 CURVE",
"182 19 OFFCURVE",
"187 20 OFFCURVE",
"195 14 CURVE",
"206 13 OFFCURVE",
"229 22 OFFCURVE",
"235 21 CURVE",
"251 25 OFFCURVE",
"291 37 OFFCURVE",
"302 47 CURVE",
"306 52 OFFCURVE",
"311 58 OFFCURVE",
"319 52 CURVE",
"329 56 LINE",
"336 64 OFFCURVE",
"342 64 OFFCURVE",
"350 67 CURVE SMOOTH",
"363 70 OFFCURVE",
"375 80 OFFCURVE",
"385 86 CURVE SMOOTH",
"409 100 OFFCURVE",
"434 115 OFFCURVE",
"456 132 CURVE SMOOTH",
"464 138 OFFCURVE",
"468 147 OFFCURVE",
"476 152 CURVE SMOOTH",
"481 155 OFFCURVE",
"485 156 OFFCURVE",
"490 160 CURVE SMOOTH",
"511 177 LINE",
"500 148 LINE",
"501 143 OFFCURVE",
"488 125 OFFCURVE",
"496 123 CURVE",
"498 118 OFFCURVE",
"489 114 OFFCURVE",
"486 109 CURVE",
"484 101 OFFCURVE",
"483 92 OFFCURVE",
"479 85 CURVE SMOOTH",
"470 71 OFFCURVE",
"461 39 OFFCURVE",
"452 21 CURVE",
"451 20 OFFCURVE",
"450 19 OFFCURVE",
"450 17 CURVE SMOOTH",
"449 13 LINE",
"441 6 OFFCURVE",
"444 4 OFFCURVE",
"442 1 CURVE",
"436 -2 LINE SMOOTH",
"433 -4 OFFCURVE",
"432 -7 OFFCURVE",
"429 -9 CURVE",
"432 -13 OFFCURVE",
"426 -19 OFFCURVE",
"423 -23 CURVE",
"422 -29 OFFCURVE",
"426 -27 OFFCURVE",
"419 -35 CURVE",
"419 -38 OFFCURVE",
"419 -50 OFFCURVE",
"412 -50 CURVE",
"408 -60 OFFCURVE",
"378 -84 OFFCURVE",
"365 -87 CURVE",
"357 -95 OFFCURVE",
"320 -114 OFFCURVE",
"307 -117 CURVE SMOOTH",
"295 -120 OFFCURVE",
"284 -126 OFFCURVE",
"273 -130 CURVE SMOOTH",
"261 -133 OFFCURVE",
"250 -137 OFFCURVE",
"238 -139 CURVE SMOOTH",
"236 -139 OFFCURVE",
"233 -138 OFFCURVE",
"231 -139 CURVE",
"230 -139 OFFCURVE",
"229 -141 OFFCURVE",
"228 -141 CURVE",
"217 -145 OFFCURVE",
"180 -146 OFFCURVE",
"168 -146 CURVE SMOOTH",
"130 -148 OFFCURVE",
"116 -148 OFFCURVE",
"80 -137 CURVE SMOOTH",
"69 -134 OFFCURVE",
"64 -133 OFFCURVE",
"55 -128 CURVE",
"53 -126 LINE SMOOTH",
"49 -123 OFFCURVE",
"49 -122 OFFCURVE",
"50 -119 CURVE",
"49 -118 OFFCURVE",
"46 -116 OFFCURVE",
"46 -115 CURVE",
"47 -113 LINE",
"43 -105 LINE",
"44 -104 LINE",
"44 -102 OFFCURVE",
"42 -101 OFFCURVE",
"41 -99 CURVE",
"38 -99 LINE",
"38 -93 OFFCURVE",
"35 -84 OFFCURVE",
"37 -80 CURVE",
"38 -73 OFFCURVE",
"41 -65 OFFCURVE",
"38 -57 CURVE",
"50 -38 LINE",
"50 -34 LINE",
"48 -33 OFFCURVE",
"47 -32 OFFCURVE",
"47 -30 CURVE",
"50 -28 LINE",
"53 -21 LINE",
"55 -21 LINE",
"58 -20 OFFCURVE",
"59 -19 OFFCURVE",
"64 -15 CURVE",
"67 -11 OFFCURVE",
"65 -9 OFFCURVE",
"62 -10 CURVE SMOOTH",
"58 -11 OFFCURVE",
"53 -13 OFFCURVE",
"51 -16 CURVE",
"46 -18 OFFCURVE",
"44 -21 OFFCURVE",
"41 -23 CURVE SMOOTH",
"36 -26 OFFCURVE",
"35 -31 OFFCURVE",
"33 -34 CURVE SMOOTH",
"32 -36 OFFCURVE",
"33 -38 OFFCURVE",
"32 -40 CURVE SMOOTH",
"25 -52 LINE",
"26 -55 OFFCURVE",
"22 -57 OFFCURVE",
"22 -60 CURVE SMOOTH",
"21 -72 LINE",
"20 -74 OFFCURVE",
"17 -76 OFFCURVE",
"17 -78 CURVE SMOOTH",
"16 -82 OFFCURVE",
"19 -85 OFFCURVE",
"20 -88 CURVE",
"20 -90 OFFCURVE",
"19 -91 OFFCURVE",
"19 -92 CURVE SMOOTH",
"21 -100 OFFCURVE",
"25 -92 OFFCURVE",
"23 -111 CURVE",
"20 -111 LINE",
"18 -109 LINE",
"7 -103 OFFCURVE",
"-5 -88 OFFCURVE",
"-9 -86 CURVE",
"-8 -92 LINE SMOOTH",
"-6 -99 OFFCURVE",
"5 -105 OFFCURVE",
"11 -112 CURVE",
"43 -130 OFFCURVE",
"25 -133 OFFCURVE",
"44 -147 CURVE",
"47 -148 LINE",
"51 -154 OFFCURVE",
"67 -167 OFFCURVE",
"67 -170 CURVE",
"71 -169 OFFCURVE",
"71 -173 OFFCURVE",
"74 -175 CURVE SMOOTH",
"78 -178 OFFCURVE",
"83 -180 OFFCURVE",
"87 -185 CURVE",
"89 -183 OFFCURVE",
"90 -186 OFFCURVE",
"92 -188 CURVE",
"96 -188 LINE",
"98 -190 LINE",
"106 -192 OFFCURVE",
"126 -200 OFFCURVE",
"130 -199 CURVE",
"139 -204 OFFCURVE",
"151 -202 OFFCURVE",
"160 -206 CURVE",
"163 -204 OFFCURVE",
"167 -207 OFFCURVE",
"172 -207 CURVE",
"172 -208 LINE",
"177 -208 OFFCURVE",
"181 -209 OFFCURVE",
"185 -210 CURVE",
"185 -209 OFFCURVE",
"186 -209 OFFCURVE",
"186 -209 CURVE",
"188 -208 OFFCURVE",
"190 -210 OFFCURVE",
"192 -210 CURVE SMOOTH",
"202 -210 OFFCURVE",
"214 -206 OFFCURVE",
"223 -205 CURVE SMOOTH",
"227 -204 OFFCURVE",
"234 -207 OFFCURVE",
"238 -206 CURVE SMOOTH",
"254 -204 OFFCURVE",
"267 -200 OFFCURVE",
"280 -197 CURVE SMOOTH",
"284 -196 OFFCURVE",
"284 -193 OFFCURVE",
"288 -192 CURVE SMOOTH",
"290 -191 OFFCURVE",
"294 -192 OFFCURVE",
"298 -191 CURVE SMOOTH",
"300 -190 OFFCURVE",
"301 -188 OFFCURVE",
"303 -188 CURVE",
"312 -186 OFFCURVE",
"321 -181 OFFCURVE",
"325 -175 CURVE",
"328 -173 OFFCURVE",
"333 -172 OFFCURVE",
"336 -171 CURVE",
"337 -168 OFFCURVE",
"353 -158 OFFCURVE",
"357 -157 CURVE",
"360 -155 OFFCURVE",
"365 -152 OFFCURVE",
"368 -151 CURVE",
"374 -143 OFFCURVE",
"394 -130 OFFCURVE",
"398 -123 CURVE",
"399 -120 OFFCURVE",
"400 -116 OFFCURVE",
"403 -113 CURVE SMOOTH",
"404 -112 OFFCURVE",
"407 -112 OFFCURVE",
"409 -111 CURVE SMOOTH",
"416 -106 OFFCURVE",
"416 -96 OFFCURVE",
"421 -91 CURVE SMOOTH",
"424 -89 OFFCURVE",
"427 -89 OFFCURVE",
"426 -84 CURVE",
"428 -81 OFFCURVE",
"432 -79 OFFCURVE",
"433 -76 CURVE",
"436 -73 OFFCURVE",
"434 -71 OFFCURVE",
"435 -69 CURVE",
"438 -66 OFFCURVE",
"453 -44 OFFCURVE",
"455 -44 CURVE",
"454 -36 OFFCURVE",
"467 -22 OFFCURVE",
"474 -16 CURVE",
"476 -15 LINE",
"478 -11 OFFCURVE",
"520 28 OFFCURVE",
"526 33 CURVE SMOOTH",
"538 42 OFFCURVE",
"548 66 OFFCURVE",
"526 52 CURVE SMOOTH",
"517 47 OFFCURVE",
"499 29 OFFCURVE",
"492 19 CURVE",
"503 42 OFFCURVE",
"516 72 OFFCURVE",
"516 72 CURVE",
"513 89 OFFCURVE",
"527 98 OFFCURVE",
"534 113 CURVE",
"530 123 OFFCURVE",
"544 137 OFFCURVE",
"549 147 CURVE",
"538 156 OFFCURVE",
"552 160 OFFCURVE",
"557 166 CURVE",
"557 167 OFFCURVE",
"563 181 OFFCURVE",
"564 183 CURVE SMOOTH",
"575 210 OFFCURVE",
"599 262 OFFCURVE",
"640 264 CURVE SMOOTH",
"649 264 OFFCURVE",
"655 272 OFFCURVE",
"644 273 CURVE SMOOTH"
);
},
{
closed = 1;
nodes = (
"389 -89 OFFCURVE",
"380 -101 OFFCURVE",
"377 -102 CURVE",
"376 -105 OFFCURVE",
"373 -107 OFFCURVE",
"372 -109 CURVE",
"373 -115 LINE",
"369 -115 OFFCURVE",
"359 -121 OFFCURVE",
"355 -123 CURVE",
"354 -127 LINE",
"352 -127 OFFCURVE",
"350 -127 OFFCURVE",
"348 -128 CURVE",
"346 -132 OFFCURVE",
"342 -140 OFFCURVE",
"336 -141 CURVE SMOOTH",
"331 -141 LINE SMOOTH",
"330 -141 OFFCURVE",
"318 -152 OFFCURVE",
"318 -153 CURVE",
"317 -153 OFFCURVE",
"316 -154 OFFCURVE",
"313 -155 CURVE",
"307 -162 OFFCURVE",
"300 -158 OFFCURVE",
"293 -167 CURVE",
"287 -168 LINE",
"286 -169 OFFCURVE",
"284 -172 OFFCURVE",
"281 -172 CURVE SMOOTH",
"269 -173 OFFCURVE",
"254 -187 OFFCURVE",
"240 -191 CURVE",
"226 -190 LINE",
"211 -193 OFFCURVE",
"190 -193 OFFCURVE",
"178 -198 CURVE",
"177 -199 OFFCURVE",
"163 -195 OFFCURVE",
"159 -194 CURVE",
"155 -197 OFFCURVE",
"138 -192 OFFCURVE",
"132 -188 CURVE",
"129 -188 LINE",
"126 -186 OFFCURVE",
"122 -185 OFFCURVE",
"118 -183 CURVE",
"117 -180 OFFCURVE",
"112 -179 OFFCURVE",
"109 -178 CURVE",
"107 -175 LINE",
"102 -172 OFFCURVE",
"95 -169 OFFCURVE",
"91 -166 CURVE",
"88 -166 OFFCURVE",
"86 -161 OFFCURVE",
"82 -160 CURVE",
"80 -156 OFFCURVE",
"70 -150 OFFCURVE",
"70 -148 CURVE",
"69 -146 OFFCURVE",
"70 -144 OFFCURVE",
"69 -143 CURVE",
"72 -142 LINE",
"81 -147 LINE",
"87 -145 OFFCURVE",
"108 -157 OFFCURVE",
"113 -154 CURVE",
"116 -153 OFFCURVE",
"120 -154 OFFCURVE",
"124 -155 CURVE",
"129 -155 OFFCURVE",
"144 -156 OFFCURVE",
"148 -159 CURVE",
"150 -158 OFFCURVE",
"152 -160 OFFCURVE",
"153 -161 CURVE",
"158 -161 OFFCURVE",
"162 -161 OFFCURVE",
"167 -160 CURVE",
"171 -162 LINE",
"173 -160 LINE",
"175 -160 LINE SMOOTH",
"178 -160 OFFCURVE",
"177 -158 OFFCURVE",
"178 -157 CURVE",
"187 -155 OFFCURVE",
"205 -159 OFFCURVE",
"216 -156 CURVE SMOOTH",
"227 -153 LINE SMOOTH",
"228 -153 OFFCURVE",
"228 -153 OFFCURVE",
"228 -152 CURVE",
"229 -151 OFFCURVE",
"231 -152 OFFCURVE",
"232 -153 CURVE",
"239 -152 OFFCURVE",
"240 -148 OFFCURVE",
"245 -147 CURVE",
"248 -148 LINE",
"253 -143 OFFCURVE",
"255 -145 OFFCURVE",
"260 -144 CURVE",
"262 -143 OFFCURVE",
"262 -140 OFFCURVE",
"264 -139 CURVE SMOOTH",
"267 -138 OFFCURVE",
"270 -141 OFFCURVE",
"272 -140 CURVE",
"274 -140 OFFCURVE",
"276 -137 OFFCURVE",
"279 -136 CURVE",
"287 -136 OFFCURVE",
"291 -131 OFFCURVE",
"298 -129 CURVE SMOOTH",
"306 -127 OFFCURVE",
"312 -123 OFFCURVE",
"319 -121 CURVE SMOOTH",
"327 -120 OFFCURVE",
"376 -93 OFFCURVE",
"381 -87 CURVE",
"387 -86 OFFCURVE",
"384 -86 OFFCURVE",
"389 -86 CURVE"
);
}
);
width = 584;
}
);
note = G;
unicode = 0047;
},
{
glyphname = H;
lastChange = "2021-09-14 05:10:54 +0000";
layers = (
{
hints = (
{
horizontal = 1;
place = "{155, 31}";
type = Stem;
},
{
horizontal = 1;
place = "{603, -20}";
target = down;
type = TopGhost;
},
{
place = "{132, 44}";
type = Stem;
},
{
place = "{681, 40}";
type = Stem;
},
{
place = "{722, 36}";
type = Stem;
}
);
layerId = "0027A263-E542-4E44-90C9-E4382CD4DF90";
paths = (
{
closed = 1;
nodes = (
"696 471 OFFCURVE",
"624 461 OFFCURVE",
"617 429 CURVE SMOOTH",
"615 420 LINE",
"613 417 LINE",
"613 409 OFFCURVE",
"625 411 OFFCURVE",
"629 405 CURVE",
"629 402 LINE",
"625 398 OFFCURVE",
"618 397 OFFCURVE",
"613 396 CURVE SMOOTH",
"610 395 OFFCURVE",
"608 396 OFFCURVE",
"606 395 CURVE",
"603 390 OFFCURVE",
"603 386 OFFCURVE",
"609 384 CURVE",
"612 379 OFFCURVE",
"603 378 OFFCURVE",
"600 374 CURVE",
"598 366 LINE",
"593 351 LINE",
"593 350 LINE",
"597 337 OFFCURVE",
"588 327 OFFCURVE",
"578 319 CURVE",
"578 319 OFFCURVE",
"579 317 OFFCURVE",
"580 317 CURVE",
"580 315 OFFCURVE",
"581 313 OFFCURVE",
"579 311 CURVE",
"579 310 LINE",
"576 304 LINE",
"574 296 LINE SMOOTH",
"568 273 OFFCURVE",
"554 253 OFFCURVE",
"548 230 CURVE",
"548 228 OFFCURVE",
"547 226 OFFCURVE",
"546 224 CURVE",
"545 216 LINE",
"542 209 LINE",
"532 182 LINE",
"532 182 OFFCURVE",
"529 167 OFFCURVE",
"528 166 CURVE",
"528 165 LINE SMOOTH",
"528 156 OFFCURVE",
"526 147 OFFCURVE",
"522 139 CURVE SMOOTH",
"518 128 LINE",
"515 128 OFFCURVE",
"513 127 OFFCURVE",
"511 127 CURVE SMOOTH",
"508 127 OFFCURVE",
"500 122 OFFCURVE",
"497 122 CURVE SMOOTH",
"490 121 OFFCURVE",
"489 124 OFFCURVE",
"482 123 CURVE SMOOTH",
"474 121 OFFCURVE",
"464 121 OFFCURVE",
"456 120 CURVE SMOOTH",
"430 117 OFFCURVE",
"396 113 OFFCURVE",
"374 121 CURVE SMOOTH",
"343 132 OFFCURVE",
"339 141 OFFCURVE",
"304 144 CURVE SMOOTH",
"277 146 OFFCURVE",
"265 141 OFFCURVE",
"247 127 CURVE SMOOTH",
"239 121 OFFCURVE",
"239 111 OFFCURVE",
"239 105 CURVE SMOOTH",
"238 96 OFFCURVE",
"252 81 OFFCURVE",
"262 77 CURVE SMOOTH",
"265 76 OFFCURVE",
"276 75 OFFCURVE",
"290 77 CURVE SMOOTH",
"298 78 LINE",
"307 79 LINE SMOOTH",
"320 80 OFFCURVE",
"333 79 OFFCURVE",
"346 79 CURVE",
"349 80 OFFCURVE",
"353 80 OFFCURVE",
"358 78 CURVE SMOOTH",
"364 75 OFFCURVE",
"364 81 OFFCURVE",
"368 81 CURVE SMOOTH",
"374 80 OFFCURVE",
"374 80 OFFCURVE",
"381 76 CURVE",
"393 73 LINE",
"399 76 OFFCURVE",
"410 73 OFFCURVE",
"415 67 CURVE",
"416 67 LINE SMOOTH",
"417 67 OFFCURVE",
"418 66 OFFCURVE",
"420 65 CURVE",
"424 66 OFFCURVE",
"426 64 OFFCURVE",
"429 63 CURVE",
"428 64 OFFCURVE",
"428 66 OFFCURVE",
"429 67 CURVE",
"431 67 OFFCURVE",
"434 64 OFFCURVE",
"435 62 CURVE SMOOTH",
"436 60 OFFCURVE",
"437 58 OFFCURVE",
"439 58 CURVE SMOOTH",
"440 58 LINE SMOOTH",
"443 57 OFFCURVE",
"446 55 OFFCURVE",
"448 52 CURVE",
"454 51 OFFCURVE",
"458 48 OFFCURVE",
"461 42 CURVE",
"489 13 OFFCURVE",
"453 -21 OFFCURVE",
"491 -17 CURVE SMOOTH",
"507 -16 OFFCURVE",
"515 -3 OFFCURVE",
"516 6 CURVE SMOOTH",
"517 26 OFFCURVE",
"534 29 OFFCURVE",
"517 56 CURVE",
"517 68 LINE",
"518 74 OFFCURVE",
"516 75 OFFCURVE",
"517 81 CURVE",
"518 82 LINE",
"519 87 LINE SMOOTH",
"520 90 OFFCURVE",
"521 95 OFFCURVE",
"523 99 CURVE SMOOTH",
"526 108 LINE",
"526 111 OFFCURVE",
"527 118 OFFCURVE",
"529 124 CURVE",
"531 125 OFFCURVE",
"532 125 OFFCURVE",
"534 125 CURVE SMOOTH",
"549 127 OFFCURVE",
"564 131 OFFCURVE",
"574 132 CURVE",
"577 133 OFFCURVE",
"581 131 OFFCURVE",
"583 132 CURVE SMOOTH",
"586 134 OFFCURVE",
"585 139 OFFCURVE",
"585 139 CURVE",
"585 139 OFFCURVE",
"582 142 OFFCURVE",
"578 141 CURVE SMOOTH",
"576 141 OFFCURVE",
"573 137 OFFCURVE",
"569 137 CURVE SMOOTH",
"563 137 OFFCURVE",
"558 138 OFFCURVE",
"550 137 CURVE SMOOTH",
"547 137 OFFCURVE",
"540 134 OFFCURVE",
"532 132 CURVE",
"535 140 OFFCURVE",
"538 148 OFFCURVE",
"541 152 CURVE",
"542 152 OFFCURVE",
"542 160 OFFCURVE",
"542 160 CURVE",
"547 173 LINE SMOOTH",
"552 186 OFFCURVE",
"550 186 OFFCURVE",
"554 200 CURVE",
"554 202 OFFCURVE",
"564 212 OFFCURVE",
"564 215 CURVE SMOOTH",
"564 217 OFFCURVE",
"565 219 OFFCURVE",
"566 221 CURVE SMOOTH",
"567 222 OFFCURVE",
"567 224 OFFCURVE",
"567 226 CURVE SMOOTH",
"566 236 OFFCURVE",
"562 237 OFFCURVE",
"567 245 CURVE",
"567 246 OFFCURVE",
"575 244 OFFCURVE",
"575 244 CURVE",
"577 248 OFFCURVE",
"578 254 OFFCURVE",
"580 257 CURVE SMOOTH",
"584 263 OFFCURVE",
"582 261 OFFCURVE",
"586 268 CURVE SMOOTH",
"590 274 OFFCURVE",
"594 279 OFFCURVE",
"597 285 CURVE SMOOTH",
"601 293 LINE",
"620 324 LINE",
"621 328 OFFCURVE",
"626 328 OFFCURVE",
"627 331 CURVE SMOOTH",
"628 334 OFFCURVE",
"625 336 OFFCURVE",
"629 338 CURVE",
"630 346 OFFCURVE",
"626 352 OFFCURVE",
"628 360 CURVE",
"632 358 OFFCURVE",
"630 347 OFFCURVE",
"637 350 CURVE",
"642 358 OFFCURVE",
"651 373 OFFCURVE",
"654 382 CURVE SMOOTH",
"655 386 OFFCURVE",
"650 383 OFFCURVE",
"652 387 CURVE SMOOTH",
"653 389 OFFCURVE",
"657 389 OFFCURVE",
"659 392 CURVE SMOOTH",
"663 397 OFFCURVE",
"665 404 OFFCURVE",
"669 408 CURVE",
"686 448 LINE SMOOTH"
);
},
{
closed = 1;
nodes = (
"514 111 LINE SMOOTH",
"514 102 OFFCURVE",
"514 95 OFFCURVE",
"507 87 CURVE",
"507 86 LINE",
"505 85 OFFCURVE",
"503 75 OFFCURVE",
"502 72 CURVE",
"501 64 LINE",
"489 26 OFFCURVE",
"489 45 OFFCURVE",
"477 51 CURVE",
"476 51 OFFCURVE",
"467 53 OFFCURVE",
"463 60 CURVE",
"453 66 LINE SMOOTH",
"449 69 OFFCURVE",
"449 65 OFFCURVE",
"444 67 CURVE",
"439 73 LINE",
"434 74 OFFCURVE",
"432 72 OFFCURVE",
"427 75 CURVE SMOOTH",
"416 80 LINE SMOOTH",
"406 83 OFFCURVE",
"384 84 OFFCURVE",
"374 88 CURVE SMOOTH",
"370 89 OFFCURVE",
"367 91 OFFCURVE",
"364 92 CURVE",
"363 93 LINE",
"356 93 LINE",
"332 96 LINE",
"320 92 OFFCURVE",
"320 108 OFFCURVE",
"331 104 CURVE",
"337 105 OFFCURVE",
"343 105 OFFCURVE",
"349 107 CURVE",
"353 107 OFFCURVE",
"359 105 OFFCURVE",
"364 104 CURVE SMOOTH",
"369 104 OFFCURVE",
"372 106 OFFCURVE",
"377 106 CURVE SMOOTH",
"379 106 OFFCURVE",
"381 109 OFFCURVE",
"383 109 CURVE",
"383 109 OFFCURVE",
"390 112 OFFCURVE",
"391 107 CURVE SMOOTH",
"391 106 OFFCURVE",
"392 104 OFFCURVE",
"394 103 CURVE SMOOTH",
"397 102 OFFCURVE",
"403 103 OFFCURVE",
"407 103 CURVE SMOOTH",
"428 104 OFFCURVE",
"458 111 OFFCURVE",
"482 114 CURVE SMOOTH",
"496 115 OFFCURVE",
"509 120 OFFCURVE",
"516 122 CURVE",
"514 115 LINE"
);
},
{
closed = 1;
nodes = (
"414 401 OFFCURVE",
"414 408 OFFCURVE",
"413 409 CURVE SMOOTH",
"410 414 OFFCURVE",
"409 419 OFFCURVE",
"404 422 CURVE SMOOTH",
"397 427 OFFCURVE",
"393 426 OFFCURVE",
"391 434 CURVE",
"377 441 LINE SMOOTH",
"370 444 OFFCURVE",
"364 444 OFFCURVE",
"355 446 CURVE",
"345 450 OFFCURVE",
"334 454 OFFCURVE",
"325 456 CURVE",
"323 455 OFFCURVE",
"321 455 OFFCURVE",
"319 455 CURVE",
"302 478 OFFCURVE",
"274 494 OFFCURVE",
"234 500 CURVE",
"228 505 OFFCURVE",
"217 502 OFFCURVE",
"209 502 CURVE",
"202 508 OFFCURVE",
"197 504 OFFCURVE",
"190 501 CURVE",
"187 501 LINE",
"185 502 OFFCURVE",
"183 502 OFFCURVE",
"181 502 CURVE",
"180 501 LINE",
"169 498 OFFCURVE",
"168 497 OFFCURVE",
"156 498 CURVE SMOOTH",
"152 499 OFFCURVE",
"146 496 OFFCURVE",
"142 495 CURVE SMOOTH",
"106 485 OFFCURVE",
"72 473 OFFCURVE",
"43 450 CURVE SMOOTH",
"26 437 OFFCURVE",
"40 413 OFFCURVE",
"60 420 CURVE SMOOTH",
"65 422 OFFCURVE",
"73 423 OFFCURVE",
"77 426 CURVE SMOOTH",
"84 431 LINE SMOOTH",
"98 441 OFFCURVE",
"153 454 OFFCURVE",
"179 450 CURVE",
"206 453 LINE",
"222 459 OFFCURVE",
"244 458 OFFCURVE",
"254 455 CURVE SMOOTH",
"256 454 OFFCURVE",
"291 449 OFFCURVE",
"299 448 CURVE SMOOTH",
"302 448 OFFCURVE",
"306 447 OFFCURVE",
"310 447 CURVE",
"320 434 OFFCURVE",
"325 417 OFFCURVE",
"324 394 CURVE SMOOTH",
"320 332 OFFCURVE",
"280 260 OFFCURVE",
"248 205 CURVE",
"248 204 LINE",
"247 202 OFFCURVE",
"248 200 OFFCURVE",
"247 198 CURVE SMOOTH",
"243 189 OFFCURVE",
"233 181 OFFCURVE",
"227 173 CURVE",
"225 163 OFFCURVE",
"221 151 OFFCURVE",
"212 145 CURVE",
"210 141 LINE",
"211 137 OFFCURVE",
"203 142 OFFCURVE",
"207 135 CURVE",
"203 120 OFFCURVE",
"189 110 OFFCURVE",
"186 102 CURVE SMOOTH",
"184 96 OFFCURVE",
"184 89 OFFCURVE",
"176 86 CURVE",
"171 77 OFFCURVE",
"131 4 OFFCURVE",
"128 2 CURVE",
"125 -2 OFFCURVE",
"119 -4 OFFCURVE",
"115 -10 CURVE SMOOTH",
"109 -20 OFFCURVE",
"101 -33 OFFCURVE",
"98 -40 CURVE SMOOTH",
"93 -51 OFFCURVE",
"95 -60 OFFCURVE",
"105 -72 CURVE SMOOTH",
"108 -75 OFFCURVE",
"117 -78 OFFCURVE",
"122 -78 CURVE",
"124 -77 OFFCURVE",
"125 -75 OFFCURVE",
"126 -75 CURVE",
"134 -71 LINE",
"141 -65 OFFCURVE",
"147 -54 OFFCURVE",
"151 -48 CURVE SMOOTH",
"162 -31 OFFCURVE",
"183 -15 OFFCURVE",
"176 11 CURVE",
"181 19 OFFCURVE",
"205 63 OFFCURVE",
"206 67 CURVE SMOOTH",
"207 73 OFFCURVE",
"207 79 OFFCURVE",
"212 84 CURVE SMOOTH",
"226 99 OFFCURVE",
"248 145 OFFCURVE",
"257 165 CURVE",
"257 173 OFFCURVE",
"253 180 OFFCURVE",
"265 179 CURVE",
"270 188 OFFCURVE",
"264 189 OFFCURVE",
"260 193 CURVE",
"266 196 OFFCURVE",
"267 194 OFFCURVE",
"273 196 CURVE",
"284 218 OFFCURVE",
"304 253 OFFCURVE",
"310 276 CURVE",
"306 286 OFFCURVE",
"304 291 OFFCURVE",
"316 295 CURVE",
"317 299 OFFCURVE",
"319 302 OFFCURVE",
"322 305 CURVE",
"326 317 LINE",
"325 324 OFFCURVE",
"325 331 OFFCURVE",
"331 335 CURVE",
"332 339 OFFCURVE",
"333 342 OFFCURVE",
"333 346 CURVE",
"331 354 OFFCURVE",
"329 360 OFFCURVE",
"337 365 CURVE",
"341 393 OFFCURVE",
"338 420 OFFCURVE",
"327 443 CURVE",
"330 442 OFFCURVE",
"333 441 OFFCURVE",
"336 441 CURVE",
"337 440 OFFCURVE",
"352 436 OFFCURVE",
"354 436 CURVE",
"386 428 OFFCURVE",
"387 421 OFFCURVE",
"400 400 CURVE SMOOTH",
"407 388 OFFCURVE",
"413 391 OFFCURVE",
"414 400 CURVE SMOOTH"
);
},
{
closed = 1;
nodes = (
"279 461 OFFCURVE",
"266 469 OFFCURVE",
"253 469 CURVE SMOOTH",
"217 469 LINE SMOOTH",
"212 469 OFFCURVE",
"198 467 OFFCURVE",
"186 467 CURVE SMOOTH",
"179 467 OFFCURVE",
"172 462 OFFCURVE",
"170 462 CURVE SMOOTH",
"161 463 OFFCURVE",
"154 464 OFFCURVE",
"144 462 CURVE SMOOTH",
"132 460 OFFCURVE",
"116 456 OFFCURVE",
"101 454 CURVE SMOOTH",
"91 452 OFFCURVE",
"83 453 OFFCURVE",
"74 453 CURVE",
"140 485 OFFCURVE",
"209 492 OFFCURVE",
"257 477 CURVE SMOOTH",
"270 473 OFFCURVE",
"282 468 OFFCURVE",
"292 462 CURVE SMOOTH",
"290 463 OFFCURVE",
"289 463 OFFCURVE",
"288 463 CURVE SMOOTH"
);
}
);
width = 601;
}
);
note = H;
unicode = 0048;
},
{
glyphname = I;
lastChange = "2021-09-14 05:10:54 +0000";
layers = (
{
hints = (
{
horizontal = 1;
place = "{178, 29}";
type = Stem;
},
{
place = "{110, 34}";
type = Stem;
},
{
place = "{482, 51}";
type = Stem;
}
);
layerId = "0027A263-E542-4E44-90C9-E4382CD4DF90";
paths = (
{
closed = 1;
nodes = (
"185 308 OFFCURVE",
"182 311 OFFCURVE",
"179 316 CURVE SMOOTH",
"174 322 OFFCURVE",
"174 332 OFFCURVE",
"175 341 CURVE",
"169 351 OFFCURVE",
"192 393 OFFCURVE",
"209 406 CURVE",
"210 406 OFFCURVE",
"240 428 OFFCURVE",
"255 429 CURVE",
"264 432 OFFCURVE",
"273 434 OFFCURVE",
"283 436 CURVE",
"285 437 OFFCURVE",
"289 438 OFFCURVE",
"294 439 CURVE SMOOTH",
"339 443 OFFCURVE",
"391 442 OFFCURVE",
"408 445 CURVE",
"391 422 LINE",
"389 414 OFFCURVE",
"385 409 OFFCURVE",
"380 404 CURVE",
"381 403 OFFCURVE",
"379 401 OFFCURVE",
"380 400 CURVE",
"377 396 OFFCURVE",
"373 394 OFFCURVE",
"369 390 CURVE",
"369 389 LINE",
"349 360 OFFCURVE",
"320 322 OFFCURVE",
"300 286 CURVE",
"296 281 OFFCURVE",
"303 281 OFFCURVE",
"300 277 CURVE SMOOTH",
"297 271 OFFCURVE",
"290 272 OFFCURVE",
"287 263 CURVE",
"272 236 LINE SMOOTH",
"228 160 OFFCURVE",
"182 82 OFFCURVE",
"161 31 CURVE SMOOTH",
"160 29 OFFCURVE",
"161 29 OFFCURVE",
"161 27 CURVE",
"160 26 OFFCURVE",
"157 23 OFFCURVE",
"157 22 CURVE SMOOTH",
"157 21 OFFCURVE",
"157 19 OFFCURVE",
"158 18 CURVE",
"147 17 LINE",
"106 13 LINE",
"91 7 OFFCURVE",
"70 8 OFFCURVE",
"58 5 CURVE SMOOTH",
"47 3 OFFCURVE",
"38 2 OFFCURVE",
"31 0 CURVE",
"29 0 OFFCURVE",
"28 0 OFFCURVE",
"27 -1 CURVE SMOOTH",
"24 -4 OFFCURVE",
"20 -11 OFFCURVE",
"19 -18 CURVE SMOOTH",
"17 -28 OFFCURVE",
"20 -37 OFFCURVE",
"25 -36 CURVE SMOOTH",
"37 -34 OFFCURVE",
"54 -31 OFFCURVE",
"71 -27 CURVE",
"73 -26 OFFCURVE",
"102 -20 OFFCURVE",
"103 -15 CURVE SMOOTH",
"104 -12 OFFCURVE",
"117 -6 OFFCURVE",
"126 -7 CURVE",
"136 -6 OFFCURVE",
"113 -16 OFFCURVE",
"136 -12 CURVE SMOOTH",
"151 -9 LINE",
"154 -17 LINE",
"155 -23 OFFCURVE",
"184 -38 OFFCURVE",
"198 -11 CURVE",
"198 -9 OFFCURVE",
"203 -4 OFFCURVE",
"203 -2 CURVE",
"204 0 OFFCURVE",
"204 0 OFFCURVE",
"203 1 CURVE",
"250 6 LINE",
"258 9 LINE",
"260 9 OFFCURVE",
"267 13 OFFCURVE",
"268 13 CURVE SMOOTH",
"271 13 OFFCURVE",
"267 8 OFFCURVE",
"271 8 CURVE SMOOTH",
"291 9 OFFCURVE",
"316 8 OFFCURVE",
"332 7 CURVE SMOOTH",
"338 7 OFFCURVE",
"338 8 OFFCURVE",
"343 7 CURVE SMOOTH",
"352 4 LINE SMOOTH",
"363 0 OFFCURVE",
"365 13 OFFCURVE",
"354 16 CURVE SMOOTH",
"350 17 OFFCURVE",
"345 19 OFFCURVE",
"340 19 CURVE",
"339 20 OFFCURVE",
"333 21 OFFCURVE",
"331 20 CURVE",
"326 20 OFFCURVE",
"324 18 OFFCURVE",
"320 18 CURVE",
"317 19 OFFCURVE",
"322 21 OFFCURVE",
"318 22 CURVE SMOOTH",
"313 23 OFFCURVE",
"299 24 OFFCURVE",
"292 24 CURVE SMOOTH",
"280 24 OFFCURVE",
"256 24 OFFCURVE",
"240 23 CURVE SMOOTH",
"230 22 OFFCURVE",
"221 20 OFFCURVE",
"213 20 CURVE SMOOTH",
"212 20 LINE",
"216 31 OFFCURVE",
"220 46 OFFCURVE",
"223 59 CURVE",
"224 61 OFFCURVE",
"220 60 OFFCURVE",
"221 62 CURVE SMOOTH",
"222 64 OFFCURVE",
"227 71 OFFCURVE",
"227 73 CURVE",
"234 92 OFFCURVE",
"244 113 OFFCURVE",
"255 136 CURVE",
"262 145 OFFCURVE",
"258 145 OFFCURVE",
"256 152 CURVE SMOOTH",
"252 165 OFFCURVE",
"267 159 OFFCURVE",
"270 163 CURVE",
"273 178 LINE",
"279 191 OFFCURVE",
"305 244 OFFCURVE",
"327 284 CURVE",
"331 295 OFFCURVE",
"339 306 OFFCURVE",
"346 318 CURVE SMOOTH",
"357 337 LINE SMOOTH",
"359 341 OFFCURVE",
"360 348 OFFCURVE",
"359 350 CURVE",
"367 352 OFFCURVE",
"370 353 OFFCURVE",
"373 364 CURVE",
"392 394 OFFCURVE",
"411 425 OFFCURVE",
"429 448 CURVE",
"430 448 LINE",
"446 449 LINE SMOOTH",
"454 449 OFFCURVE",
"462 448 OFFCURVE",
"470 448 CURVE SMOOTH",
"471 448 OFFCURVE",
"472 449 OFFCURVE",
"474 449 CURVE SMOOTH",
"486 449 LINE",
"487 449 LINE SMOOTH",
"503 449 OFFCURVE",
"525 447 OFFCURVE",
"537 446 CURVE SMOOTH",
"547 445 LINE",
"555 442 LINE SMOOTH",
"563 439 OFFCURVE",
"565 450 OFFCURVE",
"557 454 CURVE SMOOTH",
"554 455 LINE",
"549 458 OFFCURVE",
"537 462 OFFCURVE",
"534 462 CURVE SMOOTH",
"520 464 OFFCURVE",
"470 466 OFFCURVE",
"454 466 CURVE",
"457 470 OFFCURVE",
"460 474 OFFCURVE",
"464 478 CURVE SMOOTH",
"475 490 OFFCURVE",
"462 492 OFFCURVE",
"452 486 CURVE SMOOTH",
"437 476 LINE",
"435 474 OFFCURVE",
"433 473 OFFCURVE",
"431 471 CURVE SMOOTH",
"425 465 LINE",
"419 465 OFFCURVE",
"412 464 OFFCURVE",
"405 464 CURVE SMOOTH",
"394 464 OFFCURVE",
"382 464 OFFCURVE",
"371 462 CURVE",
"363 462 LINE",
"362 464 OFFCURVE",
"354 463 OFFCURVE",
"351 462 CURVE SMOOTH",
"349 461 LINE",
"343 461 LINE",
"340 460 OFFCURVE",
"337 459 OFFCURVE",
"335 459 CURVE SMOOTH",
"326 458 OFFCURVE",
"317 458 OFFCURVE",
"306 455 CURVE SMOOTH",
"290 451 OFFCURVE",
"275 445 OFFCURVE",
"259 441 CURVE SMOOTH",
"245 438 OFFCURVE",
"236 432 OFFCURVE",
"222 426 CURVE SMOOTH",
"215 423 OFFCURVE",
"206 418 OFFCURVE",
"203 415 CURVE",
"203 415 OFFCURVE",
"194 408 OFFCURVE",
"199 409 CURVE SMOOTH",
"201 409 OFFCURVE",
"205 410 OFFCURVE",
"205 409 CURVE",
"203 407 OFFCURVE",
"198 403 OFFCURVE",
"196 402 CURVE SMOOTH",
"194 401 OFFCURVE",
"190 403 OFFCURVE",
"189 404 CURVE",
"184 404 OFFCURVE",
"179 397 OFFCURVE",
"174 392 CURVE SMOOTH",
"166 384 OFFCURVE",
"159 376 OFFCURVE",
"153 368 CURVE SMOOTH",
"132 340 OFFCURVE",
"124 292 OFFCURVE",
"165 299 CURVE",
"171 297 OFFCURVE",
"177 295 OFFCURVE",
"182 292 CURVE",
"186 288 OFFCURVE",
"191 285 OFFCURVE",
"194 285 CURVE SMOOTH",
"203 285 OFFCURVE",
"203 293 OFFCURVE",
"196 297 CURVE SMOOTH",
"194 298 OFFCURVE",
"191 299 OFFCURVE",
"188 300 CURVE",
"183 306 LINE"
);
}
);
width = 341;
}
);
note = I;
unicode = 0049;
},
{
glyphname = IJ;
lastChange = "2021-09-14 05:10:54 +0000";
layers = (
{
hints = (
{
horizontal = 1;
place = "{178, 29}";
type = Stem;
},
{
horizontal = 1;
place = "{671, 34}";
type = Stem;
},
{
place = "{118, 34}";
type = Stem;
},
{
place = "{490, 51}";
type = Stem;
},
{
place = "{699, 29}";
type = Stem;
}
);
layerId = "0027A263-E542-4E44-90C9-E4382CD4DF90";
paths = (
{
closed = 1;
nodes = (
"480 457 LINE",
"479 458 OFFCURVE",
"474 459 OFFCURVE",
"472 459 CURVE SMOOTH",
"468 459 OFFCURVE",
"467 456 OFFCURVE",
"463 457 CURVE SMOOTH",
"461 458 OFFCURVE",
"464 460 OFFCURVE",
"462 461 CURVE",
"439 464 LINE",
"429 464 OFFCURVE",
"408 466 OFFCURVE",
"396 465 CURVE SMOOTH",
"387 465 OFFCURVE",
"387 463 OFFCURVE",
"379 463 CURVE SMOOTH",
"376 463 LINE",
"379 467 LINE SMOOTH",
"388 480 OFFCURVE",
"375 483 OFFCURVE",
"364 471 CURVE SMOOTH",
"362 469 OFFCURVE",
"360 467 OFFCURVE",
"359 465 CURVE",
"345 464 OFFCURVE",
"329 464 OFFCURVE",
"317 463 CURVE SMOOTH",
"277 461 LINE",
"263 456 OFFCURVE",
"243 458 OFFCURVE",
"232 455 CURVE",
"206 452 LINE",
"205 452 LINE SMOOTH",
"204 452 OFFCURVE",
"203 452 OFFCURVE",
"203 451 CURVE",
"200 448 OFFCURVE",
"197 442 OFFCURVE",
"196 435 CURVE SMOOTH",
"195 426 OFFCURVE",
"199 416 OFFCURVE",
"204 417 CURVE SMOOTH",
"216 418 OFFCURVE",
"231 421 OFFCURVE",
"248 424 CURVE SMOOTH",
"250 424 OFFCURVE",
"277 429 OFFCURVE",
"278 434 CURVE SMOOTH",
"278 437 OFFCURVE",
"289 442 OFFCURVE",
"299 441 CURVE SMOOTH",
"308 441 OFFCURVE",
"287 431 OFFCURVE",
"309 435 CURVE SMOOTH",
"343 441 LINE",
"332 422 LINE",
"331 414 OFFCURVE",
"328 409 OFFCURVE",
"323 404 CURVE",
"325 403 OFFCURVE",
"323 401 OFFCURVE",
"324 400 CURVE",
"322 396 OFFCURVE",
"318 394 OFFCURVE",
"315 390 CURVE",
"315 389 LINE",
"300 360 OFFCURVE",
"277 322 OFFCURVE",
"262 286 CURVE",
"259 281 OFFCURVE",
"266 281 OFFCURVE",
"264 277 CURVE SMOOTH",
"262 271 OFFCURVE",
"255 272 OFFCURVE",
"253 263 CURVE",
"242 236 LINE SMOOTH",
"211 160 OFFCURVE",
"177 82 OFFCURVE",
"164 31 CURVE",
"164 29 OFFCURVE",
"165 29 OFFCURVE",
"165 27 CURVE",
"164 26 OFFCURVE",
"162 23 OFFCURVE",
"162 22 CURVE SMOOTH",
"162 21 OFFCURVE",
"162 19 OFFCURVE",
"163 18 CURVE",
"153 17 LINE",
"112 13 LINE",
"98 7 OFFCURVE",
"77 8 OFFCURVE",
"66 5 CURVE SMOOTH",
"55 3 OFFCURVE",
"46 2 OFFCURVE",
"39 0 CURVE",
"37 0 OFFCURVE",
"36 0 OFFCURVE",
"36 -1 CURVE",
"33 -4 OFFCURVE",
"30 -11 OFFCURVE",
"30 -18 CURVE SMOOTH",
"30 -28 OFFCURVE",
"34 -37 OFFCURVE",
"39 -36 CURVE SMOOTH",
"51 -34 OFFCURVE",
"67 -31 OFFCURVE",
"84 -27 CURVE",
"86 -26 OFFCURVE",
"114 -20 OFFCURVE",
"114 -15 CURVE SMOOTH",
"114 -12 OFFCURVE",
"126 -6 OFFCURVE",
"136 -7 CURVE",
"145 -6 OFFCURVE",
"124 -16 OFFCURVE",
"146 -12 CURVE SMOOTH",
"161 -9 LINE",
"165 -17 LINE SMOOTH",
"167 -23 OFFCURVE",
"198 -38 OFFCURVE",
"208 -11 CURVE",
"208 -9 OFFCURVE",
"212 -4 OFFCURVE",
"212 -2 CURVE SMOOTH",
"212 0 OFFCURVE",
"212 0 OFFCURVE",
"211 1 CURVE",
"246 6 LINE",
"253 9 LINE",
"254 9 OFFCURVE",
"260 13 OFFCURVE",
"261 13 CURVE SMOOTH",
"263 13 OFFCURVE",
"261 8 OFFCURVE",
"264 8 CURVE SMOOTH",
"281 9 OFFCURVE",
"303 8 OFFCURVE",
"317 7 CURVE SMOOTH",
"323 7 OFFCURVE",
"322 8 OFFCURVE",
"327 7 CURVE SMOOTH",
"335 4 LINE SMOOTH",
"345 0 OFFCURVE",
"345 13 OFFCURVE",
"335 16 CURVE SMOOTH",
"331 17 OFFCURVE",
"327 19 OFFCURVE",
"322 19 CURVE",
"321 20 OFFCURVE",
"316 21 OFFCURVE",
"314 20 CURVE",
"310 20 OFFCURVE",
"309 18 OFFCURVE",
"305 18 CURVE",
"302 19 OFFCURVE",
"306 21 OFFCURVE",
"303 22 CURVE SMOOTH",
"298 23 OFFCURVE",
"286 24 OFFCURVE",
"280 24 CURVE SMOOTH",
"269 24 OFFCURVE",
"248 24 OFFCURVE",
"235 23 CURVE SMOOTH",
"226 22 OFFCURVE",
"226 20 OFFCURVE",
"218 20 CURVE SMOOTH",
"217 20 LINE",
"219 31 OFFCURVE",
"221 46 OFFCURVE",
"222 59 CURVE SMOOTH",
"222 61 OFFCURVE",
"219 60 OFFCURVE",
"219 62 CURVE",
"220 64 OFFCURVE",
"224 71 OFFCURVE",
"224 73 CURVE",
"228 92 OFFCURVE",
"234 113 OFFCURVE",
"242 136 CURVE",
"247 145 OFFCURVE",
"244 145 OFFCURVE",
"240 152 CURVE SMOOTH",
"234 165 OFFCURVE",
"250 159 OFFCURVE",
"252 163 CURVE",
"253 178 LINE",
"257 191 OFFCURVE",
"274 244 OFFCURVE",
"290 284 CURVE",
"292 295 OFFCURVE",
"298 306 OFFCURVE",
"303 318 CURVE SMOOTH",
"311 337 LINE SMOOTH",
"313 341 OFFCURVE",
"312 348 OFFCURVE",
"311 350 CURVE",
"319 352 OFFCURVE",
"322 353 OFFCURVE",
"323 364 CURVE",
"337 394 OFFCURVE",
"351 421 OFFCURVE",
"365 444 CURVE",
"379 446 OFFCURVE",
"393 447 OFFCURVE",
"406 448 CURVE SMOOTH",
"409 448 OFFCURVE",
"410 450 OFFCURVE",
"413 450 CURVE SMOOTH",
"414 450 OFFCURVE",
"420 455 OFFCURVE",
"420 454 CURVE",
"423 454 OFFCURVE",
"420 449 OFFCURVE",
"423 449 CURVE SMOOTH",
"439 449 OFFCURVE",
"461 447 OFFCURVE",
"474 446 CURVE SMOOTH",
"484 445 LINE",
"492 442 LINE SMOOTH",
"501 439 OFFCURVE",
"501 450 OFFCURVE",
"492 454 CURVE"
);
},
{
closed = 1;
nodes = (
"166 20 OFFCURVE",
"169 25 OFFCURVE",
"170 25 CURVE SMOOTH",
"173 25 OFFCURVE",
"174 21 OFFCURVE",
"174 20 CURVE SMOOTH",
"174 19 LINE",
"171 19 OFFCURVE",
"168 19 OFFCURVE",
"165 18 CURVE"
);
},
{
closed = 1;
nodes = (
"792 457 LINE",
"791 458 OFFCURVE",
"786 459 OFFCURVE",
"784 459 CURVE SMOOTH",
"780 459 OFFCURVE",
"779 456 OFFCURVE",
"775 457 CURVE SMOOTH",
"773 458 OFFCURVE",
"776 460 OFFCURVE",
"774 461 CURVE",
"772 461 OFFCURVE",
"769 462 OFFCURVE",
"766 462 CURVE",
"765 465 OFFCURVE",
"764 467 OFFCURVE",
"764 469 CURVE",
"763 470 OFFCURVE",
"764 473 OFFCURVE",
"763 474 CURVE SMOOTH",
"760 479 OFFCURVE",
"752 483 OFFCURVE",
"747 483 CURVE SMOOTH",
"732 484 OFFCURVE",
"724 479 OFFCURVE",
"719 468 CURVE SMOOTH",
"717 465 LINE",
"708 465 LINE SMOOTH",
"699 465 OFFCURVE",
"699 463 OFFCURVE",
"691 463 CURVE SMOOTH",
"685 463 OFFCURVE",
"690 465 OFFCURVE",
"684 465 CURVE SMOOTH",
"669 465 OFFCURVE",
"645 464 OFFCURVE",
"629 463 CURVE SMOOTH",
"589 461 LINE",
"575 456 OFFCURVE",
"555 458 OFFCURVE",
"544 455 CURVE",
"518 452 LINE",
"517 452 LINE SMOOTH",
"516 452 OFFCURVE",
"515 452 OFFCURVE",
"515 451 CURVE",
"512 448 OFFCURVE",
"509 442 OFFCURVE",
"508 435 CURVE SMOOTH",
"507 426 OFFCURVE",
"511 416 OFFCURVE",
"516 417 CURVE SMOOTH",
"528 418 OFFCURVE",
"543 421 OFFCURVE",
"560 424 CURVE SMOOTH",
"562 424 OFFCURVE",
"589 429 OFFCURVE",
"590 434 CURVE SMOOTH",
"590 437 OFFCURVE",
"601 442 OFFCURVE",
"611 441 CURVE SMOOTH",
"620 441 OFFCURVE",
"599 431 OFFCURVE",
"621 435 CURVE SMOOTH",
"649 440 OFFCURVE",
"681 445 OFFCURVE",
"710 447 CURVE",
"707 436 LINE SMOOTH",
"705 429 OFFCURVE",
"707 423 OFFCURVE",
"706 418 CURVE SMOOTH",
"706 415 OFFCURVE",
"676 337 OFFCURVE",
"673 327 CURVE",
"676 319 OFFCURVE",
"671 314 OFFCURVE",
"667 309 CURVE SMOOTH",
"663 302 OFFCURVE",
"664 285 OFFCURVE",
"656 272 CURVE",
"648 270 OFFCURVE",
"657 267 OFFCURVE",
"653 266 CURVE",
"652 262 LINE",
"653 251 OFFCURVE",
"646 240 OFFCURVE",
"640 232 CURVE",
"638 222 OFFCURVE",
"638 209 OFFCURVE",
"634 201 CURVE",
"630 196 LINE",
"608 135 OFFCURVE",
"580 57 OFFCURVE",
"535 15 CURVE SMOOTH",
"518 -2 OFFCURVE",
"501 -9 OFFCURVE",
"485 -9 CURVE",
"476 -1 LINE",
"443 29 LINE",
"434 35 OFFCURVE",
"419 51 OFFCURVE",
"413 67 CURVE",
"398 89 LINE",
"378 107 OFFCURVE",
"353 157 OFFCURVE",
"351 174 CURVE SMOOTH",
"350 183 LINE SMOOTH",
"350 188 OFFCURVE",
"345 195 OFFCURVE",
"343 199 CURVE SMOOTH",
"336 219 OFFCURVE",
"309 215 OFFCURVE",
"310 193 CURVE SMOOTH",
"311 155 OFFCURVE",
"324 122 OFFCURVE",
"340 88 CURVE",
"342 85 OFFCURVE",
"343 78 OFFCURVE",
"346 75 CURVE SMOOTH",
"355 67 OFFCURVE",
"354 66 OFFCURVE",
"359 55 CURVE",
"359 54 LINE",
"364 50 LINE",
"364 50 OFFCURVE",
"365 48 OFFCURVE",
"366 48 CURVE",
"368 40 OFFCURVE",
"369 34 OFFCURVE",
"378 33 CURVE",
"383 27 OFFCURVE",
"388 16 OFFCURVE",
"396 15 CURVE",
"426 -12 OFFCURVE",
"457 -23 OFFCURVE",
"485 -21 CURVE",
"488 -25 LINE",
"495 -31 OFFCURVE",
"506 -36 OFFCURVE",
"515 -43 CURVE SMOOTH",
"533 -56 LINE SMOOTH",
"537 -59 OFFCURVE",
"544 -61 OFFCURVE",
"548 -62 CURVE",
"555 -58 OFFCURVE",
"557 -62 OFFCURVE",
"564 -64 CURVE SMOOTH",
"570 -66 OFFCURVE",
"575 -63 OFFCURVE",
"581 -63 CURVE SMOOTH",
"582 -63 OFFCURVE",
"587 -58 OFFCURVE",
"588 -57 CURVE SMOOTH",
"594 -51 OFFCURVE",
"593 -45 OFFCURVE",
"579 -47 CURVE SMOOTH",
"554 -51 OFFCURVE",
"549 -54 OFFCURVE",
"522 -35 CURVE",
"520 -33 OFFCURVE",
"508 -25 OFFCURVE",
"506 -25 CURVE",
"498 -19 LINE",
"523 -13 OFFCURVE",
"545 2 OFFCURVE",
"564 24 CURVE",
"564 33 OFFCURVE",
"570 36 OFFCURVE",
"577 39 CURVE",
"583 48 LINE",
"583 56 OFFCURVE",
"588 60 OFFCURVE",
"594 64 CURVE",
"601 75 LINE",
"601 78 OFFCURVE",
"603 82 OFFCURVE",
"605 85 CURVE",
"600 97 OFFCURVE",
"605 99 OFFCURVE",
"615 103 CURVE",
"629 122 OFFCURVE",
"643 159 OFFCURVE",
"652 182 CURVE",
"650 188 OFFCURVE",
"648 188 OFFCURVE",
"646 194 CURVE",
"652 193 OFFCURVE",
"656 190 OFFCURVE",
"660 199 CURVE",
"652 208 OFFCURVE",
"659 209 OFFCURVE",
"666 214 CURVE",
"675 234 OFFCURVE",
"696 281 OFFCURVE",
"698 301 CURVE SMOOTH",
"699 308 OFFCURVE",
"703 312 OFFCURVE",
"707 317 CURVE SMOOTH",
"710 320 OFFCURVE",
"728 367 OFFCURVE",
"731 375 CURVE",
"755 387 OFFCURVE",
"752 413 OFFCURVE",
"759 433 CURVE SMOOTH",
"764 448 LINE",
"772 448 OFFCURVE",
"780 447 OFFCURVE",
"786 446 CURVE SMOOTH",
"796 445 LINE",
"804 442 LINE SMOOTH",
"813 439 OFFCURVE",
"813 450 OFFCURVE",
"804 454 CURVE"
);
},
{
closed = 1;
nodes = (
"385 39 OFFCURVE",
"345 97 OFFCURVE",
"326 168 CURVE",
"344 146 LINE SMOOTH",
"354 134 OFFCURVE",
"360 119 OFFCURVE",
"366 109 CURVE SMOOTH",
"371 99 OFFCURVE",
"377 95 OFFCURVE",
"382 88 CURVE",
"384 87 OFFCURVE",
"384 78 OFFCURVE",
"389 73 CURVE SMOOTH",
"397 64 OFFCURVE",
"405 52 OFFCURVE",
"408 48 CURVE SMOOTH",
"415 41 OFFCURVE",
"422 30 OFFCURVE",
"431 21 CURVE SMOOTH",
"440 11 OFFCURVE",
"454 6 OFFCURVE",
"458 -2 CURVE",
"461 -4 LINE",
"450 -1 OFFCURVE",
"439 5 OFFCURVE",
"427 13 CURVE SMOOTH"
);
}
);
width = 698;
}
);
note = IJ;
unicode = 0132;
},
{
glyphname = J;
layers = (
{
hints = (
{
horizontal = 1;
place = "{671, 34}";
type = Stem;
},
{
place = "{387, 29}";
type = Stem;
}
);
layerId = "0027A263-E542-4E44-90C9-E4382CD4DF90";
paths = (
{
closed = 1;
nodes = (
"480 457 LINE",
"479 458 OFFCURVE",
"474 459 OFFCURVE",
"472 459 CURVE SMOOTH",
"468 459 OFFCURVE",
"467 456 OFFCURVE",
"463 457 CURVE SMOOTH",
"461 458 OFFCURVE",
"464 460 OFFCURVE",
"462 461 CURVE",
"460 461 OFFCURVE",
"457 462 OFFCURVE",
"454 462 CURVE",
"453 465 OFFCURVE",
"452 467 OFFCURVE",
"452 469 CURVE",
"451 470 OFFCURVE",
"452 473 OFFCURVE",
"451 474 CURVE SMOOTH",
"448 479 OFFCURVE",
"440 483 OFFCURVE",
"435 483 CURVE SMOOTH",
"420 484 OFFCURVE",
"412 479 OFFCURVE",
"407 468 CURVE SMOOTH",
"405 465 LINE",
"396 465 LINE SMOOTH",
"387 465 OFFCURVE",
"387 463 OFFCURVE",
"379 463 CURVE SMOOTH",
"373 463 OFFCURVE",
"378 465 OFFCURVE",
"372 465 CURVE SMOOTH",
"357 465 OFFCURVE",
"333 464 OFFCURVE",
"317 463 CURVE SMOOTH",
"277 461 LINE",
"263 456 OFFCURVE",
"243 458 OFFCURVE",
"232 455 CURVE",
"206 452 LINE",
"205 452 LINE SMOOTH",
"204 452 OFFCURVE",
"203 452 OFFCURVE",
"203 451 CURVE",
"200 448 OFFCURVE",
"197 442 OFFCURVE",
"196 435 CURVE SMOOTH",
"195 426 OFFCURVE",
"199 416 OFFCURVE",
"204 417 CURVE SMOOTH",
"216 418 OFFCURVE",
"231 421 OFFCURVE",
"248 424 CURVE SMOOTH",
"250 424 OFFCURVE",
"277 429 OFFCURVE",
"278 434 CURVE SMOOTH",
"278 437 OFFCURVE",
"289 442 OFFCURVE",
"299 441 CURVE SMOOTH",
"308 441 OFFCURVE",
"287 431 OFFCURVE",
"309 435 CURVE SMOOTH",
"337 440 OFFCURVE",
"369 445 OFFCURVE",
"398 447 CURVE",
"395 436 LINE SMOOTH",
"393 429 OFFCURVE",
"395 423 OFFCURVE",
"394 418 CURVE SMOOTH",
"394 415 OFFCURVE",
"364 337 OFFCURVE",
"361 327 CURVE",
"364 319 OFFCURVE",
"359 314 OFFCURVE",
"355 309 CURVE SMOOTH",
"351 302 OFFCURVE",
"352 285 OFFCURVE",
"344 272 CURVE",
"336 270 OFFCURVE",
"345 267 OFFCURVE",
"341 266 CURVE",
"340 262 LINE",
"341 251 OFFCURVE",
"334 240 OFFCURVE",
"328 232 CURVE",
"326 222 OFFCURVE",
"326 209 OFFCURVE",
"322 201 CURVE",
"318 196 LINE",
"296 135 OFFCURVE",
"268 57 OFFCURVE",
"223 15 CURVE SMOOTH",
"206 -2 OFFCURVE",
"189 -9 OFFCURVE",
"173 -9 CURVE",
"164 -1 LINE",
"131 29 LINE",
"122 35 OFFCURVE",
"107 51 OFFCURVE",
"101 67 CURVE",
"86 89 LINE",
"66 107 OFFCURVE",
"41 157 OFFCURVE",
"39 174 CURVE SMOOTH",
"38 183 LINE SMOOTH",
"38 188 OFFCURVE",
"33 195 OFFCURVE",
"31 199 CURVE SMOOTH",
"24 219 OFFCURVE",
"-3 215 OFFCURVE",
"-2 193 CURVE SMOOTH",
"-1 155 OFFCURVE",
"12 122 OFFCURVE",
"28 88 CURVE",
"30 85 OFFCURVE",
"31 78 OFFCURVE",
"34 75 CURVE SMOOTH",
"43 67 OFFCURVE",
"42 66 OFFCURVE",
"47 55 CURVE",
"47 54 LINE",
"52 50 LINE",
"52 50 OFFCURVE",
"53 48 OFFCURVE",
"54 48 CURVE",
"56 40 OFFCURVE",
"57 34 OFFCURVE",
"66 33 CURVE",
"71 27 OFFCURVE",
"76 16 OFFCURVE",
"84 15 CURVE",
"114 -12 OFFCURVE",
"145 -23 OFFCURVE",
"173 -21 CURVE",
"176 -25 LINE",
"183 -31 OFFCURVE",
"194 -36 OFFCURVE",
"203 -43 CURVE SMOOTH",
"221 -56 LINE SMOOTH",
"225 -59 OFFCURVE",
"232 -61 OFFCURVE",
"236 -62 CURVE",
"243 -58 OFFCURVE",
"245 -62 OFFCURVE",
"252 -64 CURVE SMOOTH",
"258 -66 OFFCURVE",
"263 -63 OFFCURVE",
"269 -63 CURVE SMOOTH",
"270 -63 OFFCURVE",
"275 -58 OFFCURVE",
"276 -57 CURVE SMOOTH",
"282 -51 OFFCURVE",
"281 -45 OFFCURVE",
"267 -47 CURVE SMOOTH",
"242 -51 OFFCURVE",
"237 -54 OFFCURVE",
"210 -35 CURVE",
"208 -33 OFFCURVE",
"196 -25 OFFCURVE",
"194 -25 CURVE",
"186 -19 LINE",
"211 -13 OFFCURVE",
"233 2 OFFCURVE",
"252 24 CURVE",
"252 33 OFFCURVE",
"258 36 OFFCURVE",
"265 39 CURVE",
"271 48 LINE",
"271 56 OFFCURVE",
"276 60 OFFCURVE",
"282 64 CURVE",
"289 75 LINE",
"289 78 OFFCURVE",
"291 82 OFFCURVE",
"293 85 CURVE",
"288 97 OFFCURVE",
"293 99 OFFCURVE",
"303 103 CURVE",
"317 122 OFFCURVE",
"331 159 OFFCURVE",
"340 182 CURVE",
"338 188 OFFCURVE",
"336 188 OFFCURVE",
"334 194 CURVE",
"340 193 OFFCURVE",
"344 190 OFFCURVE",
"348 199 CURVE",
"340 208 OFFCURVE",
"347 209 OFFCURVE",
"354 214 CURVE",
"363 234 OFFCURVE",
"384 281 OFFCURVE",
"386 301 CURVE SMOOTH",
"387 308 OFFCURVE",
"391 312 OFFCURVE",
"395 317 CURVE SMOOTH",
"398 320 OFFCURVE",
"416 367 OFFCURVE",
"419 375 CURVE",
"443 387 OFFCURVE",
"440 413 OFFCURVE",
"447 433 CURVE SMOOTH",
"452 448 LINE",
"460 448 OFFCURVE",
"468 447 OFFCURVE",
"474 446 CURVE SMOOTH",
"484 445 LINE",
"492 442 LINE SMOOTH",
"501 439 OFFCURVE",
"501 450 OFFCURVE",
"492 454 CURVE"
);
},
{
closed = 1;
nodes = (
"73 39 OFFCURVE",
"33 97 OFFCURVE",
"14 168 CURVE",
"32 146 LINE SMOOTH",
"42 134 OFFCURVE",
"48 119 OFFCURVE",
"54 109 CURVE SMOOTH",
"59 99 OFFCURVE",
"65 95 OFFCURVE",
"70 88 CURVE",
"72 87 OFFCURVE",
"72 78 OFFCURVE",
"77 73 CURVE SMOOTH",
"85 64 OFFCURVE",
"93 52 OFFCURVE",
"96 48 CURVE SMOOTH",
"103 41 OFFCURVE",
"110 30 OFFCURVE",
"119 21 CURVE SMOOTH",
"128 11 OFFCURVE",
"142 6 OFFCURVE",
"146 -2 CURVE",
"149 -4 LINE",
"138 -1 OFFCURVE",
"127 5 OFFCURVE",
"115 13 CURVE SMOOTH"
);
}
);
width = 379;
}
);
note = J;
unicode = 004A;
},
{
glyphname = K;
layers = (
{
hints = (
{
horizontal = 1;
place = "{-54, 59}";
type = Stem;
},
{
horizontal = 1;
place = "{405, 46}";
type = Stem;
},
{
horizontal = 1;
place = "{605, -20}";
target = down;
type = TopGhost;
},
{
place = "{-11, 33}";
type = Stem;
},
{
place = "{372, 35}";
type = Stem;
}
);
layerId = "0027A263-E542-4E44-90C9-E4382CD4DF90";
paths = (
{
closed = 1;
nodes = (
"586 461 OFFCURVE",
"582 472 OFFCURVE",
"570 472 CURVE SMOOTH",
"548 472 OFFCURVE",
"540 466 OFFCURVE",
"531 446 CURVE",
"517 446 OFFCURVE",
"499 447 OFFCURVE",
"485 445 CURVE SMOOTH",
"480 444 OFFCURVE",
"477 440 OFFCURVE",
"472 439 CURVE",
"468 435 OFFCURVE",
"458 433 OFFCURVE",
"453 435 CURVE",
"452 449 OFFCURVE",
"436 439 OFFCURVE",
"428 440 CURVE SMOOTH",
"420 440 OFFCURVE",
"319 424 OFFCURVE",
"312 421 CURVE SMOOTH",
"302 416 OFFCURVE",
"290 416 OFFCURVE",
"279 414 CURVE",
"273 409 OFFCURVE",
"244 406 OFFCURVE",
"235 404 CURVE",
"231 404 OFFCURVE",
"231 400 OFFCURVE",
"229 398 CURVE SMOOTH",
"221 392 OFFCURVE",
"202 396 OFFCURVE",
"192 393 CURVE SMOOTH",
"157 384 LINE SMOOTH",
"154 383 OFFCURVE",
"160 389 OFFCURVE",
"160 390 CURVE",
"162 392 OFFCURVE",
"168 398 OFFCURVE",
"167 401 CURVE SMOOTH",
"166 406 OFFCURVE",
"149 402 OFFCURVE",
"146 401 CURVE SMOOTH",
"135 398 OFFCURVE",
"61 381 OFFCURVE",
"58 372 CURVE SMOOTH",
"56 362 OFFCURVE",
"77 329 OFFCURVE",
"86 325 CURVE SMOOTH",
"95 320 OFFCURVE",
"106 321 OFFCURVE",
"116 323 CURVE",
"126 327 OFFCURVE",
"135 328 OFFCURVE",
"144 331 CURVE SMOOTH",
"161 336 OFFCURVE",
"178 344 OFFCURVE",
"194 350 CURVE SMOOTH",
"201 352 OFFCURVE",
"209 353 OFFCURVE",
"215 357 CURVE",
"214 358 LINE",
"229 364 OFFCURVE",
"247 365 OFFCURVE",
"262 372 CURVE",
"280 377 LINE SMOOTH",
"300 383 OFFCURVE",
"319 395 OFFCURVE",
"339 397 CURVE SMOOTH",
"346 397 OFFCURVE",
"352 396 OFFCURVE",
"358 397 CURVE",
"370 397 OFFCURVE",
"387 403 OFFCURVE",
"399 405 CURVE",
"404 407 OFFCURVE",
"396 412 OFFCURVE",
"402 411 CURVE",
"403 410 LINE",
"404 410 OFFCURVE",
"408 407 OFFCURVE",
"407 406 CURVE",
"444 415 OFFCURVE",
"484 416 OFFCURVE",
"521 418 CURVE",
"511 389 LINE",
"511 384 OFFCURVE",
"478 296 OFFCURVE",
"475 285 CURVE",
"477 277 OFFCURVE",
"472 272 OFFCURVE",
"468 266 CURVE SMOOTH",
"462 259 OFFCURVE",
"463 241 OFFCURVE",
"454 227 CURVE",
"445 225 OFFCURVE",
"454 222 OFFCURVE",
"451 221 CURVE",
"449 216 LINE",
"449 205 OFFCURVE",
"442 193 OFFCURVE",
"435 185 CURVE",
"432 175 OFFCURVE",
"431 161 OFFCURVE",
"427 152 CURVE SMOOTH",
"426 150 OFFCURVE",
"424 149 OFFCURVE",
"422 147 CURVE",
"394 79 OFFCURVE",
"362 1 OFFCURVE",
"313 -44 CURVE SMOOTH",
"273 -81 OFFCURVE",
"241 -75 OFFCURVE",
"198 -47 CURVE SMOOTH",
"150 -16 OFFCURVE",
"129 37 OFFCURVE",
"112 89 CURVE",
"115 87 LINE SMOOTH",
"124 83 OFFCURVE",
"128 78 OFFCURVE",
"135 70 CURVE SMOOTH",
"138 67 OFFCURVE",
"159 54 OFFCURVE",
"164 50 CURVE",
"162 45 OFFCURVE",
"169 42 OFFCURVE",
"172 40 CURVE",
"180 40 OFFCURVE",
"183 36 OFFCURVE",
"188 31 CURVE",
"198 37 OFFCURVE",
"200 25 OFFCURVE",
"205 19 CURVE",
"212 14 OFFCURVE",
"226 16 OFFCURVE",
"227 7 CURVE",
"242 -1 OFFCURVE",
"266 -9 OFFCURVE",
"283 -10 CURVE",
"290 -5 OFFCURVE",
"292 -8 OFFCURVE",
"299 -8 CURVE",
"304 -9 OFFCURVE",
"310 -5 OFFCURVE",
"315 -4 CURVE SMOOTH",
"316 -4 OFFCURVE",
"318 -3 OFFCURVE",
"318 -2 CURVE",
"331 5 OFFCURVE",
"331 14 OFFCURVE",
"315 8 CURVE SMOOTH",
"290 0 OFFCURVE",
"275 0 OFFCURVE",
"250 9 CURVE",
"249 10 OFFCURVE",
"247 11 OFFCURVE",
"246 11 CURVE",
"238 14 OFFCURVE",
"230 19 OFFCURVE",
"223 23 CURVE SMOOTH",
"218 26 OFFCURVE",
"198 42 OFFCURVE",
"197 43 CURVE",
"189 46 OFFCURVE",
"176 47 OFFCURVE",
"180 59 CURVE",
"167 73 LINE",
"160 77 OFFCURVE",
"153 79 OFFCURVE",
"154 89 CURVE",
"150 94 OFFCURVE",
"146 99 OFFCURVE",
"143 105 CURVE",
"133 110 OFFCURVE",
"135 109 OFFCURVE",
"132 119 CURVE SMOOTH",
"131 126 OFFCURVE",
"124 115 OFFCURVE",
"124 123 CURVE SMOOTH",
"124 133 LINE SMOOTH",
"124 138 OFFCURVE",
"119 145 OFFCURVE",
"117 150 CURVE SMOOTH",
"110 171 OFFCURVE",
"81 166 OFFCURVE",
"81 143 CURVE SMOOTH",
"81 104 OFFCURVE",
"94 68 OFFCURVE",
"109 33 CURVE",
"110 29 OFFCURVE",
"112 22 OFFCURVE",
"115 19 CURVE SMOOTH",
"124 11 OFFCURVE",
"123 9 OFFCURVE",
"128 -2 CURVE",
"128 -2 OFFCURVE",
"127 -3 OFFCURVE",
"128 -3 CURVE",
"129 -5 OFFCURVE",
"131 -6 OFFCURVE",
"132 -7 CURVE SMOOTH",
"133 -8 OFFCURVE",
"134 -9 OFFCURVE",
"134 -10 CURVE",
"137 -18 OFFCURVE",
"137 -24 OFFCURVE",
"147 -26 CURVE",
"152 -32 OFFCURVE",
"157 -43 OFFCURVE",
"165 -45 CURVE",
"229 -105 OFFCURVE",
"296 -88 OFFCURVE",
"345 -35 CURVE",
"345 -25 OFFCURVE",
"351 -22 OFFCURVE",
"359 -19 CURVE",
"362 -16 OFFCURVE",
"364 -13 OFFCURVE",
"366 -10 CURVE",
"366 -1 OFFCURVE",
"372 3 OFFCURVE",
"378 7 CURVE",
"386 19 LINE",
"387 23 OFFCURVE",
"388 27 OFFCURVE",
"391 30 CURVE",
"386 42 OFFCURVE",
"392 44 OFFCURVE",
"402 48 CURVE",
"418 68 OFFCURVE",
"435 108 OFFCURVE",
"446 132 CURVE",
"444 138 OFFCURVE",
"441 138 OFFCURVE",
"440 145 CURVE",
"446 144 OFFCURVE",
"450 141 OFFCURVE",
"454 150 CURVE",
"446 159 OFFCURVE",
"454 161 OFFCURVE",
"462 166 CURVE",
"472 187 OFFCURVE",
"497 237 OFFCURVE",
"500 258 CURVE SMOOTH",
"501 265 OFFCURVE",
"506 269 OFFCURVE",
"510 275 CURVE SMOOTH",
"513 279 OFFCURVE",
"551 383 OFFCURVE",
"555 392 CURVE",
"564 394 OFFCURVE",
"574 401 OFFCURVE",
"580 411 CURVE SMOOTH",
"587 422 OFFCURVE",
"589 438 OFFCURVE",
"587 451 CURVE SMOOTH"
);
},
{
closed = 1;
nodes = (
"1084 -142 LINE",
"1081 -137 OFFCURVE",
"1079 -132 OFFCURVE",
"1080 -126 CURVE SMOOTH",
"1080 -124 LINE",
"1077 -115 OFFCURVE",
"1073 -106 OFFCURVE",
"1068 -98 CURVE",
"1067 -98 OFFCURVE",
"1067 -97 OFFCURVE",
"1067 -96 CURVE",
"1062 -92 OFFCURVE",
"1058 -88 OFFCURVE",
"1055 -82 CURVE",
"1053 -80 LINE SMOOTH",
"1052 -79 OFFCURVE",
"1051 -78 OFFCURVE",
"1050 -78 CURVE",
"1050 -77 OFFCURVE",
"1049 -77 OFFCURVE",
"1049 -76 CURVE",
"1039 -75 OFFCURVE",
"1036 -69 OFFCURVE",
"1031 -62 CURVE",
"1030 -62 OFFCURVE",
"1030 -61 OFFCURVE",
"1029 -61 CURVE",
"1023 -57 LINE SMOOTH",
"1015 -52 OFFCURVE",
"1007 -63 OFFCURVE",
"1013 -70 CURVE",
"1014 -70 LINE SMOOTH",
"1024 -70 OFFCURVE",
"1026 -75 OFFCURVE",
"1031 -82 CURVE",
"1031 -82 OFFCURVE",
"1032 -82 OFFCURVE",
"1032 -83 CURVE",
"1035 -85 LINE",
"1035 -86 OFFCURVE",
"1036 -86 OFFCURVE",
"1036 -86 CURVE",
"1041 -88 OFFCURVE",
"1045 -90 OFFCURVE",
"1047 -93 CURVE",
"1047 -94 OFFCURVE",
"1047 -94 OFFCURVE",
"1048 -95 CURVE SMOOTH",
"1054 -100 OFFCURVE",
"1057 -107 OFFCURVE",
"1059 -115 CURVE SMOOTH",
"1059 -116 OFFCURVE",
"1060 -116 OFFCURVE",
"1060 -117 CURVE",
"1081 -169 OFFCURVE",
"1000 -211 OFFCURVE",
"868 -140 CURVE SMOOTH",
"832 -121 OFFCURVE",
"799 -100 OFFCURVE",
"768 -79 CURVE",
"768 -79 OFFCURVE",
"767 -79 OFFCURVE",
"767 -78 CURVE",
"762 -75 OFFCURVE",
"755 -76 OFFCURVE",
"751 -73 CURVE",
"749 -70 OFFCURVE",
"752 -66 OFFCURVE",
"748 -64 CURVE",
"747 -64 OFFCURVE",
"747 -64 OFFCURVE",
"747 -63 CURVE",
"735 -55 OFFCURVE",
"725 -47 OFFCURVE",
"714 -38 CURVE",
"713 -38 LINE",
"709 -34 OFFCURVE",
"700 -35 OFFCURVE",
"699 -30 CURVE SMOOTH",
"698 -25 OFFCURVE",
"694 -24 OFFCURVE",
"692 -20 CURVE",
"691 -19 LINE SMOOTH",
"679 -9 OFFCURVE",
"668 1 OFFCURVE",
"658 11 CURVE",
"657 11 OFFCURVE",
"657 12 OFFCURVE",
"657 12 CURVE",
"646 21 OFFCURVE",
"637 30 OFFCURVE",
"628 42 CURVE SMOOTH",
"627 44 OFFCURVE",
"622 40 OFFCURVE",
"620 41 CURVE",
"615 42 OFFCURVE",
"621 50 OFFCURVE",
"616 54 CURVE",
"616 54 OFFCURVE",
"615 55 OFFCURVE",
"615 56 CURVE",
"601 72 OFFCURVE",
"588 87 OFFCURVE",
"578 102 CURVE",
"576 104 LINE",
"566 105 OFFCURVE",
"568 113 OFFCURVE",
"565 121 CURVE",
"565 121 OFFCURVE",
"565 122 OFFCURVE",
"564 122 CURVE",
"556 136 OFFCURVE",
"550 148 OFFCURVE",
"546 158 CURVE",
"546 159 OFFCURVE",
"546 159 OFFCURVE",
"545 159 CURVE",
"539 166 OFFCURVE",
"536 173 OFFCURVE",
"539 182 CURVE",
"539 184 LINE SMOOTH",
"538 194 OFFCURVE",
"539 203 OFFCURVE",
"542 211 CURVE SMOOTH",
"551 231 OFFCURVE",
"575 257 OFFCURVE",
"592 274 CURVE SMOOTH",
"593 275 LINE",
"597 286 OFFCURVE",
"607 291 OFFCURVE",
"616 298 CURVE",
"617 298 OFFCURVE",
"617 299 OFFCURVE",
"618 299 CURVE",
"635 316 OFFCURVE",
"655 333 OFFCURVE",
"677 349 CURVE",
"677 350 LINE",
"682 357 OFFCURVE",
"689 361 OFFCURVE",
"696 366 CURVE SMOOTH",
"702 371 OFFCURVE",
"709 374 OFFCURVE",
"715 378 CURVE SMOOTH",
"716 379 OFFCURVE",
"716 379 OFFCURVE",
"717 379 CURVE",
"722 384 OFFCURVE",
"726 387 OFFCURVE",
"732 390 CURVE",
"733 390 OFFCURVE",
"733 390 OFFCURVE",
"734 391 CURVE SMOOTH",
"742 396 LINE",
"743 397 LINE",
"741 408 OFFCURVE",
"752 403 OFFCURVE",
"760 408 CURVE",
"761 408 LINE",
"782 421 OFFCURVE",
"803 432 OFFCURVE",
"825 442 CURVE",
"826 443 LINE SMOOTH",
"833 450 OFFCURVE",
"839 453 OFFCURVE",
"849 453 CURVE",
"849 453 OFFCURVE",
"850 453 OFFCURVE",
"851 454 CURVE",
"863 458 LINE",
"863 458 OFFCURVE",
"863 459 OFFCURVE",
"864 459 CURVE",
"871 464 OFFCURVE",
"865 470 OFFCURVE",
"875 464 CURVE",
"875 465 OFFCURVE",
"876 465 OFFCURVE",
"877 465 CURVE SMOOTH",
"878 465 OFFCURVE",
"879 466 OFFCURVE",
"880 466 CURVE",
"880 466 OFFCURVE",
"881 466 OFFCURVE",
"881 467 CURVE",
"883 467 OFFCURVE",
"884 469 OFFCURVE",
"884 470 CURVE SMOOTH",
"884 471 OFFCURVE",
"884 471 OFFCURVE",
"885 472 CURVE SMOOTH",
"888 475 OFFCURVE",
"888 482 OFFCURVE",
"894 482 CURVE",
"898 481 OFFCURVE",
"896 471 OFFCURVE",
"903 473 CURVE",
"905 473 LINE",
"908 474 OFFCURVE",
"911 475 OFFCURVE",
"913 475 CURVE SMOOTH",
"914 475 OFFCURVE",
"915 476 OFFCURVE",
"916 476 CURVE",
"922 479 OFFCURVE",
"927 482 OFFCURVE",
"934 479 CURVE",
"936 479 LINE",
"936 479 OFFCURVE",
"937 479 OFFCURVE",
"938 480 CURVE",
"946 480 LINE",
"947 481 LINE",
"958 484 OFFCURVE",
"971 482 OFFCURVE",
"983 477 CURVE",
"983 477 OFFCURVE",
"984 477 OFFCURVE",
"984 476 CURVE",
"995 471 OFFCURVE",
"1002 462 OFFCURVE",
"1005 447 CURVE SMOOTH",
"1008 438 OFFCURVE",
"1021 440 OFFCURVE",
"1022 448 CURVE SMOOTH",
"1022 449 OFFCURVE",
"1022 449 OFFCURVE",
"1021 450 CURVE SMOOTH",
"1018 455 OFFCURVE",
"1017 461 OFFCURVE",
"1016 467 CURVE SMOOTH",
"1016 468 OFFCURVE",
"1015 468 OFFCURVE",
"1015 469 CURVE",
"1012 473 OFFCURVE",
"1010 478 OFFCURVE",
"1008 483 CURVE",
"1008 484 OFFCURVE",
"1007 485 OFFCURVE",
"1007 485 CURVE",
"1003 492 OFFCURVE",
"998 498 OFFCURVE",
"992 503 CURVE SMOOTH",
"991 504 LINE",
"984 505 OFFCURVE",
"981 512 OFFCURVE",
"975 515 CURVE",
"974 515 OFFCURVE",
"974 515 OFFCURVE",
"973 516 CURVE",
"963 520 OFFCURVE",
"952 522 OFFCURVE",
"940 522 CURVE",
"940 522 OFFCURVE",
"939 522 OFFCURVE",
"939 521 CURVE",
"932 517 OFFCURVE",
"927 514 OFFCURVE",
"919 519 CURVE",
"918 519 OFFCURVE",
"918 519 OFFCURVE",
"917 518 CURVE",
"913 518 OFFCURVE",
"910 517 OFFCURVE",
"906 516 CURVE SMOOTH",
"904 516 LINE",
"898 514 OFFCURVE",
"894 514 OFFCURVE",
"889 511 CURVE",
"888 511 LINE SMOOTH",
"887 511 OFFCURVE",
"887 511 OFFCURVE",
"886 510 CURVE",
"881 510 OFFCURVE",
"882 504 OFFCURVE",
"879 503 CURVE SMOOTH",
"876 502 OFFCURVE",
"871 504 OFFCURVE",
"867 503 CURVE SMOOTH",
"866 503 LINE",
"862 501 LINE",
"861 501 OFFCURVE",
"860 501 OFFCURVE",
"860 500 CURVE",
"858 500 LINE",
"857 499 OFFCURVE",
"856 499 OFFCURVE",
"856 499 CURVE",
"844 491 OFFCURVE",
"831 486 OFFCURVE",
"817 480 CURVE",
"812 479 OFFCURVE",
"813 471 OFFCURVE",
"809 468 CURVE",
"805 467 OFFCURVE",
"802 469 OFFCURVE",
"801 467 CURVE",
"800 467 OFFCURVE",
"800 467 OFFCURVE",
"800 466 CURVE",
"791 460 LINE SMOOTH",
"789 459 OFFCURVE",
"786 460 OFFCURVE",
"784 459 CURVE",
"784 459 OFFCURVE",
"784 458 OFFCURVE",
"783 458 CURVE",
"763 445 OFFCURVE",
"744 431 OFFCURVE",
"725 415 CURVE",
"724 415 LINE",
"717 409 LINE",
"716 408 LINE",
"715 408 OFFCURVE",
"714 407 OFFCURVE",
"714 406 CURVE",
"713 406 OFFCURVE",
"713 406 OFFCURVE",
"713 405 CURVE",
"707 398 OFFCURVE",
"704 393 OFFCURVE",
"696 391 CURVE",
"696 391 OFFCURVE",
"695 391 OFFCURVE",
"695 390 CURVE",
"694 390 OFFCURVE",
"694 389 OFFCURVE",
"693 389 CURVE",
"693 389 OFFCURVE",
"693 388 OFFCURVE",
"692 388 CURVE",
"688 380 OFFCURVE",
"688 374 OFFCURVE",
"678 375 CURVE SMOOTH",
"677 375 LINE",
"658 357 LINE",
"657 356 LINE SMOOTH",
"652 349 OFFCURVE",
"650 341 OFFCURVE",
"638 338 CURVE",
"608 308 LINE",
"608 307 OFFCURVE",
"607 307 OFFCURVE",
"607 306 CURVE",
"596 297 OFFCURVE",
"592 284 OFFCURVE",
"579 277 CURVE",
"579 277 OFFCURVE",
"578 276 OFFCURVE",
"577 276 CURVE",
"569 267 OFFCURVE",
"560 259 OFFCURVE",
"552 251 CURVE SMOOTH",
"507 206 OFFCURVE",
"496 166 OFFCURVE",
"526 114 CURVE",
"526 112 LINE",
"531 108 OFFCURVE",
"532 103 OFFCURVE",
"534 97 CURVE SMOOTH",
"538 87 OFFCURVE",
"553 83 OFFCURVE",
"555 69 CURVE SMOOTH",
"555 67 OFFCURVE",
"559 66 OFFCURVE",
"560 65 CURVE SMOOTH",
"561 64 OFFCURVE",
"561 64 OFFCURVE",
"561 63 CURVE",
"581 40 LINE",
"581 39 OFFCURVE",
"582 39 OFFCURVE",
"582 38 CURVE",
"588 35 OFFCURVE",
"590 30 OFFCURVE",
"593 25 CURVE SMOOTH",
"596 21 OFFCURVE",
"602 22 OFFCURVE",
"607 21 CURVE",
"603 11 OFFCURVE",
"613 5 OFFCURVE",
"619 -1 CURVE SMOOTH",
"626 -8 LINE SMOOTH",
"634 -18 OFFCURVE",
"647 -23 OFFCURVE",
"653 -34 CURVE",
"654 -35 OFFCURVE",
"654 -35 OFFCURVE",
"654 -36 CURVE SMOOTH",
"655 -45 OFFCURVE",
"665 -38 OFFCURVE",
"669 -42 CURVE SMOOTH",
"670 -43 OFFCURVE",
"668 -46 OFFCURVE",
"670 -48 CURVE SMOOTH",
"671 -49 LINE SMOOTH",
"676 -54 OFFCURVE",
"682 -58 OFFCURVE",
"687 -62 CURVE SMOOTH",
"689 -64 LINE SMOOTH",
"695 -68 OFFCURVE",
"702 -70 OFFCURVE",
"705 -77 CURVE",
"706 -77 OFFCURVE",
"706 -78 OFFCURVE",
"707 -78 CURVE",
"715 -85 OFFCURVE",
"723 -91 OFFCURVE",
"732 -97 CURVE",
"732 -98 OFFCURVE",
"733 -98 OFFCURVE",
"734 -99 CURVE SMOOTH",
"737 -102 OFFCURVE",
"742 -102 OFFCURVE",
"745 -105 CURVE SMOOTH",
"758 -119 OFFCURVE",
"773 -128 OFFCURVE",
"791 -135 CURVE",
"792 -138 OFFCURVE",
"794 -140 OFFCURVE",
"794 -140 CURVE",
"794 -140 OFFCURVE",
"795 -140 OFFCURVE",
"795 -141 CURVE",
"809 -150 LINE",
"810 -150 OFFCURVE",
"811 -150 OFFCURVE",
"811 -151 CURVE",
"822 -151 OFFCURVE",
"824 -150 OFFCURVE",
"827 -160 CURVE",
"828 -161 OFFCURVE",
"829 -161 OFFCURVE",
"829 -161 CURVE",
"850 -173 LINE",
"851 -174 LINE",
"864 -177 OFFCURVE",
"873 -187 OFFCURVE",
"885 -191 CURVE",
"885 -191 OFFCURVE",
"886 -192 OFFCURVE",
"887 -192 CURVE",
"895 -196 LINE",
"896 -196 LINE",
"899 -198 OFFCURVE",
"903 -195 OFFCURVE",
"904 -196 CURVE SMOOTH",
"913 -202 OFFCURVE",
"924 -216 OFFCURVE",
"938 -207 CURVE SMOOTH",
"942 -204 OFFCURVE",
"946 -213 OFFCURVE",
"951 -215 CURVE",
"953 -215 LINE SMOOTH",
"954 -215 OFFCURVE",
"955 -216 OFFCURVE",
"955 -216 CURVE",
"957 -216 LINE SMOOTH",
"962 -216 OFFCURVE",
"962 -208 OFFCURVE",
"966 -208 CURVE SMOOTH",
"974 -207 OFFCURVE",
"969 -217 OFFCURVE",
"974 -219 CURVE",
"976 -219 LINE SMOOTH",
"980 -219 OFFCURVE",
"984 -220 OFFCURVE",
"988 -220 CURVE SMOOTH",
"990 -220 LINE",
"996 -212 OFFCURVE",
"1000 -215 OFFCURVE",
"1008 -219 CURVE",
"1009 -219 LINE SMOOTH",
"1060 -213 OFFCURVE",
"1084 -181 OFFCURVE",
"1084 -144 CURVE SMOOTH"
);
}
);
width = 712;
}
);
note = K;
unicode = 004B;
},
{
glyphname = L;
layers = (
{
hints = (
{
horizontal = 1;
place = "{29, 41}";
type = Stem;
},
{
horizontal = 1;
place = "{136, 43}";
type = Stem;
},
{
place = "{452, 55}";
type = Stem;
},
{
place = "{746, 33}";
type = Stem;
}
);
layerId = "0027A263-E542-4E44-90C9-E4382CD4DF90";
paths = (
{
closed = 1;
nodes = (
"627 1 OFFCURVE",
"619 2 OFFCURVE",
"616 8 CURVE",
"610 12 OFFCURVE",
"610 18 OFFCURVE",
"605 21 CURVE SMOOTH",
"594 30 OFFCURVE",
"585 21 OFFCURVE",
"592 13 CURVE",
"598 11 OFFCURVE",
"602 3 OFFCURVE",
"607 -1 CURVE SMOOTH",
"614 -8 OFFCURVE",
"615 -8 OFFCURVE",
"617 -18 CURVE SMOOTH",
"621 -41 OFFCURVE",
"593 -41 OFFCURVE",
"578 -42 CURVE",
"572 -50 OFFCURVE",
"568 -48 OFFCURVE",
"561 -43 CURVE",
"557 -43 OFFCURVE",
"554 -44 OFFCURVE",
"550 -45 CURVE SMOOTH",
"542 -48 OFFCURVE",
"535 -40 OFFCURVE",
"527 -44 CURVE",
"521 -44 OFFCURVE",
"514 -43 OFFCURVE",
"508 -44 CURVE SMOOTH",
"505 -44 OFFCURVE",
"503 -47 OFFCURVE",
"500 -46 CURVE SMOOTH",
"491 -43 OFFCURVE",
"490 -42 OFFCURVE",
"479 -43 CURVE SMOOTH",
"464 -43 OFFCURVE",
"446 -42 OFFCURVE",
"431 -39 CURVE SMOOTH",
"417 -36 OFFCURVE",
"386 -34 OFFCURVE",
"369 -31 CURVE SMOOTH",
"351 -28 OFFCURVE",
"334 -25 OFFCURVE",
"316 -21 CURVE",
"351 23 OFFCURVE",
"376 79 OFFCURVE",
"395 131 CURVE SMOOTH",
"398 138 OFFCURVE",
"402 145 OFFCURVE",
"404 153 CURVE SMOOTH",
"405 160 OFFCURVE",
"400 168 OFFCURVE",
"410 171 CURVE",
"429 223 LINE SMOOTH",
"432 231 OFFCURVE",
"429 241 OFFCURVE",
"438 246 CURVE",
"450 281 OFFCURVE",
"463 315 OFFCURVE",
"476 350 CURVE SMOOTH",
"478 357 OFFCURVE",
"478 366 OFFCURVE",
"485 371 CURVE",
"489 382 OFFCURVE",
"494 390 OFFCURVE",
"501 399 CURVE",
"501 389 LINE",
"515 371 OFFCURVE",
"505 379 OFFCURVE",
"509 356 CURVE",
"517 345 OFFCURVE",
"513 331 OFFCURVE",
"517 320 CURVE SMOOTH",
"518 316 OFFCURVE",
"526 312 OFFCURVE",
"529 317 CURVE",
"531 319 OFFCURVE",
"526 350 OFFCURVE",
"527 357 CURVE",
"523 364 LINE",
"526 366 LINE",
"526 372 LINE",
"519 380 OFFCURVE",
"526 382 OFFCURVE",
"528 389 CURVE SMOOTH",
"532 403 OFFCURVE",
"530 437 OFFCURVE",
"546 444 CURVE",
"550 463 OFFCURVE",
"572 484 OFFCURVE",
"545 494 CURVE",
"541 499 OFFCURVE",
"531 499 OFFCURVE",
"525 499 CURVE SMOOTH",
"506 499 OFFCURVE",
"493 486 OFFCURVE",
"484 471 CURVE SMOOTH",
"475 455 OFFCURVE",
"450 419 OFFCURVE",
"457 400 CURVE",
"459 399 OFFCURVE",
"462 398 OFFCURVE",
"464 398 CURVE",
"464 392 OFFCURVE",
"459 365 OFFCURVE",
"456 360 CURVE",
"456 354 OFFCURVE",
"455 350 OFFCURVE",
"449 347 CURVE",
"443 329 OFFCURVE",
"441 309 OFFCURVE",
"432 292 CURVE SMOOTH",
"427 281 OFFCURVE",
"421 258 OFFCURVE",
"418 245 CURVE SMOOTH",
"416 238 OFFCURVE",
"412 227 OFFCURVE",
"412 220 CURVE",
"410 206 LINE",
"411 198 OFFCURVE",
"407 195 OFFCURVE",
"402 190 CURVE SMOOTH",
"398 185 OFFCURVE",
"397 176 OFFCURVE",
"392 171 CURVE",
"387 160 OFFCURVE",
"381 148 OFFCURVE",
"377 137 CURVE SMOOTH",
"376 133 OFFCURVE",
"381 132 OFFCURVE",
"379 129 CURVE",
"378 126 OFFCURVE",
"371 123 OFFCURVE",
"368 121 CURVE",
"357 108 OFFCURVE",
"358 85 OFFCURVE",
"344 68 CURVE SMOOTH",
"337 60 OFFCURVE",
"332 46 OFFCURVE",
"326 37 CURVE",
"325 29 OFFCURVE",
"325 22 OFFCURVE",
"316 20 CURVE",
"306 7 OFFCURVE",
"293 0 OFFCURVE",
"283 -12 CURVE",
"275 -10 OFFCURVE",
"216 9 OFFCURVE",
"212 12 CURVE SMOOTH",
"210 13 OFFCURVE",
"208 16 OFFCURVE",
"206 17 CURVE SMOOTH",
"202 20 OFFCURVE",
"196 16 OFFCURVE",
"192 17 CURVE SMOOTH",
"188 19 OFFCURVE",
"187 29 OFFCURVE",
"183 29 CURVE SMOOTH",
"163 29 OFFCURVE",
"169 35 OFFCURVE",
"154 44 CURVE SMOOTH",
"149 47 OFFCURVE",
"145 48 OFFCURVE",
"140 52 CURVE",
"139 54 LINE",
"115 71 OFFCURVE",
"95 91 OFFCURVE",
"80 115 CURVE",
"80 119 OFFCURVE",
"80 122 OFFCURVE",
"79 126 CURVE",
"72 133 OFFCURVE",
"69 135 OFFCURVE",
"76 144 CURVE",
"73 155 LINE SMOOTH",
"67 176 OFFCURVE",
"26 168 OFFCURVE",
"26 144 CURVE SMOOTH",
"26 141 LINE SMOOTH",
"26 136 OFFCURVE",
"27 134 OFFCURVE",
"31 133 CURVE",
"30 126 OFFCURVE",
"23 121 OFFCURVE",
"28 114 CURVE SMOOTH",
"35 104 OFFCURVE",
"33 88 OFFCURVE",
"37 76 CURVE",
"47 68 OFFCURVE",
"40 57 OFFCURVE",
"45 48 CURVE SMOOTH",
"50 40 OFFCURVE",
"59 36 OFFCURVE",
"58 25 CURVE",
"68 5 OFFCURVE",
"82 -14 OFFCURVE",
"97 -31 CURVE",
"103 -33 OFFCURVE",
"113 -47 OFFCURVE",
"121 -52 CURVE",
"127 -54 OFFCURVE",
"132 -58 OFFCURVE",
"136 -63 CURVE",
"144 -63 OFFCURVE",
"150 -66 OFFCURVE",
"155 -73 CURVE",
"213 -99 OFFCURVE",
"265 -78 OFFCURVE",
"306 -32 CURVE",
"322 -36 OFFCURVE",
"339 -42 OFFCURVE",
"355 -44 CURVE SMOOTH",
"370 -46 OFFCURVE",
"385 -51 OFFCURVE",
"400 -54 CURVE",
"403 -53 OFFCURVE",
"439 -61 OFFCURVE",
"445 -62 CURVE SMOOTH",
"456 -65 OFFCURVE",
"472 -62 OFFCURVE",
"481 -69 CURVE",
"484 -69 OFFCURVE",
"486 -70 OFFCURVE",
"489 -70 CURVE SMOOTH",
"514 -73 OFFCURVE",
"541 -78 OFFCURVE",
"567 -79 CURVE SMOOTH",
"574 -79 OFFCURVE",
"579 -74 OFFCURVE",
"586 -79 CURVE",
"628 -77 OFFCURVE",
"660 -43 OFFCURVE",
"632 -4 CURVE"
);
},
{
closed = 1;
nodes = (
"253 -47 OFFCURVE",
"231 -67 OFFCURVE",
"198 -67 CURVE SMOOTH",
"187 -67 OFFCURVE",
"180 -62 OFFCURVE",
"169 -59 CURVE SMOOTH",
"161 -57 OFFCURVE",
"154 -58 OFFCURVE",
"149 -49 CURVE",
"140 -43 LINE",
"117 -40 OFFCURVE",
"123 -34 OFFCURVE",
"113 -22 CURVE SMOOTH",
"109 -16 OFFCURVE",
"105 -18 OFFCURVE",
"102 -7 CURVE",
"97 1 OFFCURVE",
"88 3 OFFCURVE",
"88 6 CURVE",
"90 15 OFFCURVE",
"84 20 OFFCURVE",
"81 29 CURVE SMOOTH",
"74 45 OFFCURVE",
"67 61 OFFCURVE",
"61 78 CURVE",
"68 69 OFFCURVE",
"84 51 OFFCURVE",
"95 52 CURVE SMOOTH",
"103 52 OFFCURVE",
"105 45 OFFCURVE",
"110 40 CURVE",
"118 36 LINE",
"129 39 OFFCURVE",
"128 32 OFFCURVE",
"135 27 CURVE SMOOTH",
"141 23 OFFCURVE",
"149 20 OFFCURVE",
"156 18 CURVE",
"167 20 OFFCURVE",
"174 10 OFFCURVE",
"183 6 CURVE SMOOTH",
"189 4 OFFCURVE",
"196 1 OFFCURVE",
"202 0 CURVE SMOOTH",
"215 -3 OFFCURVE",
"222 -6 OFFCURVE",
"234 -11 CURVE SMOOTH",
"247 -16 OFFCURVE",
"261 -20 OFFCURVE",
"274 -23 CURVE"
);
}
);
width = 653;
}
);
note = L;
unicode = 004C;
},
{
glyphname = M;
lastChange = "2021-09-14 05:10:54 +0000";
layers = (
{
hints = (
{
horizontal = 1;
place = "{-111, 35}";
type = Stem;
},
{
horizontal = 1;
place = "{-53, 37}";
type = Stem;
},
{
horizontal = 1;
place = "{51, 79}";
type = Stem;
},
{
place = "{26, 51}";
type = Stem;
},
{
place = "{706, 44}";
type = Stem;
},
{
place = "{974, 53}";
type = Stem;
}
);
layerId = "0027A263-E542-4E44-90C9-E4382CD4DF90";
paths = (
{
closed = 1;
nodes = (
"931 -8 OFFCURVE",
"921 -4 OFFCURVE",
"913 -4 CURVE",
"908 -5 OFFCURVE",
"903 -7 OFFCURVE",
"898 -7 CURVE SMOOTH",
"878 -7 OFFCURVE",
"864 1 OFFCURVE",
"852 17 CURVE",
"844 19 OFFCURVE",
"843 24 OFFCURVE",
"843 31 CURVE",
"842 32 LINE",
"834 52 OFFCURVE",
"827 73 OFFCURVE",
"822 94 CURVE SMOOTH",
"821 99 OFFCURVE",
"819 101 OFFCURVE",
"817 105 CURVE SMOOTH",
"815 111 OFFCURVE",
"817 119 OFFCURVE",
"816 126 CURVE SMOOTH",
"814 135 OFFCURVE",
"813 149 OFFCURVE",
"809 157 CURVE SMOOTH",
"807 163 OFFCURVE",
"806 159 OFFCURVE",
"803 162 CURVE SMOOTH",
"801 164 OFFCURVE",
"805 170 OFFCURVE",
"805 174 CURVE SMOOTH",
"805 178 OFFCURVE",
"794 206 OFFCURVE",
"792 211 CURVE",
"778 236 OFFCURVE",
"754 244 OFFCURVE",
"732 226 CURVE SMOOTH",
"723 219 OFFCURVE",
"698 193 OFFCURVE",
"693 185 CURVE SMOOTH",
"688 178 OFFCURVE",
"688 168 OFFCURVE",
"677 168 CURVE",
"655 143 LINE SMOOTH",
"649 137 OFFCURVE",
"646 128 OFFCURVE",
"640 123 CURVE SMOOTH",
"636 120 OFFCURVE",
"632 117 OFFCURVE",
"629 113 CURVE SMOOTH",
"620 103 OFFCURVE",
"613 89 OFFCURVE",
"603 79 CURVE SMOOTH",
"598 74 OFFCURVE",
"591 65 OFFCURVE",
"584 63 CURVE SMOOTH",
"570 57 OFFCURVE",
"589 93 OFFCURVE",
"590 95 CURVE SMOOTH",
"617 143 OFFCURVE",
"641 193 OFFCURVE",
"659 246 CURVE",
"660 246 LINE",
"660 254 OFFCURVE",
"658 262 OFFCURVE",
"666 266 CURVE",
"668 273 LINE",
"666 280 OFFCURVE",
"667 283 OFFCURVE",
"672 289 CURVE",
"673 291 LINE",
"671 303 OFFCURVE",
"679 314 OFFCURVE",
"680 325 CURVE SMOOTH",
"684 355 OFFCURVE",
"686 388 OFFCURVE",
"671 416 CURVE",
"663 418 OFFCURVE",
"663 423 OFFCURVE",
"661 430 CURVE",
"639 456 OFFCURVE",
"596 461 OFFCURVE",
"565 453 CURVE SMOOTH",
"560 452 OFFCURVE",
"559 448 OFFCURVE",
"555 446 CURVE",
"552 446 OFFCURVE",
"551 448 OFFCURVE",
"547 447 CURVE SMOOTH",
"546 447 LINE",
"524 439 OFFCURVE",
"504 427 OFFCURVE",
"484 415 CURVE SMOOTH",
"469 405 OFFCURVE",
"457 393 OFFCURVE",
"441 383 CURVE SMOOTH",
"438 381 OFFCURVE",
"432 377 OFFCURVE",
"429 373 CURVE SMOOTH",
"419 363 OFFCURVE",
"408 356 OFFCURVE",
"398 347 CURVE SMOOTH",
"350 305 OFFCURVE",
"306 259 OFFCURVE",
"261 214 CURVE SMOOTH",
"241 195 OFFCURVE",
"247 223 OFFCURVE",
"250 233 CURVE SMOOTH",
"254 244 OFFCURVE",
"260 254 OFFCURVE",
"263 265 CURVE SMOOTH",
"276 311 OFFCURVE",
"286 372 OFFCURVE",
"244 406 CURVE SMOOTH",
"230 417 OFFCURVE",
"210 422 OFFCURVE",
"193 422 CURVE SMOOTH",
"183 422 OFFCURVE",
"151 415 OFFCURVE",
"151 403 CURVE SMOOTH",
"151 399 OFFCURVE",
"155 396 OFFCURVE",
"159 396 CURVE SMOOTH",
"177 396 OFFCURVE",
"195 412 OFFCURVE",
"222 394 CURVE",
"229 395 OFFCURVE",
"235 393 OFFCURVE",
"233 385 CURVE SMOOTH",
"231 376 OFFCURVE",
"234 375 OFFCURVE",
"239 367 CURVE",
"240 357 LINE SMOOTH",
"240 354 OFFCURVE",
"248 363 OFFCURVE",
"251 362 CURVE SMOOTH",
"252 362 OFFCURVE",
"250 350 OFFCURVE",
"249 348 CURVE SMOOTH",
"248 344 OFFCURVE",
"244 351 OFFCURVE",
"240 344 CURVE SMOOTH",
"237 340 OFFCURVE",
"236 321 OFFCURVE",
"235 315 CURVE SMOOTH",
"234 307 OFFCURVE",
"239 300 OFFCURVE",
"237 293 CURVE SMOOTH",
"235 288 OFFCURVE",
"231 283 OFFCURVE",
"229 277 CURVE SMOOTH",
"219 242 OFFCURVE",
"203 213 OFFCURVE",
"184 181 CURVE SMOOTH",
"181 176 OFFCURVE",
"181 165 OFFCURVE",
"175 165 CURVE",
"165 154 OFFCURVE",
"154 124 OFFCURVE",
"144 119 CURVE",
"130 100 OFFCURVE",
"116 82 OFFCURVE",
"101 65 CURVE",
"100 55 OFFCURVE",
"93 54 OFFCURVE",
"87 49 CURVE SMOOTH",
"80 43 OFFCURVE",
"74 32 OFFCURVE",
"72 29 CURVE SMOOTH",
"70 27 OFFCURVE",
"67 27 OFFCURVE",
"65 25 CURVE SMOOTH",
"50 9 OFFCURVE",
"34 -6 OFFCURVE",
"18 -20 CURVE SMOOTH",
"4 -32 OFFCURVE",
"7 -40 OFFCURVE",
"7 -56 CURVE SMOOTH",
"7 -102 OFFCURVE",
"45 -87 OFFCURVE",
"64 -62 CURVE SMOOTH",
"76 -46 OFFCURVE",
"87 -27 OFFCURVE",
"97 -10 CURVE SMOOTH",
"100 -5 OFFCURVE",
"97 -4 OFFCURVE",
"99 -1 CURVE SMOOTH",
"101 2 OFFCURVE",
"111 8 OFFCURVE",
"114 12 CURVE",
"129 25 OFFCURVE",
"134 45 OFFCURVE",
"148 60 CURVE SMOOTH",
"155 67 OFFCURVE",
"161 76 OFFCURVE",
"167 84 CURVE",
"167 94 OFFCURVE",
"176 97 OFFCURVE",
"182 102 CURVE SMOOTH",
"190 110 OFFCURVE",
"208 130 OFFCURVE",
"213 139 CURVE SMOOTH",
"220 149 OFFCURVE",
"232 159 OFFCURVE",
"240 168 CURVE",
"242 174 OFFCURVE",
"241 180 OFFCURVE",
"248 183 CURVE",
"249 188 OFFCURVE",
"252 192 OFFCURVE",
"258 192 CURVE",
"303 239 OFFCURVE",
"350 287 OFFCURVE",
"401 328 CURVE",
"402 330 OFFCURVE",
"407 332 OFFCURVE",
"409 334 CURVE SMOOTH",
"448 365 OFFCURVE",
"487 397 OFFCURVE",
"532 418 CURVE",
"533 418 LINE",
"539 423 OFFCURVE",
"543 431 OFFCURVE",
"552 428 CURVE",
"556 429 LINE",
"562 434 OFFCURVE",
"563 437 OFFCURVE",
"571 434 CURVE",
"581 437 OFFCURVE",
"594 432 OFFCURVE",
"604 432 CURVE SMOOTH",
"636 432 OFFCURVE",
"643 413 OFFCURVE",
"643 385 CURVE SMOOTH",
"643 354 OFFCURVE",
"637 322 OFFCURVE",
"629 292 CURVE SMOOTH",
"629 291 LINE SMOOTH",
"627 270 OFFCURVE",
"615 253 OFFCURVE",
"610 233 CURVE SMOOTH",
"608 225 OFFCURVE",
"602 218 OFFCURVE",
"601 210 CURVE SMOOTH",
"599 202 OFFCURVE",
"602 195 OFFCURVE",
"592 191 CURVE",
"584 172 LINE",
"584 164 OFFCURVE",
"578 159 OFFCURVE",
"574 153 CURVE SMOOTH",
"565 141 OFFCURVE",
"552 111 OFFCURVE",
"542 95 CURVE SMOOTH",
"533 81 OFFCURVE",
"521 69 OFFCURVE",
"516 52 CURVE SMOOTH",
"504 14 OFFCURVE",
"551 19 OFFCURVE",
"571 33 CURVE SMOOTH",
"601 54 OFFCURVE",
"627 85 OFFCURVE",
"651 112 CURVE",
"652 120 OFFCURVE",
"655 124 OFFCURVE",
"662 126 CURVE",
"690 157 LINE SMOOTH",
"713 183 OFFCURVE",
"733 207 OFFCURVE",
"756 162 CURVE SMOOTH",
"768 138 OFFCURVE",
"771 110 OFFCURVE",
"784 88 CURVE",
"795 89 OFFCURVE",
"807 84 OFFCURVE",
"790 79 CURVE",
"787 76 LINE",
"805 29 OFFCURVE",
"831 -25 OFFCURVE",
"889 -25 CURVE SMOOTH",
"900 -25 OFFCURVE",
"911 -21 OFFCURVE",
"920 -15 CURVE SMOOTH"
);
}
);
width = 941;
}
);
note = M;
unicode = 004D;
},
{
glyphname = N;
lastChange = "2021-09-14 05:10:54 +0000";
layers = (
{
hints = (
{
horizontal = 1;
place = "{40, 22}";
type = Stem;
},
{
horizontal = 1;
place = "{156, 15}";
type = Stem;
},
{
place = "{-114, 22}";
type = Stem;
},
{
place = "{191, 33}";
type = Stem;
},
{
place = "{231, 30}";
type = Stem;
}
);
layerId = "0027A263-E542-4E44-90C9-E4382CD4DF90";
paths = (
{
closed = 1;
nodes = (
"768 345 LINE SMOOTH",
"776 350 OFFCURVE",
"772 365 OFFCURVE",
"765 358 CURVE",
"764 358 LINE",
"764 357 LINE",
"760 356 OFFCURVE",
"756 358 OFFCURVE",
"753 357 CURVE",
"744 361 OFFCURVE",
"739 367 OFFCURVE",
"732 374 CURVE",
"722 378 OFFCURVE",
"726 393 OFFCURVE",
"720 400 CURVE",
"717 401 OFFCURVE",
"712 401 OFFCURVE",
"710 405 CURVE",
"710 408 OFFCURVE",
"713 410 OFFCURVE",
"712 413 CURVE",
"711 413 LINE",
"710 417 OFFCURVE",
"708 421 OFFCURVE",
"706 424 CURVE",
"706 425 LINE",
"702 428 OFFCURVE",
"698 432 OFFCURVE",
"697 438 CURVE",
"696 439 LINE SMOOTH",
"690 447 OFFCURVE",
"685 454 OFFCURVE",
"674 454 CURVE SMOOTH",
"670 454 OFFCURVE",
"664 451 OFFCURVE",
"664 447 CURVE SMOOTH",
"664 443 OFFCURVE",
"670 431 OFFCURVE",
"671 426 CURVE",
"678 420 OFFCURVE",
"680 390 OFFCURVE",
"681 380 CURVE",
"687 372 OFFCURVE",
"680 363 OFFCURVE",
"678 355 CURVE SMOOTH",
"676 342 LINE",
"675 341 LINE",
"675 338 OFFCURVE",
"676 336 OFFCURVE",
"677 333 CURVE",
"670 309 OFFCURVE",
"663 285 OFFCURVE",
"660 260 CURVE SMOOTH",
"659 254 OFFCURVE",
"654 249 OFFCURVE",
"653 243 CURVE SMOOTH",
"652 237 OFFCURVE",
"641 195 OFFCURVE",
"639 190 CURVE SMOOTH",
"633 174 OFFCURVE",
"629 156 OFFCURVE",
"623 140 CURVE",
"616 127 LINE",
"616 126 LINE",
"606 102 LINE",
"611 93 OFFCURVE",
"604 92 OFFCURVE",
"599 87 CURVE",
"599 86 LINE",
"597 81 OFFCURVE",
"595 76 OFFCURVE",
"592 72 CURVE",
"592 65 OFFCURVE",
"590 58 OFFCURVE",
"583 55 CURVE",
"583 54 LINE",
"572 36 LINE",
"564 29 OFFCURVE",
"566 26 OFFCURVE",
"561 19 CURVE SMOOTH",
"560 18 LINE",
"557 11 OFFCURVE",
"525 -16 OFFCURVE",
"518 -14 CURVE",
"514 -16 OFFCURVE",
"514 -28 OFFCURVE",
"510 -24 CURVE",
"503 -22 OFFCURVE",
"500 -8 OFFCURVE",
"491 -13 CURVE",
"490 -12 LINE",
"482 -15 OFFCURVE",
"479 -10 OFFCURVE",
"477 -3 CURVE",
"476 -3 LINE",
"472 1 LINE",
"463 2 OFFCURVE",
"464 5 OFFCURVE",
"463 13 CURVE",
"457 19 OFFCURVE",
"450 28 OFFCURVE",
"450 37 CURVE",
"444 52 LINE",
"444 53 LINE",
"440 59 OFFCURVE",
"437 65 OFFCURVE",
"438 72 CURVE",
"437 72 LINE",
"411 167 OFFCURVE",
"402 320 OFFCURVE",
"408 416 CURVE SMOOTH",
"408 423 OFFCURVE",
"401 431 OFFCURVE",
"410 435 CURVE",
"410 437 OFFCURVE",
"410 440 OFFCURVE",
"411 442 CURVE",
"411 448 OFFCURVE",
"415 463 OFFCURVE",
"409 465 CURVE",
"405 462 OFFCURVE",
"403 459 OFFCURVE",
"400 456 CURVE",
"402 447 OFFCURVE",
"400 442 OFFCURVE",
"396 434 CURVE",
"396 433 LINE SMOOTH",
"395 425 OFFCURVE",
"394 405 OFFCURVE",
"390 400 CURVE",
"386 401 LINE",
"385 401 LINE",
"381 406 OFFCURVE",
"374 408 OFFCURVE",
"369 404 CURVE",
"364 405 OFFCURVE",
"358 394 OFFCURVE",
"356 391 CURVE",
"356 390 LINE",
"352 384 OFFCURVE",
"348 378 OFFCURVE",
"351 370 CURVE",
"351 369 LINE SMOOTH",
"350 360 OFFCURVE",
"348 350 OFFCURVE",
"346 342 CURVE SMOOTH",
"344 334 OFFCURVE",
"347 326 OFFCURVE",
"344 319 CURVE",
"343 313 OFFCURVE",
"345 307 OFFCURVE",
"338 304 CURVE",
"334 297 OFFCURVE",
"316 251 OFFCURVE",
"312 249 CURVE",
"310 241 OFFCURVE",
"310 231 OFFCURVE",
"301 227 CURVE",
"301 226 LINE",
"298 222 LINE",
"297 214 OFFCURVE",
"303 208 OFFCURVE",
"290 207 CURVE",
"290 206 LINE",
"289 204 LINE",
"284 201 OFFCURVE",
"287 194 OFFCURVE",
"287 193 CURVE",
"285 189 OFFCURVE",
"281 188 OFFCURVE",
"278 185 CURVE SMOOTH",
"271 177 OFFCURVE",
"265 163 OFFCURVE",
"260 154 CURVE",
"259 154 LINE",
"256 150 OFFCURVE",
"258 146 OFFCURVE",
"257 142 CURVE SMOOTH",
"256 140 OFFCURVE",
"250 138 OFFCURVE",
"247 134 CURVE SMOOTH",
"240 125 OFFCURVE",
"235 114 OFFCURVE",
"229 104 CURVE SMOOTH",
"189 40 LINE SMOOTH",
"181 28 OFFCURVE",
"171 17 OFFCURVE",
"163 5 CURVE SMOOTH",
"160 0 OFFCURVE",
"157 -7 OFFCURVE",
"156 -12 CURVE",
"152 -10 OFFCURVE",
"148 -12 OFFCURVE",
"146 -16 CURVE",
"145 -17 LINE SMOOTH",
"131 -31 OFFCURVE",
"119 -48 OFFCURVE",
"105 -61 CURVE",
"102 -69 OFFCURVE",
"100 -75 OFFCURVE",
"90 -76 CURVE",
"82 -84 OFFCURVE",
"72 -93 OFFCURVE",
"62 -99 CURVE",
"57 -90 OFFCURVE",
"53 -80 OFFCURVE",
"50 -70 CURVE",
"49 -70 LINE",
"48 -67 OFFCURVE",
"45 -64 OFFCURVE",
"45 -61 CURVE SMOOTH",
"47 -44 OFFCURVE",
"38 -28 OFFCURVE",
"40 -11 CURVE SMOOTH",
"40 -8 LINE SMOOTH",
"40 13 OFFCURVE",
"46 29 OFFCURVE",
"47 48 CURVE SMOOTH",
"47 54 OFFCURVE",
"39 55 OFFCURVE",
"38 49 CURVE SMOOTH",
"37 42 LINE",
"32 42 OFFCURVE",
"7 -22 OFFCURVE",
"4 -30 CURVE",
"5 -37 OFFCURVE",
"-1 -50 OFFCURVE",
"-5 -56 CURVE",
"-4 -59 OFFCURVE",
"-17 -87 OFFCURVE",
"-12 -102 CURVE SMOOTH",
"-5 -123 OFFCURVE",
"25 -140 OFFCURVE",
"46 -136 CURVE SMOOTH",
"55 -134 OFFCURVE",
"63 -130 OFFCURVE",
"71 -126 CURVE",
"76 -132 OFFCURVE",
"93 -142 OFFCURVE",
"94 -143 CURVE",
"99 -144 OFFCURVE",
"100 -143 OFFCURVE",
"103 -148 CURVE",
"103 -149 OFFCURVE",
"123 -150 OFFCURVE",
"125 -150 CURVE SMOOTH",
"131 -150 OFFCURVE",
"131 -141 OFFCURVE",
"125 -141 CURVE SMOOTH",
"121 -141 OFFCURVE",
"108 -143 OFFCURVE",
"107 -142 CURVE SMOOTH",
"104 -140 OFFCURVE",
"106 -136 OFFCURVE",
"100 -136 CURVE",
"92 -132 OFFCURVE",
"85 -127 OFFCURVE",
"79 -121 CURVE",
"113 -100 OFFCURVE",
"149 -58 OFFCURVE",
"173 -26 CURVE SMOOTH",
"176 -22 OFFCURVE",
"181 -17 OFFCURVE",
"183 -12 CURVE",
"184 -12 LINE",
"187 -2 OFFCURVE",
"210 26 OFFCURVE",
"217 36 CURVE SMOOTH",
"226 47 OFFCURVE",
"233 61 OFFCURVE",
"240 73 CURVE",
"241 73 LINE",
"245 82 OFFCURVE",
"247 91 OFFCURVE",
"256 97 CURVE",
"256 98 LINE",
"265 112 LINE",
"265 113 LINE",
"261 122 OFFCURVE",
"266 123 OFFCURVE",
"273 126 CURVE",
"273 127 LINE",
"285 146 LINE",
"285 147 LINE",
"287 151 OFFCURVE",
"289 155 OFFCURVE",
"292 158 CURVE",
"292 159 LINE",
"310 190 LINE",
"310 191 LINE",
"314 195 OFFCURVE",
"316 199 OFFCURVE",
"317 204 CURVE",
"320 206 OFFCURVE",
"359 283 OFFCURVE",
"365 295 CURVE SMOOTH",
"381 327 OFFCURVE",
"378 299 OFFCURVE",
"378 283 CURVE SMOOTH",
"378 271 OFFCURVE",
"377 259 OFFCURVE",
"378 248 CURVE SMOOTH",
"379 236 OFFCURVE",
"380 225 OFFCURVE",
"380 212 CURVE SMOOTH",
"380 211 LINE SMOOTH",
"380 200 OFFCURVE",
"384 188 OFFCURVE",
"383 178 CURVE",
"390 172 OFFCURVE",
"386 168 OFFCURVE",
"385 160 CURVE SMOOTH",
"384 153 OFFCURVE",
"394 111 OFFCURVE",
"394 108 CURVE",
"397 104 OFFCURVE",
"400 99 OFFCURVE",
"398 94 CURVE",
"398 92 LINE",
"404 62 OFFCURVE",
"425 18 OFFCURVE",
"447 -4 CURVE SMOOTH",
"454 -11 OFFCURVE",
"461 -16 OFFCURVE",
"469 -21 CURVE SMOOTH",
"470 -22 LINE",
"478 -18 OFFCURVE",
"481 -19 OFFCURVE",
"484 -28 CURVE",
"486 -28 LINE",
"509 -37 OFFCURVE",
"535 -31 OFFCURVE",
"555 -17 CURVE",
"556 -17 LINE",
"558 -14 OFFCURVE",
"557 -8 OFFCURVE",
"561 -7 CURVE SMOOTH",
"563 -6 OFFCURVE",
"566 -7 OFFCURVE",
"568 -6 CURVE SMOOTH",
"572 -4 OFFCURVE",
"572 8 OFFCURVE",
"583 4 CURVE",
"583 5 LINE",
"594 16 OFFCURVE",
"599 29 OFFCURVE",
"606 42 CURVE SMOOTH",
"611 51 OFFCURVE",
"618 57 OFFCURVE",
"622 66 CURVE SMOOTH",
"635 89 LINE SMOOTH",
"646 108 OFFCURVE",
"653 130 OFFCURVE",
"661 151 CURVE",
"661 152 LINE",
"664 156 OFFCURVE",
"662 162 OFFCURVE",
"664 166 CURVE SMOOTH",
"678 197 OFFCURVE",
"683 221 OFFCURVE",
"692 253 CURVE SMOOTH",
"694 259 OFFCURVE",
"701 289 OFFCURVE",
"701 293 CURVE",
"696 300 OFFCURVE",
"699 304 OFFCURVE",
"704 309 CURVE",
"706 325 OFFCURVE",
"708 342 OFFCURVE",
"706 358 CURVE SMOOTH",
"706 360 OFFCURVE",
"705 371 OFFCURVE",
"710 366 CURVE SMOOTH",
"732 348 LINE",
"734 347 LINE",
"741 347 OFFCURVE",
"743 344 OFFCURVE",
"748 340 CURVE",
"755 340 OFFCURVE",
"760 347 OFFCURVE",
"765 343 CURVE"
);
},
{
closed = 1;
nodes = (
"25 -119 OFFCURVE",
"16 -120 OFFCURVE",
"16 -83 CURVE",
"11 -75 OFFCURVE",
"9 -73 OFFCURVE",
"18 -67 CURVE",
"17 -60 OFFCURVE",
"28 -13 OFFCURVE",
"31 -3 CURVE",
"31 -16 OFFCURVE",
"33 -54 OFFCURVE",
"38 -64 CURVE",
"39 -64 LINE",
"41 -71 OFFCURVE",
"43 -79 OFFCURVE",
"46 -86 CURVE",
"46 -87 LINE",
"48 -91 OFFCURVE",
"51 -95 OFFCURVE",
"52 -99 CURVE",
"54 -100 OFFCURVE",
"54 -102 OFFCURVE",
"55 -104 CURVE"
);
}
);
width = 712;
}
);
note = N;
unicode = 004E;
},
{
glyphname = Eng;
layers = (
{
hints = (
{
horizontal = 1;
place = "{40, 22}";
type = Stem;
},
{
horizontal = 1;
place = "{156, 15}";
type = Stem;
},
{
horizontal = 1;
place = "{671, 34}";
type = Stem;
},
{
place = "{-114, 22}";
type = Stem;
},
{
place = "{191, 33}";
type = Stem;
},
{
place = "{231, 30}";
type = Stem;
},
{
place = "{1255, 29}";
type = Stem;
}
);
layerId = "0027A263-E542-4E44-90C9-E4382CD4DF90";
paths = (
{
closed = 1;
nodes = (
"640 345 LINE SMOOTH",
"648 350 OFFCURVE",
"644 365 OFFCURVE",
"637 358 CURVE",
"636 358 LINE",
"636 357 LINE",
"632 356 OFFCURVE",
"628 358 OFFCURVE",
"625 357 CURVE",
"616 361 OFFCURVE",
"611 367 OFFCURVE",
"604 374 CURVE",
"594 378 OFFCURVE",
"598 393 OFFCURVE",
"592 400 CURVE",
"589 401 OFFCURVE",
"584 401 OFFCURVE",
"582 405 CURVE",
"582 408 OFFCURVE",
"585 410 OFFCURVE",
"584 413 CURVE",
"583 413 LINE",
"582 417 OFFCURVE",
"580 421 OFFCURVE",
"578 424 CURVE",
"578 425 LINE",
"574 428 OFFCURVE",
"570 432 OFFCURVE",
"569 438 CURVE",
"568 439 LINE SMOOTH",
"562 447 OFFCURVE",
"557 454 OFFCURVE",
"546 454 CURVE SMOOTH",
"542 454 OFFCURVE",
"536 451 OFFCURVE",
"536 447 CURVE SMOOTH",
"536 443 OFFCURVE",
"542 431 OFFCURVE",
"543 426 CURVE",
"550 420 OFFCURVE",
"552 390 OFFCURVE",
"553 380 CURVE",
"559 372 OFFCURVE",
"552 363 OFFCURVE",
"550 355 CURVE SMOOTH",
"548 342 LINE",
"547 341 LINE",
"547 338 OFFCURVE",
"548 336 OFFCURVE",
"549 333 CURVE",
"542 309 OFFCURVE",
"535 285 OFFCURVE",
"532 260 CURVE SMOOTH",
"531 254 OFFCURVE",
"526 249 OFFCURVE",
"525 243 CURVE SMOOTH",
"524 237 OFFCURVE",
"513 195 OFFCURVE",
"511 190 CURVE SMOOTH",
"505 174 OFFCURVE",
"501 156 OFFCURVE",
"495 140 CURVE",
"488 127 LINE",
"488 126 LINE",
"478 102 LINE",
"483 93 OFFCURVE",
"476 92 OFFCURVE",
"471 87 CURVE",
"471 86 LINE",
"469 81 OFFCURVE",
"467 76 OFFCURVE",
"464 72 CURVE",
"464 65 OFFCURVE",
"462 58 OFFCURVE",
"455 55 CURVE",
"455 54 LINE",
"444 36 LINE",
"436 29 OFFCURVE",
"438 26 OFFCURVE",
"433 19 CURVE SMOOTH",
"432 18 LINE",
"429 11 OFFCURVE",
"397 -16 OFFCURVE",
"390 -14 CURVE",
"386 -16 OFFCURVE",
"382 -21 OFFCURVE",
"378 -17 CURVE",
"371 -15 OFFCURVE",
"372 -8 OFFCURVE",
"363 -13 CURVE",
"362 -12 LINE",
"354 -15 OFFCURVE",
"351 -10 OFFCURVE",
"349 -3 CURVE",
"348 -3 LINE",
"344 1 LINE",
"335 2 OFFCURVE",
"336 5 OFFCURVE",
"335 13 CURVE",
"329 19 OFFCURVE",
"322 28 OFFCURVE",
"322 37 CURVE",
"316 52 LINE",
"316 53 LINE",
"312 59 OFFCURVE",
"309 65 OFFCURVE",
"310 72 CURVE",
"309 72 LINE",
"283 167 OFFCURVE",
"274 320 OFFCURVE",
"280 416 CURVE SMOOTH",
"280 423 OFFCURVE",
"273 431 OFFCURVE",
"282 435 CURVE",
"282 437 OFFCURVE",
"282 440 OFFCURVE",
"283 442 CURVE",
"283 448 OFFCURVE",
"287 463 OFFCURVE",
"281 465 CURVE",
"277 462 OFFCURVE",
"275 459 OFFCURVE",
"272 456 CURVE",
"274 447 OFFCURVE",
"272 442 OFFCURVE",
"268 434 CURVE",
"268 433 LINE SMOOTH",
"267 425 OFFCURVE",
"266 405 OFFCURVE",
"262 400 CURVE",
"258 401 LINE",
"257 401 LINE",
"253 406 OFFCURVE",
"246 408 OFFCURVE",
"241 404 CURVE",
"236 405 OFFCURVE",
"230 394 OFFCURVE",
"228 391 CURVE",
"228 390 LINE",
"224 384 OFFCURVE",
"220 378 OFFCURVE",
"223 370 CURVE",
"223 369 LINE SMOOTH",
"222 360 OFFCURVE",
"220 350 OFFCURVE",
"218 342 CURVE SMOOTH",
"216 334 OFFCURVE",
"219 326 OFFCURVE",
"216 319 CURVE",
"215 313 OFFCURVE",
"217 307 OFFCURVE",
"210 304 CURVE",
"206 297 OFFCURVE",
"188 251 OFFCURVE",
"184 249 CURVE",
"182 241 OFFCURVE",
"182 231 OFFCURVE",
"173 227 CURVE",
"173 226 LINE",
"170 222 LINE",
"169 214 OFFCURVE",
"175 208 OFFCURVE",
"162 207 CURVE",
"162 206 LINE",
"161 204 LINE",
"156 201 OFFCURVE",
"159 194 OFFCURVE",
"159 193 CURVE",
"157 189 OFFCURVE",
"153 188 OFFCURVE",
"150 185 CURVE SMOOTH",
"143 177 OFFCURVE",
"137 163 OFFCURVE",
"132 154 CURVE",
"131 154 LINE",
"128 150 OFFCURVE",
"130 146 OFFCURVE",
"129 142 CURVE SMOOTH",
"128 140 OFFCURVE",
"122 138 OFFCURVE",
"119 134 CURVE SMOOTH",
"112 125 OFFCURVE",
"107 114 OFFCURVE",
"101 104 CURVE SMOOTH",
"61 40 LINE SMOOTH",
"53 28 OFFCURVE",
"43 17 OFFCURVE",
"35 5 CURVE SMOOTH",
"32 0 OFFCURVE",
"29 -7 OFFCURVE",
"28 -12 CURVE",
"24 -10 OFFCURVE",
"20 -12 OFFCURVE",
"18 -16 CURVE",
"17 -17 LINE SMOOTH",
"4 -30 OFFCURVE",
"32 -54 OFFCURVE",
"45 -26 CURVE SMOOTH",
"47 -21 OFFCURVE",
"53 -17 OFFCURVE",
"55 -12 CURVE",
"56 -12 LINE",
"59 -2 OFFCURVE",
"82 26 OFFCURVE",
"89 36 CURVE SMOOTH",
"98 47 OFFCURVE",
"105 61 OFFCURVE",
"112 73 CURVE",
"113 73 LINE",
"117 82 OFFCURVE",
"119 91 OFFCURVE",
"128 97 CURVE",
"128 98 LINE",
"137 112 LINE",
"137 113 LINE",
"133 122 OFFCURVE",
"138 123 OFFCURVE",
"145 126 CURVE",
"145 127 LINE",
"157 146 LINE",
"157 147 LINE",
"159 151 OFFCURVE",
"161 155 OFFCURVE",
"164 158 CURVE",
"164 159 LINE",
"182 190 LINE",
"182 191 LINE",
"186 195 OFFCURVE",
"188 199 OFFCURVE",
"189 204 CURVE",
"192 206 OFFCURVE",
"231 283 OFFCURVE",
"237 295 CURVE SMOOTH",
"253 327 OFFCURVE",
"250 299 OFFCURVE",
"250 283 CURVE SMOOTH",
"250 271 OFFCURVE",
"249 259 OFFCURVE",
"250 248 CURVE SMOOTH",
"251 236 OFFCURVE",
"252 225 OFFCURVE",
"252 212 CURVE SMOOTH",
"252 211 LINE SMOOTH",
"252 200 OFFCURVE",
"256 188 OFFCURVE",
"255 178 CURVE",
"262 172 OFFCURVE",
"258 168 OFFCURVE",
"257 160 CURVE SMOOTH",
"256 153 OFFCURVE",
"266 111 OFFCURVE",
"266 108 CURVE",
"269 104 OFFCURVE",
"272 99 OFFCURVE",
"270 94 CURVE",
"270 92 LINE",
"276 62 OFFCURVE",
"297 18 OFFCURVE",
"319 -4 CURVE SMOOTH",
"326 -11 OFFCURVE",
"333 -16 OFFCURVE",
"341 -21 CURVE SMOOTH",
"342 -22 LINE",
"350 -18 OFFCURVE",
"353 -19 OFFCURVE",
"356 -28 CURVE",
"358 -28 LINE",
"381 -37 OFFCURVE",
"407 -31 OFFCURVE",
"427 -17 CURVE",
"428 -17 LINE",
"430 -14 OFFCURVE",
"429 -8 OFFCURVE",
"433 -7 CURVE SMOOTH",
"435 -6 OFFCURVE",
"438 -7 OFFCURVE",
"440 -6 CURVE SMOOTH",
"443 -4 OFFCURVE",
"443 4 OFFCURVE",
"450 5 CURVE",
"447 1 LINE",
"445 -9 OFFCURVE",
"445 -22 OFFCURVE",
"441 -30 CURVE",
"437 -35 LINE",
"415 -96 OFFCURVE",
"387 -174 OFFCURVE",
"342 -216 CURVE SMOOTH",
"325 -233 OFFCURVE",
"308 -240 OFFCURVE",
"292 -240 CURVE",
"283 -232 LINE",
"250 -202 LINE",
"241 -196 OFFCURVE",
"226 -180 OFFCURVE",
"220 -164 CURVE",
"205 -142 LINE",
"185 -124 OFFCURVE",
"160 -74 OFFCURVE",
"158 -57 CURVE SMOOTH",
"157 -48 LINE SMOOTH",
"157 -43 OFFCURVE",
"152 -36 OFFCURVE",
"150 -32 CURVE SMOOTH",
"143 -12 OFFCURVE",
"116 -16 OFFCURVE",
"117 -38 CURVE SMOOTH",
"118 -76 OFFCURVE",
"131 -109 OFFCURVE",
"147 -143 CURVE",
"149 -146 OFFCURVE",
"150 -153 OFFCURVE",
"153 -156 CURVE SMOOTH",
"162 -164 OFFCURVE",
"161 -165 OFFCURVE",
"166 -176 CURVE",
"166 -177 LINE",
"171 -181 LINE",
"171 -181 OFFCURVE",
"172 -183 OFFCURVE",
"173 -183 CURVE",
"175 -191 OFFCURVE",
"176 -197 OFFCURVE",
"185 -198 CURVE",
"190 -204 OFFCURVE",
"195 -215 OFFCURVE",
"203 -216 CURVE",
"233 -243 OFFCURVE",
"264 -254 OFFCURVE",
"292 -252 CURVE",
"295 -256 LINE",
"302 -262 OFFCURVE",
"313 -267 OFFCURVE",
"322 -274 CURVE SMOOTH",
"340 -287 LINE SMOOTH",
"344 -290 OFFCURVE",
"351 -292 OFFCURVE",
"355 -293 CURVE",
"362 -289 OFFCURVE",
"364 -293 OFFCURVE",
"371 -295 CURVE SMOOTH",
"377 -297 OFFCURVE",
"382 -294 OFFCURVE",
"388 -294 CURVE SMOOTH",
"389 -294 OFFCURVE",
"394 -289 OFFCURVE",
"395 -288 CURVE SMOOTH",
"401 -282 OFFCURVE",
"400 -276 OFFCURVE",
"386 -278 CURVE SMOOTH",
"361 -282 OFFCURVE",
"356 -285 OFFCURVE",
"329 -266 CURVE",
"327 -264 OFFCURVE",
"315 -256 OFFCURVE",
"313 -256 CURVE",
"305 -250 LINE",
"330 -244 OFFCURVE",
"352 -229 OFFCURVE",
"371 -207 CURVE",
"371 -198 OFFCURVE",
"377 -195 OFFCURVE",
"384 -192 CURVE",
"390 -183 LINE",
"390 -175 OFFCURVE",
"395 -171 OFFCURVE",
"401 -167 CURVE",
"408 -156 LINE",
"408 -153 OFFCURVE",
"410 -149 OFFCURVE",
"412 -146 CURVE",
"407 -134 OFFCURVE",
"412 -132 OFFCURVE",
"422 -128 CURVE",
"436 -109 OFFCURVE",
"450 -72 OFFCURVE",
"459 -49 CURVE",
"457 -43 OFFCURVE",
"455 -43 OFFCURVE",
"453 -37 CURVE",
"459 -38 OFFCURVE",
"463 -41 OFFCURVE",
"467 -32 CURVE",
"459 -23 OFFCURVE",
"466 -22 OFFCURVE",
"473 -17 CURVE",
"482 3 OFFCURVE",
"503 50 OFFCURVE",
"505 70 CURVE SMOOTH",
"506 77 OFFCURVE",
"510 81 OFFCURVE",
"514 86 CURVE SMOOTH",
"515 87 OFFCURVE",
"519 104 OFFCURVE",
"523 124 CURVE",
"526 133 OFFCURVE",
"529 142 OFFCURVE",
"533 151 CURVE",
"533 152 LINE",
"536 156 OFFCURVE",
"534 162 OFFCURVE",
"536 166 CURVE SMOOTH",
"550 197 OFFCURVE",
"555 221 OFFCURVE",
"564 253 CURVE SMOOTH",
"566 259 OFFCURVE",
"573 289 OFFCURVE",
"573 293 CURVE",
"568 300 OFFCURVE",
"571 304 OFFCURVE",
"576 309 CURVE",
"578 325 OFFCURVE",
"580 342 OFFCURVE",
"578 358 CURVE SMOOTH",
"578 360 OFFCURVE",
"577 371 OFFCURVE",
"582 366 CURVE SMOOTH",
"604 348 LINE",
"606 347 LINE",
"613 347 OFFCURVE",
"615 344 OFFCURVE",
"620 340 CURVE",
"627 340 OFFCURVE",
"632 347 OFFCURVE",
"637 343 CURVE"
);
},
{
closed = 1;
nodes = (
"192 -192 OFFCURVE",
"152 -134 OFFCURVE",
"133 -63 CURVE",
"151 -85 LINE SMOOTH",
"161 -97 OFFCURVE",
"167 -112 OFFCURVE",
"173 -122 CURVE SMOOTH",
"178 -132 OFFCURVE",
"184 -136 OFFCURVE",
"189 -143 CURVE",
"191 -144 OFFCURVE",
"191 -153 OFFCURVE",
"196 -158 CURVE SMOOTH",
"204 -167 OFFCURVE",
"212 -179 OFFCURVE",
"215 -183 CURVE SMOOTH",
"222 -190 OFFCURVE",
"229 -201 OFFCURVE",
"238 -210 CURVE SMOOTH",
"247 -220 OFFCURVE",
"261 -225 OFFCURVE",
"265 -233 CURVE",
"268 -235 LINE",
"257 -232 OFFCURVE",
"246 -226 OFFCURVE",
"234 -218 CURVE SMOOTH"
);
}
);
width = 737;
}
);
note = Eng;
unicode = 014A;
},
{
glyphname = O;
layers = (
{
hints = (
{
horizontal = 1;
place = "{-38, 26}";
type = Stem;
},
{
horizontal = 1;
place = "{365, 36}";
type = Stem;
},
{
horizontal = 1;
place = "{461, 25}";
type = Stem;
},
{
place = "{85, 26}";
type = Stem;
},
{
place = "{808, 23}";
type = Stem;
}
);
layerId = "0027A263-E542-4E44-90C9-E4382CD4DF90";
paths = (
{
closed = 1;
nodes = (
"653 235 OFFCURVE",
"642 234 OFFCURVE",
"638 225 CURVE SMOOTH",
"628 204 OFFCURVE",
"611 189 OFFCURVE",
"602 175 CURVE SMOOTH",
"598 168 OFFCURVE",
"597 166 OFFCURVE",
"590 159 CURVE SMOOTH",
"561 133 OFFCURVE",
"544 107 OFFCURVE",
"510 87 CURVE SMOOTH",
"505 84 OFFCURVE",
"503 78 OFFCURVE",
"499 74 CURVE SMOOTH",
"491 67 OFFCURVE",
"480 60 OFFCURVE",
"470 54 CURVE SMOOTH",
"459 46 OFFCURVE",
"449 37 OFFCURVE",
"435 32 CURVE SMOOTH",
"414 24 OFFCURVE",
"392 16 OFFCURVE",
"372 5 CURVE SMOOTH",
"362 -1 OFFCURVE",
"357 -3 OFFCURVE",
"347 -3 CURVE SMOOTH",
"338 -4 OFFCURVE",
"318 -11 OFFCURVE",
"306 -12 CURVE SMOOTH",
"305 -12 OFFCURVE",
"304 -12 OFFCURVE",
"302 -13 CURVE",
"283 -15 LINE SMOOTH",
"278 -16 OFFCURVE",
"281 -18 OFFCURVE",
"278 -20 CURVE SMOOTH",
"274 -22 OFFCURVE",
"269 -18 OFFCURVE",
"266 -16 CURVE",
"265 -16 OFFCURVE",
"249 -16 OFFCURVE",
"246 -17 CURVE SMOOTH",
"241 -19 OFFCURVE",
"235 -20 OFFCURVE",
"229 -16 CURVE SMOOTH",
"226 -14 OFFCURVE",
"218 -15 OFFCURVE",
"214 -15 CURVE SMOOTH",
"210 -15 OFFCURVE",
"208 -20 OFFCURVE",
"205 -19 CURVE SMOOTH",
"203 -18 OFFCURVE",
"200 -13 OFFCURVE",
"196 -12 CURVE SMOOTH",
"188 -9 OFFCURVE",
"177 -8 OFFCURVE",
"168 -6 CURVE SMOOTH",
"153 -2 OFFCURVE",
"141 7 OFFCURVE",
"125 10 CURVE",
"123 12 LINE",
"120 23 OFFCURVE",
"114 16 OFFCURVE",
"110 23 CURVE SMOOTH",
"108 26 OFFCURVE",
"112 28 OFFCURVE",
"109 32 CURVE SMOOTH",
"102 39 OFFCURVE",
"99 48 OFFCURVE",
"92 56 CURVE SMOOTH",
"85 63 OFFCURVE",
"87 63 OFFCURVE",
"86 73 CURVE SMOOTH",
"83 107 OFFCURVE",
"83 136 OFFCURVE",
"97 163 CURVE SMOOTH",
"101 170 OFFCURVE",
"108 177 OFFCURVE",
"112 183 CURVE SMOOTH",
"116 191 OFFCURVE",
"124 205 OFFCURVE",
"135 208 CURVE SMOOTH",
"138 209 OFFCURVE",
"156 237 OFFCURVE",
"158 238 CURVE",
"176 252 OFFCURVE",
"188 261 OFFCURVE",
"207 273 CURVE SMOOTH",
"208 274 LINE SMOOTH",
"211 277 OFFCURVE",
"209 277 OFFCURVE",
"212 280 CURVE SMOOTH",
"216 284 OFFCURVE",
"225 284 OFFCURVE",
"231 287 CURVE SMOOTH",
"243 294 OFFCURVE",
"255 307 OFFCURVE",
"269 307 CURVE SMOOTH",
"280 307 OFFCURVE",
"279 309 OFFCURVE",
"286 314 CURVE SMOOTH",
"317 335 OFFCURVE",
"394 348 OFFCURVE",
"432 347 CURVE SMOOTH",
"457 346 OFFCURVE",
"470 331 OFFCURVE",
"488 315 CURVE SMOOTH",
"493 311 OFFCURVE",
"492 318 OFFCURVE",
"492 321 CURVE",
"489 335 OFFCURVE",
"472 349 OFFCURVE",
"460 355 CURVE SMOOTH",
"454 358 OFFCURVE",
"449 357 OFFCURVE",
"443 359 CURVE SMOOTH",
"439 360 OFFCURVE",
"437 364 OFFCURVE",
"433 366 CURVE SMOOTH",
"427 369 OFFCURVE",
"421 362 OFFCURVE",
"416 366 CURVE SMOOTH",
"408 373 OFFCURVE",
"411 375 OFFCURVE",
"400 372 CURVE SMOOTH",
"392 370 OFFCURVE",
"391 368 OFFCURVE",
"383 373 CURVE SMOOTH",
"373 378 OFFCURVE",
"336 371 OFFCURVE",
"326 367 CURVE SMOOTH",
"316 364 OFFCURVE",
"310 361 OFFCURVE",
"298 360 CURVE SMOOTH",
"290 360 OFFCURVE",
"281 357 OFFCURVE",
"275 353 CURVE SMOOTH",
"271 350 OFFCURVE",
"267 346 OFFCURVE",
"262 348 CURVE SMOOTH",
"257 350 OFFCURVE",
"222 325 OFFCURVE",
"216 323 CURVE SMOOTH",
"211 321 OFFCURVE",
"207 322 OFFCURVE",
"202 318 CURVE SMOOTH",
"186 308 OFFCURVE",
"164 293 OFFCURVE",
"149 281 CURVE SMOOTH",
"140 273 OFFCURVE",
"128 255 OFFCURVE",
"120 245 CURVE SMOOTH",
"115 239 OFFCURVE",
"115 241 OFFCURVE",
"107 231 CURVE SMOOTH",
"72 183 OFFCURVE",
"90 207 OFFCURVE",
"72 164 CURVE",
"72 163 LINE SMOOTH",
"72 152 OFFCURVE",
"65 116 OFFCURVE",
"65 105 CURVE SMOOTH",
"65 89 OFFCURVE",
"65 79 OFFCURVE",
"70 64 CURVE SMOOTH",
"73 53 OFFCURVE",
"75 41 OFFCURVE",
"84 33 CURVE SMOOTH",
"92 26 OFFCURVE",
"95 15 OFFCURVE",
"105 14 CURVE SMOOTH",
"113 13 OFFCURVE",
"112 4 OFFCURVE",
"115 1 CURVE SMOOTH",
"137 -16 OFFCURVE",
"164 -27 OFFCURVE",
"192 -34 CURVE SMOOTH",
"196 -35 OFFCURVE",
"209 -28 OFFCURVE",
"216 -27 CURVE SMOOTH",
"224 -26 OFFCURVE",
"226 -32 OFFCURVE",
"231 -33 CURVE SMOOTH",
"236 -34 OFFCURVE",
"227 -37 OFFCURVE",
"229 -39 CURVE",
"230 -41 OFFCURVE",
"242 -41 OFFCURVE",
"246 -41 CURVE SMOOTH",
"315 -42 OFFCURVE",
"393 -23 OFFCURVE",
"463 10 CURVE SMOOTH",
"497 26 OFFCURVE",
"528 45 OFFCURVE",
"557 66 CURVE SMOOTH",
"560 68 OFFCURVE",
"554 85 OFFCURVE",
"557 87 CURVE",
"566 77 LINE",
"568 79 OFFCURVE",
"568 95 OFFCURVE",
"572 93 CURVE SMOOTH",
"576 91 OFFCURVE",
"576 82 OFFCURVE",
"578 84 CURVE SMOOTH",
"588 92 OFFCURVE",
"598 101 OFFCURVE",
"607 110 CURVE SMOOTH",
"610 113 OFFCURVE",
"600 121 OFFCURVE",
"602 123 CURVE SMOOTH",
"605 126 OFFCURVE",
"619 124 OFFCURVE",
"625 130 CURVE SMOOTH",
"678 186 OFFCURVE",
"693 277 OFFCURVE",
"654 347 CURVE SMOOTH",
"646 362 OFFCURVE",
"632 373 OFFCURVE",
"623 387 CURVE SMOOTH",
"620 391 OFFCURVE",
"617 394 OFFCURVE",
"613 396 CURVE SMOOTH",
"605 399 OFFCURVE",
"602 404 OFFCURVE",
"596 409 CURVE",
"548 440 OFFCURVE",
"498 452 OFFCURVE",
"441 453 CURVE SMOOTH",
"429 453 OFFCURVE",
"424 450 OFFCURVE",
"407 452 CURVE SMOOTH",
"403 453 OFFCURVE",
"365 448 OFFCURVE",
"360 446 CURVE SMOOTH",
"351 444 OFFCURVE",
"343 442 OFFCURVE",
"332 441 CURVE SMOOTH",
"254 431 OFFCURVE",
"174 390 OFFCURVE",
"109 345 CURVE SMOOTH",
"99 338 OFFCURVE",
"93 328 OFFCURVE",
"81 323 CURVE SMOOTH",
"69 318 OFFCURVE",
"64 306 OFFCURVE",
"53 298 CURVE",
"52 298 OFFCURVE",
"51 297 OFFCURVE",
"50 296 CURVE SMOOTH",
"43 287 OFFCURVE",
"38 279 OFFCURVE",
"28 272 CURVE SMOOTH",
"17 264 OFFCURVE",
"15 250 OFFCURVE",
"3 243 CURVE",
"-15 216 OFFCURVE",
"-3 215 OFFCURVE",
"10 227 CURVE SMOOTH",
"21 236 OFFCURVE",
"18 237 OFFCURVE",
"29 245 CURVE SMOOTH",
"36 250 OFFCURVE",
"36 258 OFFCURVE",
"45 259 CURVE",
"58 271 LINE",
"59 283 OFFCURVE",
"67 281 OFFCURVE",
"74 285 CURVE SMOOTH",
"82 290 OFFCURVE",
"98 308 OFFCURVE",
"106 314 CURVE SMOOTH",
"113 320 OFFCURVE",
"123 336 OFFCURVE",
"132 337 CURVE SMOOTH",
"139 338 OFFCURVE",
"146 338 OFFCURVE",
"152 341 CURVE",
"156 342 OFFCURVE",
"153 351 OFFCURVE",
"156 353 CURVE SMOOTH",
"161 357 OFFCURVE",
"171 357 OFFCURVE",
"177 361 CURVE SMOOTH",
"184 365 OFFCURVE",
"189 371 OFFCURVE",
"198 372 CURVE SMOOTH",
"202 372 OFFCURVE",
"206 375 OFFCURVE",
"209 377 CURVE SMOOTH",
"220 385 OFFCURVE",
"232 387 OFFCURVE",
"245 393 CURVE SMOOTH",
"251 395 OFFCURVE",
"302 411 OFFCURVE",
"305 411 CURVE SMOOTH",
"326 414 OFFCURVE",
"346 419 OFFCURVE",
"365 426 CURVE SMOOTH",
"374 429 OFFCURVE",
"374 433 OFFCURVE",
"385 430 CURVE SMOOTH",
"401 426 OFFCURVE",
"412 434 OFFCURVE",
"429 432 CURVE SMOOTH",
"434 431 OFFCURVE",
"461 429 OFFCURVE",
"466 431 CURVE SMOOTH",
"474 434 OFFCURVE",
"483 427 OFFCURVE",
"491 427 CURVE",
"525 423 OFFCURVE",
"576 413 OFFCURVE",
"601 389 CURVE SMOOTH",
"635 356 OFFCURVE",
"650 342 OFFCURVE",
"648 290 CURVE SMOOTH",
"648 282 OFFCURVE",
"669 271 OFFCURVE",
"654 262 CURVE SMOOTH",
"647 258 OFFCURVE",
"654 242 OFFCURVE",
"654 242 CURVE"
);
}
);
width = 707;
}
);
note = O;
unicode = 004F;
},
